<?xml version="1.0" encoding="utf-8" standalone="no"?>
<!DOCTYPE svg PUBLIC "-//W3C//DTD SVG 1.1//EN"
  "http://www.w3.org/Graphics/SVG/1.1/DTD/svg11.dtd">
<svg xmlns:xlink="http://www.w3.org/1999/xlink" width="456.626087pt" height="496.8pt" viewBox="0 0 456.626087 496.8" xmlns="http://www.w3.org/2000/svg" version="1.1">
 <metadata>
  <rdf:RDF xmlns:dc="http://purl.org/dc/elements/1.1/" xmlns:cc="http://creativecommons.org/ns#" xmlns:rdf="http://www.w3.org/1999/02/22-rdf-syntax-ns#">
   <cc:Work>
    <dc:type rdf:resource="http://purl.org/dc/dcmitype/StillImage"/>
    <dc:date>2023-09-01T11:34:53.779379</dc:date>
    <dc:format>image/svg+xml</dc:format>
    <dc:creator>
     <cc:Agent>
      <dc:title>Matplotlib v3.5.2, https://matplotlib.org/</dc:title>
     </cc:Agent>
    </dc:creator>
   </cc:Work>
  </rdf:RDF>
 </metadata>
 <defs>
  <style type="text/css">*{stroke-linejoin: round; stroke-linecap: butt}</style>
 </defs>
 <g id="figure_1">
  <g id="patch_1">
   <path d="M 0 496.8 
L 456.626087 496.8 
L 456.626087 -0 
L 0 -0 
z
" style="fill: #ffffff"/>
  </g>
  <g id="axes_1">
   <g id="patch_2">
    <path d="M -28.8 525.6 
L 485.426087 525.6 
L 485.426087 -28.8 
L -28.8 -28.8 
z
" style="fill: #ffffff"/>
   </g>
   <g id="patch_3">
    <path d="M 240.486957 254.486957 
L 273.181895 254.486957 
" clip-path="url(#p094bac57dd)" style="fill: none; stroke: #444444; stroke-width: 1.8; stroke-linejoin: miter"/>
   </g>
   <g id="patch_4">
    <path d="M 283.095652 254.486957 
L 273.181895 249.821896 
L 273.181895 259.152017 
z
" clip-path="url(#p094bac57dd)" style="fill: #444444"/>
   </g>
   <g id="patch_5">
    <path d="M 301.356522 254.486957 
L 269.466663 445.826111 
" clip-path="url(#p094bac57dd)" style="fill: none; stroke: #444444; stroke-width: 1.8; stroke-linejoin: miter"/>
   </g>
   <g id="patch_6">
    <path d="M 267.836851 455.604981 
L 274.06825 446.593042 
L 264.865076 445.059179 
z
" clip-path="url(#p094bac57dd)" style="fill: #444444"/>
   </g>
   <g id="patch_7">
    <path d="M 264.834783 473.617391 
L 297.118014 279.918 
" clip-path="url(#p094bac57dd)" style="fill: none; stroke: #444444; stroke-width: 1.8; stroke-linejoin: miter"/>
   </g>
   <g id="patch_8">
    <path d="M 298.747826 270.13913 
L 292.516428 279.151069 
L 301.719601 280.684932 
z
" clip-path="url(#p094bac57dd)" style="fill: #444444"/>
   </g>
   <g id="patch_9">
    <path d="M 301.356522 254.486957 
L 258.465138 50.752884 
" clip-path="url(#p094bac57dd)" style="fill: none; stroke: #444444; stroke-width: 1.8; stroke-linejoin: miter"/>
   </g>
   <g id="patch_10">
    <path d="M 256.4228 41.051779 
L 253.900144 51.713935 
L 263.030132 49.791832 
z
" clip-path="url(#p094bac57dd)" style="fill: #444444"/>
   </g>
   <g id="patch_11">
    <path d="M 252.66087 23.182609 
L 296.13838 229.700785 
" clip-path="url(#p094bac57dd)" style="fill: none; stroke: #444444; stroke-width: 1.8; stroke-linejoin: miter"/>
   </g>
   <g id="patch_12">
    <path d="M 298.180718 239.40189 
L 300.703374 228.739734 
L 291.573387 230.661837 
z
" clip-path="url(#p094bac57dd)" style="fill: #444444"/>
   </g>
   <g id="patch_13">
    <path d="M 301.356522 254.486957 
C 322.455982 333.152607 300.090448 397.110058 228.588948 435.908228 
" clip-path="url(#p094bac57dd)" style="fill: none; stroke: #444444; stroke-width: 1.8; stroke-linejoin: miter"/>
   </g>
   <g id="patch_14">
    <path d="M 219.875344 440.636407 
L 230.813861 440.008539 
L 226.364036 431.807916 
z
" clip-path="url(#p094bac57dd)" style="fill: #444444"/>
   </g>
   <g id="patch_15">
    <path d="M 203.965217 449.269565 
L 235.578443 280.665695 
" clip-path="url(#p094bac57dd)" style="fill: none; stroke: #444444; stroke-width: 1.8; stroke-linejoin: miter"/>
   </g>
   <g id="patch_16">
    <path d="M 237.405435 270.921739 
L 230.993285 279.805978 
L 240.163601 281.525413 
z
" clip-path="url(#p094bac57dd)" style="fill: #444444"/>
   </g>
   <g id="patch_17">
    <path d="M 301.356522 254.486957 
L 343.599076 74.9561 
" clip-path="url(#p094bac57dd)" style="fill: none; stroke: #444444; stroke-width: 1.8; stroke-linejoin: miter"/>
   </g>
   <g id="patch_18">
    <path d="M 345.869717 65.305879 
L 339.058027 73.887618 
L 348.140126 76.024583 
z
" clip-path="url(#p094bac57dd)" style="fill: #444444"/>
   </g>
   <g id="patch_19">
    <path d="M 350.052174 47.530435 
L 307.105423 230.054126 
" clip-path="url(#p094bac57dd)" style="fill: none; stroke: #444444; stroke-width: 1.8; stroke-linejoin: miter"/>
   </g>
   <g id="patch_20">
    <path d="M 304.834783 239.704348 
L 311.646473 231.122609 
L 302.564373 228.985644 
z
" clip-path="url(#p094bac57dd)" style="fill: #444444"/>
   </g>
   <g id="patch_21">
    <path d="M 301.356522 254.486957 
C 275.475545 344.223855 215.679961 393.214173 122.443913 389.513195 
" clip-path="url(#p094bac57dd)" style="fill: none; stroke: #444444; stroke-width: 1.8; stroke-linejoin: miter"/>
   </g>
   <g id="patch_22">
    <path d="M 112.537957 389.119981 
L 122.25888 394.174584 
L 122.628945 384.851806 
z
" clip-path="url(#p094bac57dd)" style="fill: #444444"/>
   </g>
   <g id="patch_23">
    <path d="M 94.4 388.4 
L 216.744207 276.251144 
" clip-path="url(#p094bac57dd)" style="fill: none; stroke: #444444; stroke-width: 1.8; stroke-linejoin: miter"/>
   </g>
   <g id="patch_24">
    <path d="M 224.052174 269.552174 
L 213.591911 272.812276 
L 219.896503 279.690012 
z
" clip-path="url(#p094bac57dd)" style="fill: #444444"/>
   </g>
   <g id="patch_25">
    <path d="M 301.356522 254.486957 
L 397.8955 206.217467 
" clip-path="url(#p094bac57dd)" style="fill: none; stroke: #444444; stroke-width: 1.8; stroke-linejoin: miter"/>
   </g>
   <g id="patch_26">
    <path d="M 406.762634 201.7839 
L 395.809222 202.044911 
L 399.981778 210.390024 
z
" clip-path="url(#p094bac57dd)" style="fill: #444444"/>
   </g>
   <g id="patch_27">
    <path d="M 423.095652 193.617391 
L 322.397569 243.966433 
" clip-path="url(#p094bac57dd)" style="fill: none; stroke: #444444; stroke-width: 1.8; stroke-linejoin: miter"/>
   </g>
   <g id="patch_28">
    <path d="M 313.530435 248.4 
L 324.483847 248.13899 
L 320.311291 239.793876 
z
" clip-path="url(#p094bac57dd)" style="fill: #444444"/>
   </g>
   <g id="patch_29">
    <path d="M 301.356522 254.486957 
L 363.301471 399.025171 
" clip-path="url(#p094bac57dd)" style="fill: none; stroke: #444444; stroke-width: 1.8; stroke-linejoin: miter"/>
   </g>
   <g id="patch_30">
    <path d="M 367.206691 408.137352 
L 367.589338 397.187514 
L 359.013604 400.862828 
z
" clip-path="url(#p094bac57dd)" style="fill: #444444"/>
   </g>
   <g id="patch_31">
    <path d="M 374.4 424.921739 
L 310.740003 276.381746 
" clip-path="url(#p094bac57dd)" style="fill: none; stroke: #444444; stroke-width: 1.8; stroke-linejoin: miter"/>
   </g>
   <g id="patch_32">
    <path d="M 306.834783 267.269565 
L 306.452136 278.219403 
L 315.02787 274.544089 
z
" clip-path="url(#p094bac57dd)" style="fill: #444444"/>
   </g>
   <g id="patch_33">
    <path d="M 301.356522 254.486957 
C 213.62849 317.084119 124.842631 318.088256 42.778787 248.345144 
" clip-path="url(#p094bac57dd)" style="fill: none; stroke: #444444; stroke-width: 1.8; stroke-linejoin: miter"/>
   </g>
   <g id="patch_34">
    <path d="M 35.224599 241.925111 
L 39.757749 251.899875 
L 45.799825 244.790413 
z
" clip-path="url(#p094bac57dd)" style="fill: #444444"/>
   </g>
   <g id="patch_35">
    <path d="M 21.356522 230.13913 
L 214.199052 251.566078 
" clip-path="url(#p094bac57dd)" style="fill: none; stroke: #444444; stroke-width: 1.8; stroke-linejoin: miter"/>
   </g>
   <g id="patch_36">
    <path d="M 224.052174 252.66087 
L 214.714222 246.929551 
L 213.683882 256.202606 
z
" clip-path="url(#p094bac57dd)" style="fill: #444444"/>
   </g>
   <g id="patch_37">
    <path d="M 301.356522 254.486957 
L 408.087705 283.595461 
" clip-path="url(#p094bac57dd)" style="fill: none; stroke: #444444; stroke-width: 1.8; stroke-linejoin: miter"/>
   </g>
   <g id="patch_38">
    <path d="M 417.652139 286.203943 
L 409.315163 279.09478 
L 406.860246 288.096142 
z
" clip-path="url(#p094bac57dd)" style="fill: #444444"/>
   </g>
   <g id="patch_39">
    <path d="M 435.269565 291.008696 
L 325.268782 261.008482 
" clip-path="url(#p094bac57dd)" style="fill: none; stroke: #444444; stroke-width: 1.8; stroke-linejoin: miter"/>
   </g>
   <g id="patch_40">
    <path d="M 315.704348 258.4 
L 324.041324 265.509163 
L 326.496241 256.507801 
z
" clip-path="url(#p094bac57dd)" style="fill: #444444"/>
   </g>
   <g id="patch_41">
    <path d="M 301.356522 254.486957 
L 195.245862 95.320967 
" clip-path="url(#p094bac57dd)" style="fill: none; stroke: #444444; stroke-width: 1.8; stroke-linejoin: miter"/>
   </g>
   <g id="patch_42">
    <path d="M 189.746699 87.072223 
L 191.364298 97.908677 
L 199.127427 92.733258 
z
" clip-path="url(#p094bac57dd)" style="fill: #444444"/>
   </g>
   <g id="patch_43">
    <path d="M 179.617391 71.878261 
L 231.87369 228.647158 
" clip-path="url(#p094bac57dd)" style="fill: none; stroke: #444444; stroke-width: 1.8; stroke-linejoin: miter"/>
   </g>
   <g id="patch_44">
    <path d="M 235.008696 238.052174 
L 236.299355 227.171936 
L 227.448026 230.122379 
z
" clip-path="url(#p094bac57dd)" style="fill: #444444"/>
   </g>
   <g id="patch_45">
    <path d="M 224.052174 270.921739 
L 256.921739 270.921739 
L 256.921739 238.052174 
L 224.052174 238.052174 
z
" clip-path="url(#p094bac57dd)" style="fill: #29b6f6; stroke: #000000; stroke-width: 1.3; stroke-linejoin: miter"/>
   </g>
   <g id="patch_46">
    <path d="M 283.095652 254.486957 
L 301.356522 272.747826 
L 319.617391 254.486957 
L 301.356522 236.226087 
z
" clip-path="url(#p094bac57dd)" style="fill: #ef5350; stroke: #000000; stroke-width: 1.3; stroke-linejoin: miter"/>
   </g>
   <g id="patch_47">
    <path d="M 423.095652 211.878261 
C 427.938491 211.878261 432.583632 209.95418 436.008037 206.529776 
C 439.432441 203.105372 441.356522 198.460231 441.356522 193.617391 
C 441.356522 188.774552 439.432441 184.129411 436.008037 180.705007 
C 432.583632 177.280602 427.938491 175.356522 423.095652 175.356522 
C 418.252813 175.356522 413.607672 177.280602 410.183267 180.705007 
C 406.758863 184.129411 404.834783 188.774552 404.834783 193.617391 
C 404.834783 198.460231 406.758863 203.105372 410.183267 206.529776 
C 413.607672 209.95418 418.252813 211.878261 423.095652 211.878261 
z
" clip-path="url(#p094bac57dd)" style="fill: #ffee58; stroke: #000000; stroke-width: 1.3; stroke-linejoin: miter"/>
   </g>
   <g id="patch_48">
    <path d="M 264.834783 491.878261 
C 269.677622 491.878261 274.322763 489.95418 277.747167 486.529776 
C 281.171572 483.105372 283.095652 478.460231 283.095652 473.617391 
C 283.095652 468.774552 281.171572 464.129411 277.747167 460.705007 
C 274.322763 457.280602 269.677622 455.356522 264.834783 455.356522 
C 259.991943 455.356522 255.346802 457.280602 251.922398 460.705007 
C 248.497993 464.129411 246.573913 468.774552 246.573913 473.617391 
C 246.573913 478.460231 248.497993 483.105372 251.922398 486.529776 
C 255.346802 489.95418 259.991943 491.878261 264.834783 491.878261 
z
" clip-path="url(#p094bac57dd)" style="fill: #ffee58; stroke: #000000; stroke-width: 1.3; stroke-linejoin: miter"/>
   </g>
   <g id="patch_49">
    <path d="M 252.66087 41.443478 
C 257.503709 41.443478 262.14885 39.519398 265.573254 36.094993 
C 268.997659 32.670589 270.921739 28.025448 270.921739 23.182609 
C 270.921739 18.339769 268.997659 13.694628 265.573254 10.270224 
C 262.14885 6.84582 257.503709 4.921739 252.66087 4.921739 
C 247.81803 4.921739 243.172889 6.84582 239.748485 10.270224 
C 236.32408 13.694628 234.4 18.339769 234.4 23.182609 
C 234.4 28.025448 236.32408 32.670589 239.748485 36.094993 
C 243.172889 39.519398 247.81803 41.443478 252.66087 41.443478 
z
" clip-path="url(#p094bac57dd)" style="fill: #ffee58; stroke: #000000; stroke-width: 1.3; stroke-linejoin: miter"/>
   </g>
   <g id="patch_50">
    <path d="M 21.356522 248.4 
C 26.199361 248.4 30.844502 246.47592 34.268906 243.051515 
C 37.693311 239.627111 39.617391 234.98197 39.617391 230.13913 
C 39.617391 225.296291 37.693311 220.65115 34.268906 217.226746 
C 30.844502 213.802341 26.199361 211.878261 21.356522 211.878261 
C 16.513683 211.878261 11.868541 213.802341 8.444137 217.226746 
C 5.019733 220.65115 3.095652 225.296291 3.095652 230.13913 
C 3.095652 234.98197 5.019733 239.627111 8.444137 243.051515 
C 11.868541 246.47592 16.513683 248.4 21.356522 248.4 
z
" clip-path="url(#p094bac57dd)" style="fill: #ffee58; stroke: #000000; stroke-width: 1.3; stroke-linejoin: miter"/>
   </g>
   <g id="patch_51">
    <path d="M 374.4 443.182609 
C 379.242839 443.182609 383.88798 441.258528 387.312385 437.834124 
C 390.736789 434.409719 392.66087 429.764578 392.66087 424.921739 
C 392.66087 420.0789 390.736789 415.433759 387.312385 412.009354 
C 383.88798 408.58495 379.242839 406.66087 374.4 406.66087 
C 369.557161 406.66087 364.91202 408.58495 361.487615 412.009354 
C 358.063211 415.433759 356.13913 420.0789 356.13913 424.921739 
C 356.13913 429.764578 358.063211 434.409719 361.487615 437.834124 
C 364.91202 441.258528 369.557161 443.182609 374.4 443.182609 
z
" clip-path="url(#p094bac57dd)" style="fill: #ffee58; stroke: #000000; stroke-width: 1.3; stroke-linejoin: miter"/>
   </g>
   <g id="patch_52">
    <path d="M 350.052174 65.791304 
C 354.895013 65.791304 359.540154 63.867224 362.964559 60.442819 
C 366.388963 57.018415 368.313043 52.373274 368.313043 47.530435 
C 368.313043 42.687596 366.388963 38.042455 362.964559 34.61805 
C 359.540154 31.193646 354.895013 29.269565 350.052174 29.269565 
C 345.209335 29.269565 340.564194 31.193646 337.139789 34.61805 
C 333.715385 38.042455 331.791304 42.687596 331.791304 47.530435 
C 331.791304 52.373274 333.715385 57.018415 337.139789 60.442819 
C 340.564194 63.867224 345.209335 65.791304 350.052174 65.791304 
z
" clip-path="url(#p094bac57dd)" style="fill: #ffee58; stroke: #000000; stroke-width: 1.3; stroke-linejoin: miter"/>
   </g>
   <g id="patch_53">
    <path d="M 179.617391 90.13913 
C 184.460231 90.13913 189.105372 88.21505 192.529776 84.790646 
C 195.95418 81.366241 197.878261 76.7211 197.878261 71.878261 
C 197.878261 67.035422 195.95418 62.390281 192.529776 58.965876 
C 189.105372 55.541472 184.460231 53.617391 179.617391 53.617391 
C 174.774552 53.617391 170.129411 55.541472 166.705007 58.965876 
C 163.280602 62.390281 161.356522 67.035422 161.356522 71.878261 
C 161.356522 76.7211 163.280602 81.366241 166.705007 84.790646 
C 170.129411 88.21505 174.774552 90.13913 179.617391 90.13913 
z
" clip-path="url(#p094bac57dd)" style="fill: #ffee58; stroke: #000000; stroke-width: 1.3; stroke-linejoin: miter"/>
   </g>
   <g id="patch_54">
    <path d="M 94.4 406.66087 
C 99.242839 406.66087 103.88798 404.736789 107.312385 401.312385 
C 110.736789 397.88798 112.66087 393.242839 112.66087 388.4 
C 112.66087 383.557161 110.736789 378.91202 107.312385 375.487615 
C 103.88798 372.063211 99.242839 370.13913 94.4 370.13913 
C 89.557161 370.13913 84.91202 372.063211 81.487615 375.487615 
C 78.063211 378.91202 76.13913 383.557161 76.13913 388.4 
C 76.13913 393.242839 78.063211 397.88798 81.487615 401.312385 
C 84.91202 404.736789 89.557161 406.66087 94.4 406.66087 
z
" clip-path="url(#p094bac57dd)" style="fill: #ffee58; stroke: #000000; stroke-width: 1.3; stroke-linejoin: miter"/>
   </g>
   <g id="patch_55">
    <path d="M 435.269565 309.269565 
C 440.112404 309.269565 444.757545 307.345485 448.18195 303.92108 
C 451.606354 300.496676 453.530435 295.851535 453.530435 291.008696 
C 453.530435 286.165856 451.606354 281.520715 448.18195 278.096311 
C 444.757545 274.671907 440.112404 272.747826 435.269565 272.747826 
C 430.426726 272.747826 425.781585 274.671907 422.357181 278.096311 
C 418.932776 281.520715 417.008696 286.165856 417.008696 291.008696 
C 417.008696 295.851535 418.932776 300.496676 422.357181 303.92108 
C 425.781585 307.345485 430.426726 309.269565 435.269565 309.269565 
z
" clip-path="url(#p094bac57dd)" style="fill: #ffee58; stroke: #000000; stroke-width: 1.3; stroke-linejoin: miter"/>
   </g>
   <g id="patch_56">
    <path d="M 203.965217 467.530435 
C 208.808057 467.530435 213.453198 465.606354 216.877602 462.18195 
C 220.302007 458.757545 222.226087 454.112404 222.226087 449.269565 
C 222.226087 444.426726 220.302007 439.781585 216.877602 436.357181 
C 213.453198 432.932776 208.808057 431.008696 203.965217 431.008696 
C 199.122378 431.008696 194.477237 432.932776 191.052833 436.357181 
C 187.628428 439.781585 185.704348 444.426726 185.704348 449.269565 
C 185.704348 454.112404 187.628428 458.757545 191.052833 462.18195 
C 194.477237 465.606354 199.122378 467.530435 203.965217 467.530435 
z
" clip-path="url(#p094bac57dd)" style="fill: #ffee58; stroke: #000000; stroke-width: 1.3; stroke-linejoin: miter"/>
   </g>
   <g id="text_1">
    <g clip-path="url(#p094bac57dd)">
     <!-- 6 -->
     <g transform="translate(417.047371 199.005673)scale(0.22 -0.22)">
      <defs>
       <path id="UNAVAILABLE-36" d="M 3200 1294 
Q 3200 1013 3098 766 
Q 2997 519 2809 336 
Q 2622 153 2358 48 
Q 2094 -56 1772 -56 
Q 1434 -56 1175 51 
Q 916 159 741 382 
Q 566 606 475 947 
Q 384 1288 384 1753 
Q 384 2066 425 2359 
Q 466 2653 559 2912 
Q 653 3172 809 3387 
Q 966 3603 1198 3758 
Q 1431 3913 1747 3998 
Q 2063 4084 2478 4084 
L 2881 4084 
L 2881 3609 
L 2444 3609 
Q 2078 3609 1809 3521 
Q 1541 3434 1359 3275 
Q 1178 3116 1081 2891 
Q 984 2666 959 2388 
L 947 2259 
Q 1144 2375 1401 2445 
Q 1659 2516 1959 2516 
Q 2269 2516 2501 2425 
Q 2734 2334 2889 2173 
Q 3044 2013 3122 1788 
Q 3200 1563 3200 1294 
z
M 2631 1259 
Q 2631 1447 2586 1598 
Q 2541 1750 2444 1854 
Q 2347 1959 2198 2017 
Q 2050 2075 1844 2075 
Q 1725 2075 1603 2053 
Q 1481 2031 1364 1992 
Q 1247 1953 1140 1903 
Q 1034 1853 947 1797 
Q 947 1394 1003 1123 
Q 1059 853 1170 690 
Q 1281 528 1443 459 
Q 1606 391 1819 391 
Q 1997 391 2145 448 
Q 2294 506 2401 618 
Q 2509 731 2570 892 
Q 2631 1053 2631 1259 
z
" transform="scale(0.015625)"/>
      </defs>
      <use xlink:href="#UNAVAILABLE-36"/>
     </g>
    </g>
   </g>
   <g id="text_2">
    <g clip-path="url(#p094bac57dd)">
     <!-- 1 -->
     <g transform="translate(258.786501 479.005673)scale(0.22 -0.22)">
      <defs>
       <path id="UNAVAILABLE-31" d="M 3116 0 
L 550 0 
L 550 506 
L 1600 506 
L 1600 3488 
L 622 2956 
L 422 3419 
L 1722 4103 
L 2203 4103 
L 2203 506 
L 3116 506 
L 3116 0 
z
" transform="scale(0.015625)"/>
      </defs>
      <use xlink:href="#UNAVAILABLE-31"/>
     </g>
    </g>
   </g>
   <g id="text_3">
    <g clip-path="url(#p094bac57dd)">
     <!-- 2 -->
     <g transform="translate(246.612588 28.57089)scale(0.22 -0.22)">
      <defs>
       <path id="UNAVAILABLE-32" d="M 3150 0 
L 459 0 
L 459 488 
L 1516 1538 
Q 1775 1794 1937 1981 
Q 2100 2169 2190 2323 
Q 2281 2478 2312 2615 
Q 2344 2753 2344 2913 
Q 2344 3063 2303 3198 
Q 2263 3334 2178 3437 
Q 2094 3541 1959 3600 
Q 1825 3659 1638 3659 
Q 1378 3659 1165 3543 
Q 953 3428 775 3244 
L 475 3603 
Q 706 3847 1007 3994 
Q 1309 4141 1709 4141 
Q 1981 4141 2204 4059 
Q 2428 3978 2590 3825 
Q 2753 3672 2842 3450 
Q 2931 3228 2931 2950 
Q 2931 2716 2868 2516 
Q 2806 2316 2679 2117 
Q 2553 1919 2361 1706 
Q 2169 1494 1906 1241 
L 1166 519 
L 3150 519 
L 3150 0 
z
" transform="scale(0.015625)"/>
      </defs>
      <use xlink:href="#UNAVAILABLE-32"/>
     </g>
    </g>
   </g>
   <g id="text_4">
    <g clip-path="url(#p094bac57dd)">
     <!-- 8 -->
     <g transform="translate(15.30824 235.527412)scale(0.22 -0.22)">
      <defs>
       <path id="UNAVAILABLE-38" d="M 3150 1025 
Q 3150 766 3044 564 
Q 2938 363 2747 225 
Q 2556 88 2297 16 
Q 2038 -56 1734 -56 
Q 1400 -56 1145 19 
Q 891 94 719 228 
Q 547 363 459 547 
Q 372 731 372 953 
Q 372 1328 581 1600 
Q 791 1872 1228 2094 
Q 828 2297 643 2545 
Q 459 2794 459 3116 
Q 459 3313 540 3497 
Q 622 3681 786 3825 
Q 950 3969 1197 4055 
Q 1444 4141 1778 4141 
Q 2094 4141 2333 4073 
Q 2572 4006 2734 3881 
Q 2897 3756 2978 3578 
Q 3059 3400 3059 3181 
Q 3059 2825 2861 2575 
Q 2663 2325 2297 2138 
Q 2478 2047 2634 1937 
Q 2791 1828 2906 1693 
Q 3022 1559 3086 1393 
Q 3150 1228 3150 1025 
z
M 2503 3138 
Q 2503 3416 2308 3552 
Q 2113 3688 1759 3688 
Q 1409 3688 1214 3553 
Q 1019 3419 1019 3150 
Q 1019 3028 1066 2925 
Q 1113 2822 1211 2731 
Q 1309 2641 1456 2553 
Q 1603 2466 1806 2375 
Q 2159 2541 2331 2720 
Q 2503 2900 2503 3138 
z
M 2559 984 
Q 2559 1100 2521 1209 
Q 2484 1319 2387 1425 
Q 2291 1531 2128 1637 
Q 1966 1744 1716 1856 
Q 1503 1753 1358 1651 
Q 1213 1550 1123 1445 
Q 1034 1341 996 1228 
Q 959 1116 959 991 
Q 959 850 1020 742 
Q 1081 634 1187 559 
Q 1294 484 1441 446 
Q 1588 409 1759 409 
Q 1925 409 2072 443 
Q 2219 478 2326 548 
Q 2434 619 2496 726 
Q 2559 834 2559 984 
z
" transform="scale(0.015625)"/>
      </defs>
      <use xlink:href="#UNAVAILABLE-38"/>
     </g>
    </g>
   </g>
   <g id="text_5">
    <g clip-path="url(#p094bac57dd)">
     <!-- 7 -->
     <g transform="translate(368.351719 430.31002)scale(0.22 -0.22)">
      <defs>
       <path id="UNAVAILABLE-37" d="M 3128 3578 
L 1416 0 
L 794 0 
L 2572 3578 
L 366 3578 
L 366 4084 
L 3128 4084 
L 3128 3578 
z
" transform="scale(0.015625)"/>
      </defs>
      <use xlink:href="#UNAVAILABLE-37"/>
     </g>
    </g>
   </g>
   <g id="text_6">
    <g clip-path="url(#p094bac57dd)">
     <!-- 4 -->
     <g transform="translate(344.003893 52.918716)scale(0.22 -0.22)">
      <defs>
       <path id="UNAVAILABLE-34" d="M 3353 903 
L 2656 903 
L 2656 0 
L 2100 0 
L 2100 903 
L 134 903 
L 134 1381 
L 1875 4084 
L 2656 4084 
L 2656 1381 
L 3353 1381 
L 3353 903 
z
M 2100 3559 
L 678 1381 
L 2100 1381 
L 2100 3559 
z
" transform="scale(0.015625)"/>
      </defs>
      <use xlink:href="#UNAVAILABLE-34"/>
     </g>
    </g>
   </g>
   <g id="text_7">
    <g clip-path="url(#p094bac57dd)">
     <!-- 10 -->
     <g transform="translate(167.520829 77.266542)scale(0.22 -0.22)">
      <defs>
       <path id="UNAVAILABLE-30" d="M 3244 2041 
Q 3244 1572 3150 1186 
Q 3056 800 2865 523 
Q 2675 247 2392 95 
Q 2109 -56 1728 -56 
Q 1400 -56 1131 67 
Q 863 191 672 447 
Q 481 703 378 1100 
Q 275 1497 275 2041 
Q 275 2509 370 2896 
Q 466 3284 655 3561 
Q 844 3838 1128 3989 
Q 1413 4141 1791 4141 
Q 2119 4141 2387 4017 
Q 2656 3894 2847 3636 
Q 3038 3378 3141 2981 
Q 3244 2584 3244 2041 
z
M 2694 2022 
Q 2694 2128 2686 2233 
Q 2678 2338 2669 2438 
L 941 1153 
Q 988 991 1059 853 
Q 1131 716 1232 617 
Q 1334 519 1464 464 
Q 1594 409 1759 409 
Q 1972 409 2145 512 
Q 2319 616 2441 819 
Q 2563 1022 2628 1323 
Q 2694 1625 2694 2022 
z
M 825 2059 
Q 825 1963 826 1866 
Q 828 1769 838 1678 
L 2566 2956 
Q 2519 3116 2447 3247 
Q 2375 3378 2275 3473 
Q 2175 3569 2047 3622 
Q 1919 3675 1759 3675 
Q 1547 3675 1373 3572 
Q 1200 3469 1078 3264 
Q 956 3059 890 2757 
Q 825 2456 825 2059 
z
" transform="scale(0.015625)"/>
      </defs>
      <use xlink:href="#UNAVAILABLE-31"/>
      <use xlink:href="#UNAVAILABLE-30" x="54.980469"/>
     </g>
    </g>
   </g>
   <g id="text_8">
    <g clip-path="url(#p094bac57dd)">
     <!-- 5 -->
     <g transform="translate(88.351719 393.788281)scale(0.22 -0.22)">
      <defs>
       <path id="UNAVAILABLE-35" d="M 3047 1306 
Q 3047 1003 2915 753 
Q 2784 503 2554 323 
Q 2325 144 2012 44 
Q 1700 -56 1338 -56 
Q 1247 -56 1142 -51 
Q 1038 -47 934 -39 
Q 831 -31 732 -22 
Q 634 -13 556 0 
L 556 494 
Q 725 453 942 434 
Q 1159 416 1381 416 
Q 1631 416 1831 475 
Q 2031 534 2172 645 
Q 2313 756 2388 914 
Q 2463 1072 2463 1269 
Q 2463 1650 2189 1823 
Q 1916 1997 1403 1997 
L 628 1997 
L 628 4084 
L 2828 4084 
L 2828 3609 
L 1141 3609 
L 1141 2463 
L 1497 2463 
Q 1791 2463 2069 2409 
Q 2347 2356 2564 2223 
Q 2781 2091 2914 1867 
Q 3047 1644 3047 1306 
z
" transform="scale(0.015625)"/>
      </defs>
      <use xlink:href="#UNAVAILABLE-35"/>
     </g>
    </g>
   </g>
   <g id="text_9">
    <g clip-path="url(#p094bac57dd)">
     <!-- 9 -->
     <g transform="translate(429.221284 296.396977)scale(0.22 -0.22)">
      <defs>
       <path id="UNAVAILABLE-39" d="M 3128 2272 
Q 3128 1675 2984 1245 
Q 2841 816 2559 539 
Q 2278 263 1862 131 
Q 1447 0 903 0 
L 563 0 
L 563 475 
L 941 475 
Q 1344 475 1637 556 
Q 1931 638 2126 795 
Q 2322 953 2425 1179 
Q 2528 1406 2553 1697 
L 2566 1825 
Q 2369 1709 2112 1639 
Q 1856 1569 1556 1569 
Q 1247 1569 1012 1659 
Q 778 1750 623 1912 
Q 469 2075 391 2298 
Q 313 2522 313 2784 
Q 313 3069 416 3316 
Q 519 3563 705 3745 
Q 891 3928 1150 4034 
Q 1409 4141 1722 4141 
Q 2025 4141 2283 4041 
Q 2541 3941 2728 3717 
Q 2916 3494 3022 3137 
Q 3128 2781 3128 2272 
z
M 1697 3694 
Q 1522 3694 1373 3636 
Q 1225 3578 1117 3467 
Q 1009 3356 946 3193 
Q 884 3031 884 2822 
Q 884 2631 929 2481 
Q 975 2331 1070 2226 
Q 1166 2122 1316 2065 
Q 1466 2009 1672 2009 
Q 1788 2009 1911 2031 
Q 2034 2053 2151 2090 
Q 2269 2128 2375 2178 
Q 2481 2228 2566 2284 
Q 2566 2688 2506 2958 
Q 2447 3228 2334 3392 
Q 2222 3556 2061 3625 
Q 1900 3694 1697 3694 
z
" transform="scale(0.015625)"/>
      </defs>
      <use xlink:href="#UNAVAILABLE-39"/>
     </g>
    </g>
   </g>
   <g id="text_10">
    <g clip-path="url(#p094bac57dd)">
     <!-- 3 -->
     <g transform="translate(197.916936 454.657846)scale(0.22 -0.22)">
      <defs>
       <path id="UNAVAILABLE-33" d="M 3072 1241 
Q 3072 972 2962 736 
Q 2853 500 2634 323 
Q 2416 147 2084 45 
Q 1753 -56 1313 -56 
Q 1069 -56 875 -40 
Q 681 -25 513 0 
L 513 488 
Q 706 453 922 434 
Q 1138 416 1363 416 
Q 1669 416 1886 470 
Q 2103 525 2240 628 
Q 2378 731 2440 878 
Q 2503 1025 2503 1209 
Q 2503 1378 2428 1503 
Q 2353 1628 2217 1712 
Q 2081 1797 1892 1839 
Q 1703 1881 1478 1881 
L 1013 1881 
L 1013 2328 
L 1484 2328 
Q 1669 2328 1820 2376 
Q 1972 2425 2080 2515 
Q 2188 2606 2245 2739 
Q 2303 2872 2303 3041 
Q 2303 3369 2103 3519 
Q 1903 3669 1516 3669 
Q 1309 3669 1090 3628 
Q 872 3588 622 3506 
L 622 3981 
Q 728 4019 848 4048 
Q 969 4078 1089 4098 
Q 1209 4119 1328 4130 
Q 1447 4141 1556 4141 
Q 1881 4141 2128 4070 
Q 2375 4000 2540 3869 
Q 2706 3738 2790 3550 
Q 2875 3363 2875 3128 
Q 2875 2778 2695 2540 
Q 2516 2303 2203 2163 
Q 2363 2138 2517 2063 
Q 2672 1988 2795 1870 
Q 2919 1753 2995 1593 
Q 3072 1434 3072 1241 
z
" transform="scale(0.015625)"/>
      </defs>
      <use xlink:href="#UNAVAILABLE-33"/>
     </g>
    </g>
   </g>
   <g id="matplotlib.axis_1"/>
   <g id="matplotlib.axis_2"/>
  </g>
 </g>
 <defs>
  <clipPath id="p094bac57dd">
   <rect x="-28.8" y="-28.8" width="514.226087" height="554.4"/>
  </clipPath>
 </defs>
</svg>
