<?xml version="1.0" encoding="utf-8" standalone="no"?>
<!DOCTYPE svg PUBLIC "-//W3C//DTD SVG 1.1//EN"
  "http://www.w3.org/Graphics/SVG/1.1/DTD/svg11.dtd">
<svg xmlns:xlink="http://www.w3.org/1999/xlink" width="470.649057pt" height="496.8pt" viewBox="0 0 470.649057 496.8" xmlns="http://www.w3.org/2000/svg" version="1.1">
 <metadata>
  <rdf:RDF xmlns:dc="http://purl.org/dc/elements/1.1/" xmlns:cc="http://creativecommons.org/ns#" xmlns:rdf="http://www.w3.org/1999/02/22-rdf-syntax-ns#">
   <cc:Work>
    <dc:type rdf:resource="http://purl.org/dc/dcmitype/StillImage"/>
    <dc:date>2023-08-31T19:19:33.951009</dc:date>
    <dc:format>image/svg+xml</dc:format>
    <dc:creator>
     <cc:Agent>
      <dc:title>Matplotlib v3.5.2, https://matplotlib.org/</dc:title>
     </cc:Agent>
    </dc:creator>
   </cc:Work>
  </rdf:RDF>
 </metadata>
 <defs>
  <style type="text/css">*{stroke-linejoin: round; stroke-linecap: butt}</style>
 </defs>
 <g id="figure_1">
  <g id="patch_1">
   <path d="M 0 496.8 
L 470.649057 496.8 
L 470.649057 -0 
L 0 -0 
z
" style="fill: #ffffff"/>
  </g>
  <g id="axes_1">
   <g id="patch_2">
    <path d="M -28.8 525.6 
L 499.449057 525.6 
L 499.449057 -28.8 
L -28.8 -28.8 
z
" style="fill: #ffffff"/>
   </g>
   <g id="patch_3">
    <path d="M 259.098113 260.286792 
L 291.021945 260.286792 
" clip-path="url(#pc1a2400620)" style="fill: none; stroke: #444444; stroke-width: 1.8; stroke-linejoin: miter"/>
   </g>
   <g id="patch_4">
    <path d="M 300.701887 260.286792 
L 291.021945 255.731757 
L 291.021945 264.841828 
z
" clip-path="url(#pc1a2400620)" style="fill: #444444"/>
   </g>
   <g id="patch_5">
    <path d="M 259.098113 260.286792 
L 259.098113 228.362961 
" clip-path="url(#pc1a2400620)" style="fill: none; stroke: #444444; stroke-width: 1.8; stroke-linejoin: miter"/>
   </g>
   <g id="patch_6">
    <path d="M 259.098113 218.683019 
L 254.543078 228.362961 
L 263.653148 228.362961 
z
" clip-path="url(#pc1a2400620)" style="fill: #444444"/>
   </g>
   <g id="patch_7">
    <path d="M 318.532075 260.286792 
L 379.016059 401.416087 
" clip-path="url(#pc1a2400620)" style="fill: none; stroke: #f06292; stroke-width: 1.8; stroke-linejoin: miter"/>
   </g>
   <g id="patch_8">
    <path d="M 382.829175 410.313357 
L 383.202797 399.62177 
L 374.829321 403.210403 
z
" clip-path="url(#pc1a2400620)" style="fill: #f06292"/>
   </g>
   <g id="patch_9">
    <path d="M 389.85283 426.701887 
L 327.694248 281.665195 
" clip-path="url(#pc1a2400620)" style="fill: none; stroke: #f06292; stroke-width: 1.8; stroke-linejoin: miter"/>
   </g>
   <g id="patch_10">
    <path d="M 323.881132 272.767925 
L 323.50751 283.459512 
L 331.880986 279.870879 
z
" clip-path="url(#pc1a2400620)" style="fill: #f06292"/>
   </g>
   <g id="patch_11">
    <path d="M 318.532075 260.286792 
L 369.26657 412.490278 
" clip-path="url(#pc1a2400620)" style="fill: none; stroke: #f06292; stroke-width: 1.8; stroke-linejoin: miter"/>
   </g>
   <g id="patch_12">
    <path d="M 372.327637 421.673477 
L 373.587856 411.049849 
L 364.945285 413.930706 
z
" clip-path="url(#pc1a2400620)" style="fill: #f06292"/>
   </g>
   <g id="patch_13">
    <path d="M 377.966038 438.588679 
C 328.31503 396.657181 290.894813 345.710614 268.22643 284.810585 
" clip-path="url(#pc1a2400620)" style="fill: none; stroke: #f06292; stroke-width: 1.8; stroke-linejoin: miter"/>
   </g>
   <g id="patch_14">
    <path d="M 264.849673 275.738717 
L 263.957533 286.399567 
L 272.495327 283.221604 
z
" clip-path="url(#pc1a2400620)" style="fill: #f06292"/>
   </g>
   <g id="patch_15">
    <path d="M 318.532075 260.286792 
L 424.242491 308.336982 
" clip-path="url(#pc1a2400620)" style="fill: none; stroke: #ba68c8; stroke-width: 1.8; stroke-linejoin: miter"/>
   </g>
   <g id="patch_16">
    <path d="M 433.054786 312.34257 
L 426.127378 304.19023 
L 422.357605 312.483733 
z
" clip-path="url(#pc1a2400620)" style="fill: #ba68c8"/>
   </g>
   <g id="patch_17">
    <path d="M 449.286792 319.720755 
L 339.602625 269.864315 
" clip-path="url(#pc1a2400620)" style="fill: none; stroke: #ba68c8; stroke-width: 1.8; stroke-linejoin: miter"/>
   </g>
   <g id="patch_18">
    <path d="M 330.79033 265.858726 
L 337.717738 274.011066 
L 341.487512 265.717564 
z
" clip-path="url(#pc1a2400620)" style="fill: #ba68c8"/>
   </g>
   <g id="patch_19">
    <path d="M 318.532075 260.286792 
L 318.532075 446.738926 
" clip-path="url(#pc1a2400620)" style="fill: none; stroke: #ba68c8; stroke-width: 1.8; stroke-linejoin: miter"/>
   </g>
   <g id="patch_20">
    <path d="M 318.532075 456.418868 
L 323.087111 446.738926 
L 313.97704 446.738926 
z
" clip-path="url(#pc1a2400620)" style="fill: #ba68c8"/>
   </g>
   <g id="patch_21">
    <path d="M 318.532075 474.249057 
C 283.093786 416.611084 262.723081 354.041826 260.109203 286.437305 
" clip-path="url(#pc1a2400620)" style="fill: none; stroke: #ba68c8; stroke-width: 1.8; stroke-linejoin: miter"/>
   </g>
   <g id="patch_22">
    <path d="M 259.735215 276.76459 
L 255.557569 286.613291 
L 264.660837 286.26132 
z
" clip-path="url(#pc1a2400620)" style="fill: #ba68c8"/>
   </g>
   <g id="patch_23">
    <path d="M 318.532075 260.286792 
C 287.983352 301.457628 247.096509 316.588415 200.592523 295.344635 
" clip-path="url(#pc1a2400620)" style="fill: none; stroke: #81c784; stroke-width: 1.8; stroke-linejoin: miter"/>
   </g>
   <g id="patch_24">
    <path d="M 191.787776 291.322482 
L 198.699842 299.487834 
L 202.485204 291.201435 
z
" clip-path="url(#pc1a2400620)" style="fill: #81c784"/>
   </g>
   <g id="patch_25">
    <path d="M 175.890566 284.060377 
L 233.743447 267.530983 
" clip-path="url(#pc1a2400620)" style="fill: none; stroke: #81c784; stroke-width: 1.8; stroke-linejoin: miter"/>
   </g>
   <g id="patch_26">
    <path d="M 243.050943 264.871698 
L 232.492083 263.151207 
L 234.994811 271.910758 
z
" clip-path="url(#pc1a2400620)" style="fill: #81c784"/>
   </g>
   <g id="patch_27">
    <path d="M 259.098113 200.85283 
L 72.271675 231.99057 
" clip-path="url(#pc1a2400620)" style="fill: none; stroke: #81c784; stroke-width: 1.8; stroke-linejoin: miter"/>
   </g>
   <g id="patch_28">
    <path d="M 62.723439 233.581943 
L 73.020518 236.483629 
L 71.522832 227.497511 
z
" clip-path="url(#pc1a2400620)" style="fill: #81c784"/>
   </g>
   <g id="patch_29">
    <path d="M 45.135849 236.513208 
C 109.514268 225.417405 172.919832 229.568572 234.449289 251.500727 
" clip-path="url(#pc1a2400620)" style="fill: none; stroke: #81c784; stroke-width: 1.8; stroke-linejoin: miter"/>
   </g>
   <g id="patch_30">
    <path d="M 243.567297 254.750838 
L 235.978675 247.210119 
L 232.919903 255.791336 
z
" clip-path="url(#pc1a2400620)" style="fill: #81c784"/>
   </g>
   <g id="patch_31">
    <path d="M 318.532075 260.286792 
L 348.006538 132.56412 
" clip-path="url(#pc1a2400620)" style="fill: none; stroke: #fff176; stroke-width: 1.8; stroke-linejoin: miter"/>
   </g>
   <g id="patch_32">
    <path d="M 350.183165 123.132069 
L 343.568152 131.539877 
L 352.444924 133.588363 
z
" clip-path="url(#pc1a2400620)" style="fill: #fff176"/>
   </g>
   <g id="patch_33">
    <path d="M 354.192453 105.758491 
L 274.85796 185.092983 
" clip-path="url(#pc1a2400620)" style="fill: none; stroke: #fff176; stroke-width: 1.8; stroke-linejoin: miter"/>
   </g>
   <g id="patch_34">
    <path d="M 268.013208 191.937736 
L 278.078857 188.313879 
L 271.637064 181.872087 
z
" clip-path="url(#pc1a2400620)" style="fill: #fff176"/>
   </g>
   <g id="patch_35">
    <path d="M 259.098113 200.85283 
L 132.962682 369.033405 
" clip-path="url(#pc1a2400620)" style="fill: none; stroke: #fff176; stroke-width: 1.8; stroke-linejoin: miter"/>
   </g>
   <g id="patch_36">
    <path d="M 127.154717 376.777358 
L 136.60671 371.766426 
L 129.318654 366.300384 
z
" clip-path="url(#pc1a2400620)" style="fill: #fff176"/>
   </g>
   <g id="patch_37">
    <path d="M 116.456604 391.041509 
C 146.378578 341.544117 185.886015 301.452524 236.295507 273.108252 
" clip-path="url(#pc1a2400620)" style="fill: none; stroke: #fff176; stroke-width: 1.8; stroke-linejoin: miter"/>
   </g>
   <g id="patch_38">
    <path d="M 244.733099 268.363959 
L 234.063012 269.137822 
L 238.528002 277.078682 
z
" clip-path="url(#pc1a2400620)" style="fill: #fff176"/>
   </g>
   <g id="patch_39">
    <path d="M 259.098113 200.85283 
L 138.464709 110.377777 
" clip-path="url(#pc1a2400620)" style="fill: none; stroke: #90a4ae; stroke-width: 1.8; stroke-linejoin: miter"/>
   </g>
   <g id="patch_40">
    <path d="M 130.720755 104.569811 
L 135.731687 114.021805 
L 141.19773 106.733749 
z
" clip-path="url(#pc1a2400620)" style="fill: #90a4ae"/>
   </g>
   <g id="patch_41">
    <path d="M 116.456604 93.871698 
L 241.16548 187.403355 
" clip-path="url(#pc1a2400620)" style="fill: none; stroke: #90a4ae; stroke-width: 1.8; stroke-linejoin: miter"/>
   </g>
   <g id="patch_42">
    <path d="M 248.909434 193.211321 
L 243.898501 183.759327 
L 238.432459 191.047383 
z
" clip-path="url(#pc1a2400620)" style="fill: #90a4ae"/>
   </g>
   <g id="patch_43">
    <path d="M 259.098113 200.85283 
L 269.02489 61.877955 
" clip-path="url(#pc1a2400620)" style="fill: none; stroke: #90a4ae; stroke-width: 1.8; stroke-linejoin: miter"/>
   </g>
   <g id="patch_44">
    <path d="M 269.714557 52.222613 
L 264.481431 61.553422 
L 273.568349 62.202488 
z
" clip-path="url(#pc1a2400620)" style="fill: #90a4ae"/>
   </g>
   <g id="patch_45">
    <path d="M 270.984906 34.437736 
C 286.539547 101.733885 285.892759 168.897989 266.461416 235.172693 
" clip-path="url(#pc1a2400620)" style="fill: none; stroke: #90a4ae; stroke-width: 1.8; stroke-linejoin: miter"/>
   </g>
   <g id="patch_46">
    <path d="M 263.73796 244.461614 
L 270.832451 236.454254 
L 262.090381 233.891132 
z
" clip-path="url(#pc1a2400620)" style="fill: #90a4ae"/>
   </g>
   <g id="patch_47">
    <path d="M 243.050943 276.333962 
L 275.145283 276.333962 
L 275.145283 244.239623 
L 243.050943 244.239623 
z
" clip-path="url(#pc1a2400620)" style="fill: #29b6f6; stroke: #000000; stroke-width: 1.3; stroke-linejoin: miter"/>
   </g>
   <g id="patch_48">
    <path d="M 300.701887 260.286792 
L 318.532075 278.116981 
L 336.362264 260.286792 
L 318.532075 242.456604 
z
" clip-path="url(#pc1a2400620)" style="fill: #ef5350; stroke: #000000; stroke-width: 1.3; stroke-linejoin: miter"/>
   </g>
   <g id="patch_49">
    <path d="M 241.267925 200.85283 
L 259.098113 218.683019 
L 276.928302 200.85283 
L 259.098113 183.022642 
z
" clip-path="url(#pc1a2400620)" style="fill: #ef5350; stroke: #000000; stroke-width: 1.3; stroke-linejoin: miter"/>
   </g>
   <g id="patch_50">
    <path d="M 437.4 200.85283 
C 437.4 200.85283 437.4 200.85283 437.4 200.85283 
C 437.4 200.85283 437.4 200.85283 437.4 200.85283 
C 437.4 200.85283 437.4 200.85283 437.4 200.85283 
C 437.4 200.85283 437.4 200.85283 437.4 200.85283 
C 437.4 200.85283 437.4 200.85283 437.4 200.85283 
C 437.4 200.85283 437.4 200.85283 437.4 200.85283 
C 437.4 200.85283 437.4 200.85283 437.4 200.85283 
C 437.4 200.85283 437.4 200.85283 437.4 200.85283 
z
" clip-path="url(#pc1a2400620)" style="fill: #ffffff; stroke: #000000; stroke-width: 1.3; stroke-linejoin: miter"/>
   </g>
   <g id="patch_51">
    <path d="M 282.871698 474.249057 
C 282.871698 474.249057 282.871698 474.249057 282.871698 474.249057 
C 282.871698 474.249057 282.871698 474.249057 282.871698 474.249057 
C 282.871698 474.249057 282.871698 474.249057 282.871698 474.249057 
C 282.871698 474.249057 282.871698 474.249057 282.871698 474.249057 
C 282.871698 474.249057 282.871698 474.249057 282.871698 474.249057 
C 282.871698 474.249057 282.871698 474.249057 282.871698 474.249057 
C 282.871698 474.249057 282.871698 474.249057 282.871698 474.249057 
C 282.871698 474.249057 282.871698 474.249057 282.871698 474.249057 
z
" clip-path="url(#pc1a2400620)" style="fill: #ffffff; stroke: #000000; stroke-width: 1.3; stroke-linejoin: miter"/>
   </g>
   <g id="patch_52">
    <path d="M 270.984906 52.267925 
C 275.713527 52.267925 280.249113 50.389223 283.592753 47.045583 
C 286.936393 43.701943 288.815094 39.166357 288.815094 34.437736 
C 288.815094 29.709115 286.936393 25.173529 283.592753 21.829889 
C 280.249113 18.486248 275.713527 16.607547 270.984906 16.607547 
C 266.256284 16.607547 261.720699 18.486248 258.377058 21.829889 
C 255.033418 25.173529 253.154717 29.709115 253.154717 34.437736 
C 253.154717 39.166357 255.033418 43.701943 258.377058 47.045583 
C 261.720699 50.389223 266.256284 52.267925 270.984906 52.267925 
z
" clip-path="url(#pc1a2400620)" style="fill: #78909c; stroke: #000000; stroke-width: 1.3; stroke-linejoin: miter"/>
   </g>
   <g id="patch_53">
    <path d="M 45.135849 254.343396 
C 49.86447 254.343396 54.400056 252.464695 57.743696 249.121055 
C 61.087337 245.777415 62.966038 241.241829 62.966038 236.513208 
C 62.966038 231.784586 61.087337 227.249 57.743696 223.90536 
C 54.400056 220.56172 49.86447 218.683019 45.135849 218.683019 
C 40.407228 218.683019 35.871642 220.56172 32.528002 223.90536 
C 29.184362 227.249 27.30566 231.784586 27.30566 236.513208 
C 27.30566 241.241829 29.184362 245.777415 32.528002 249.121055 
C 35.871642 252.464695 40.407228 254.343396 45.135849 254.343396 
z
" clip-path="url(#pc1a2400620)" style="fill: #66bb6a; stroke: #000000; stroke-width: 1.3; stroke-linejoin: miter"/>
   </g>
   <g id="patch_54">
    <path d="M 389.85283 444.532075 
C 394.581452 444.532075 399.117037 442.653374 402.460678 439.309734 
C 405.804318 435.966094 407.683019 431.430508 407.683019 426.701887 
C 407.683019 421.973265 405.804318 417.43768 402.460678 414.094039 
C 399.117037 410.750399 394.581452 408.871698 389.85283 408.871698 
C 385.124209 408.871698 380.588623 410.750399 377.244983 414.094039 
C 373.901343 417.43768 372.022642 421.973265 372.022642 426.701887 
C 372.022642 431.430508 373.901343 435.966094 377.244983 439.309734 
C 380.588623 442.653374 385.124209 444.532075 389.85283 444.532075 
z
" clip-path="url(#pc1a2400620)" style="fill: #ec407a; stroke: #000000; stroke-width: 1.3; stroke-linejoin: miter"/>
   </g>
   <g id="patch_55">
    <path d="M 366.079245 58.211321 
C 366.079245 58.211321 366.079245 58.211321 366.079245 58.211321 
C 366.079245 58.211321 366.079245 58.211321 366.079245 58.211321 
C 366.079245 58.211321 366.079245 58.211321 366.079245 58.211321 
C 366.079245 58.211321 366.079245 58.211321 366.079245 58.211321 
C 366.079245 58.211321 366.079245 58.211321 366.079245 58.211321 
C 366.079245 58.211321 366.079245 58.211321 366.079245 58.211321 
C 366.079245 58.211321 366.079245 58.211321 366.079245 58.211321 
C 366.079245 58.211321 366.079245 58.211321 366.079245 58.211321 
z
" clip-path="url(#pc1a2400620)" style="fill: #ffffff; stroke: #000000; stroke-width: 1.3; stroke-linejoin: miter"/>
   </g>
   <g id="patch_56">
    <path d="M 199.664151 81.984906 
C 199.664151 81.984906 199.664151 81.984906 199.664151 81.984906 
C 199.664151 81.984906 199.664151 81.984906 199.664151 81.984906 
C 199.664151 81.984906 199.664151 81.984906 199.664151 81.984906 
C 199.664151 81.984906 199.664151 81.984906 199.664151 81.984906 
C 199.664151 81.984906 199.664151 81.984906 199.664151 81.984906 
C 199.664151 81.984906 199.664151 81.984906 199.664151 81.984906 
C 199.664151 81.984906 199.664151 81.984906 199.664151 81.984906 
C 199.664151 81.984906 199.664151 81.984906 199.664151 81.984906 
z
" clip-path="url(#pc1a2400620)" style="fill: #ffffff; stroke: #000000; stroke-width: 1.3; stroke-linejoin: miter"/>
   </g>
   <g id="patch_57">
    <path d="M 116.456604 408.871698 
C 121.185225 408.871698 125.720811 406.992997 129.064451 403.649357 
C 132.408091 400.305717 134.286792 395.770131 134.286792 391.041509 
C 134.286792 386.312888 132.408091 381.777302 129.064451 378.433662 
C 125.720811 375.090022 121.185225 373.211321 116.456604 373.211321 
C 111.727982 373.211321 107.192397 375.090022 103.848756 378.433662 
C 100.505116 381.777302 98.626415 386.312888 98.626415 391.041509 
C 98.626415 395.770131 100.505116 400.305717 103.848756 403.649357 
C 107.192397 406.992997 111.727982 408.871698 116.456604 408.871698 
z
" clip-path="url(#pc1a2400620)" style="fill: #ffee58; stroke: #000000; stroke-width: 1.3; stroke-linejoin: miter"/>
   </g>
   <g id="patch_58">
    <path d="M 449.286792 295.94717 
C 449.286792 295.94717 449.286792 295.94717 449.286792 295.94717 
C 449.286792 295.94717 449.286792 295.94717 449.286792 295.94717 
C 449.286792 295.94717 449.286792 295.94717 449.286792 295.94717 
C 449.286792 295.94717 449.286792 295.94717 449.286792 295.94717 
C 449.286792 295.94717 449.286792 295.94717 449.286792 295.94717 
C 449.286792 295.94717 449.286792 295.94717 449.286792 295.94717 
C 449.286792 295.94717 449.286792 295.94717 449.286792 295.94717 
C 449.286792 295.94717 449.286792 295.94717 449.286792 295.94717 
z
" clip-path="url(#pc1a2400620)" style="fill: #ffffff; stroke: #000000; stroke-width: 1.3; stroke-linejoin: miter"/>
   </g>
   <g id="patch_59">
    <path d="M 223.437736 450.475472 
C 223.437736 450.475472 223.437736 450.475472 223.437736 450.475472 
C 223.437736 450.475472 223.437736 450.475472 223.437736 450.475472 
C 223.437736 450.475472 223.437736 450.475472 223.437736 450.475472 
C 223.437736 450.475472 223.437736 450.475472 223.437736 450.475472 
C 223.437736 450.475472 223.437736 450.475472 223.437736 450.475472 
C 223.437736 450.475472 223.437736 450.475472 223.437736 450.475472 
C 223.437736 450.475472 223.437736 450.475472 223.437736 450.475472 
C 223.437736 450.475472 223.437736 450.475472 223.437736 450.475472 
z
" clip-path="url(#pc1a2400620)" style="fill: #ffffff; stroke: #000000; stroke-width: 1.3; stroke-linejoin: miter"/>
   </g>
   <g id="patch_60">
    <path d="M 437.4 141.418868 
C 437.4 141.418868 437.4 141.418868 437.4 141.418868 
C 437.4 141.418868 437.4 141.418868 437.4 141.418868 
C 437.4 141.418868 437.4 141.418868 437.4 141.418868 
C 437.4 141.418868 437.4 141.418868 437.4 141.418868 
C 437.4 141.418868 437.4 141.418868 437.4 141.418868 
C 437.4 141.418868 437.4 141.418868 437.4 141.418868 
C 437.4 141.418868 437.4 141.418868 437.4 141.418868 
C 437.4 141.418868 437.4 141.418868 437.4 141.418868 
z
" clip-path="url(#pc1a2400620)" style="fill: #ffffff; stroke: #000000; stroke-width: 1.3; stroke-linejoin: miter"/>
   </g>
   <g id="patch_61">
    <path d="M 318.532075 492.079245 
C 323.260697 492.079245 327.796283 490.200544 331.139923 486.856904 
C 334.483563 483.513264 336.362264 478.977678 336.362264 474.249057 
C 336.362264 469.520435 334.483563 464.984849 331.139923 461.641209 
C 327.796283 458.297569 323.260697 456.418868 318.532075 456.418868 
C 313.803454 456.418868 309.267868 458.297569 305.924228 461.641209 
C 302.580588 464.984849 300.701887 469.520435 300.701887 474.249057 
C 300.701887 478.977678 302.580588 483.513264 305.924228 486.856904 
C 309.267868 490.200544 313.803454 492.079245 318.532075 492.079245 
z
" clip-path="url(#pc1a2400620)" style="fill: #ab47bc; stroke: #000000; stroke-width: 1.3; stroke-linejoin: miter"/>
   </g>
   <g id="patch_62">
    <path d="M 80.796226 165.192453 
C 80.796226 165.192453 80.796226 165.192453 80.796226 165.192453 
C 80.796226 165.192453 80.796226 165.192453 80.796226 165.192453 
C 80.796226 165.192453 80.796226 165.192453 80.796226 165.192453 
C 80.796226 165.192453 80.796226 165.192453 80.796226 165.192453 
C 80.796226 165.192453 80.796226 165.192453 80.796226 165.192453 
C 80.796226 165.192453 80.796226 165.192453 80.796226 165.192453 
C 80.796226 165.192453 80.796226 165.192453 80.796226 165.192453 
C 80.796226 165.192453 80.796226 165.192453 80.796226 165.192453 
z
" clip-path="url(#pc1a2400620)" style="fill: #ffffff; stroke: #000000; stroke-width: 1.3; stroke-linejoin: miter"/>
   </g>
   <g id="patch_63">
    <path d="M 377.966038 456.418868 
C 382.694659 456.418868 387.230245 454.540167 390.573885 451.196527 
C 393.917525 447.852886 395.796226 443.317301 395.796226 438.588679 
C 395.796226 433.860058 393.917525 429.324472 390.573885 425.980832 
C 387.230245 422.637192 382.694659 420.758491 377.966038 420.758491 
C 373.237416 420.758491 368.701831 422.637192 365.35819 425.980832 
C 362.01455 429.324472 360.135849 433.860058 360.135849 438.588679 
C 360.135849 443.317301 362.01455 447.852886 365.35819 451.196527 
C 368.701831 454.540167 373.237416 456.418868 377.966038 456.418868 
z
" clip-path="url(#pc1a2400620)" style="fill: #ec407a; stroke: #000000; stroke-width: 1.3; stroke-linejoin: miter"/>
   </g>
   <g id="patch_64">
    <path d="M 354.192453 123.588679 
C 358.921074 123.588679 363.45666 121.709978 366.8003 118.366338 
C 370.14394 115.022698 372.022642 110.487112 372.022642 105.758491 
C 372.022642 101.029869 370.14394 96.494283 366.8003 93.150643 
C 363.45666 89.807003 358.921074 87.928302 354.192453 87.928302 
C 349.463832 87.928302 344.928246 89.807003 341.584606 93.150643 
C 338.240965 96.494283 336.362264 101.029869 336.362264 105.758491 
C 336.362264 110.487112 338.240965 115.022698 341.584606 118.366338 
C 344.928246 121.709978 349.463832 123.588679 354.192453 123.588679 
z
" clip-path="url(#pc1a2400620)" style="fill: #ffee58; stroke: #000000; stroke-width: 1.3; stroke-linejoin: miter"/>
   </g>
   <g id="patch_65">
    <path d="M 175.890566 301.890566 
C 180.619187 301.890566 185.154773 300.011865 188.498413 296.668225 
C 191.842054 293.324584 193.720755 288.788999 193.720755 284.060377 
C 193.720755 279.331756 191.842054 274.79617 188.498413 271.45253 
C 185.154773 268.10889 180.619187 266.230189 175.890566 266.230189 
C 171.161945 266.230189 166.626359 268.10889 163.282719 271.45253 
C 159.939079 274.79617 158.060377 279.331756 158.060377 284.060377 
C 158.060377 288.788999 159.939079 293.324584 163.282719 296.668225 
C 166.626359 300.011865 171.161945 301.890566 175.890566 301.890566 
z
" clip-path="url(#pc1a2400620)" style="fill: #66bb6a; stroke: #000000; stroke-width: 1.3; stroke-linejoin: miter"/>
   </g>
   <g id="patch_66">
    <path d="M 116.456604 111.701887 
C 121.185225 111.701887 125.720811 109.823186 129.064451 106.479545 
C 132.408091 103.135905 134.286792 98.600319 134.286792 93.871698 
C 134.286792 89.143077 132.408091 84.607491 129.064451 81.263851 
C 125.720811 77.920211 121.185225 76.041509 116.456604 76.041509 
C 111.727982 76.041509 107.192397 77.920211 103.848756 81.263851 
C 100.505116 84.607491 98.626415 89.143077 98.626415 93.871698 
C 98.626415 98.600319 100.505116 103.135905 103.848756 106.479545 
C 107.192397 109.823186 111.727982 111.701887 116.456604 111.701887 
z
" clip-path="url(#pc1a2400620)" style="fill: #78909c; stroke: #000000; stroke-width: 1.3; stroke-linejoin: miter"/>
   </g>
   <g id="patch_67">
    <path d="M 449.286792 337.550943 
C 454.015414 337.550943 458.551 335.672242 461.89464 332.328602 
C 465.23828 328.984962 467.116981 324.449376 467.116981 319.720755 
C 467.116981 314.992133 465.23828 310.456548 461.89464 307.112907 
C 458.551 303.769267 454.015414 301.890566 449.286792 301.890566 
C 444.558171 301.890566 440.022585 303.769267 436.678945 307.112907 
C 433.335305 310.456548 431.456604 314.992133 431.456604 319.720755 
C 431.456604 324.449376 433.335305 328.984962 436.678945 332.328602 
C 440.022585 335.672242 444.558171 337.550943 449.286792 337.550943 
z
" clip-path="url(#pc1a2400620)" style="fill: #ab47bc; stroke: #000000; stroke-width: 1.3; stroke-linejoin: miter"/>
   </g>
   <g id="patch_68">
    <path d="M 259.098113 22.550943 
C 259.098113 22.550943 259.098113 22.550943 259.098113 22.550943 
C 259.098113 22.550943 259.098113 22.550943 259.098113 22.550943 
C 259.098113 22.550943 259.098113 22.550943 259.098113 22.550943 
C 259.098113 22.550943 259.098113 22.550943 259.098113 22.550943 
C 259.098113 22.550943 259.098113 22.550943 259.098113 22.550943 
C 259.098113 22.550943 259.098113 22.550943 259.098113 22.550943 
C 259.098113 22.550943 259.098113 22.550943 259.098113 22.550943 
C 259.098113 22.550943 259.098113 22.550943 259.098113 22.550943 
z
" clip-path="url(#pc1a2400620)" style="fill: #ffffff; stroke: #000000; stroke-width: 1.3; stroke-linejoin: miter"/>
   </g>
   <g id="patch_69">
    <path d="M 21.362264 260.286792 
C 21.362264 260.286792 21.362264 260.286792 21.362264 260.286792 
C 21.362264 260.286792 21.362264 260.286792 21.362264 260.286792 
C 21.362264 260.286792 21.362264 260.286792 21.362264 260.286792 
C 21.362264 260.286792 21.362264 260.286792 21.362264 260.286792 
C 21.362264 260.286792 21.362264 260.286792 21.362264 260.286792 
C 21.362264 260.286792 21.362264 260.286792 21.362264 260.286792 
C 21.362264 260.286792 21.362264 260.286792 21.362264 260.286792 
C 21.362264 260.286792 21.362264 260.286792 21.362264 260.286792 
z
" clip-path="url(#pc1a2400620)" style="fill: #ffffff; stroke: #000000; stroke-width: 1.3; stroke-linejoin: miter"/>
   </g>
   <g id="text_1">
    <g clip-path="url(#pc1a2400620)">
     <!-- 2 -->
     <g transform="translate(264.936624 39.826017)scale(0.22 -0.22)">
      <defs>
       <path id="UNAVAILABLE-32" d="M 3150 0 
L 459 0 
L 459 488 
L 1516 1538 
Q 1775 1794 1937 1981 
Q 2100 2169 2190 2323 
Q 2281 2478 2312 2615 
Q 2344 2753 2344 2913 
Q 2344 3063 2303 3198 
Q 2263 3334 2178 3437 
Q 2094 3541 1959 3600 
Q 1825 3659 1638 3659 
Q 1378 3659 1165 3543 
Q 953 3428 775 3244 
L 475 3603 
Q 706 3847 1007 3994 
Q 1309 4141 1709 4141 
Q 1981 4141 2204 4059 
Q 2428 3978 2590 3825 
Q 2753 3672 2842 3450 
Q 2931 3228 2931 2950 
Q 2931 2716 2868 2516 
Q 2806 2316 2679 2117 
Q 2553 1919 2361 1706 
Q 2169 1494 1906 1241 
L 1166 519 
L 3150 519 
L 3150 0 
z
" transform="scale(0.015625)"/>
      </defs>
      <use xlink:href="#UNAVAILABLE-32"/>
     </g>
    </g>
   </g>
   <g id="text_2">
    <g clip-path="url(#pc1a2400620)">
     <!-- 2 -->
     <g transform="translate(39.087568 241.901489)scale(0.22 -0.22)">
      <use xlink:href="#UNAVAILABLE-32"/>
     </g>
    </g>
   </g>
   <g id="text_3">
    <g clip-path="url(#pc1a2400620)">
     <!-- 1 -->
     <g transform="translate(383.804549 432.090168)scale(0.22 -0.22)">
      <defs>
       <path id="UNAVAILABLE-31" d="M 3116 0 
L 550 0 
L 550 506 
L 1600 506 
L 1600 3488 
L 622 2956 
L 422 3419 
L 1722 4103 
L 2203 4103 
L 2203 506 
L 3116 506 
L 3116 0 
z
" transform="scale(0.015625)"/>
      </defs>
      <use xlink:href="#UNAVAILABLE-31"/>
     </g>
    </g>
   </g>
   <g id="text_4">
    <g clip-path="url(#pc1a2400620)">
     <!-- 2 -->
     <g transform="translate(110.408323 396.429791)scale(0.22 -0.22)">
      <use xlink:href="#UNAVAILABLE-32"/>
     </g>
    </g>
   </g>
   <g id="text_5">
    <g clip-path="url(#pc1a2400620)">
     <!-- 2 -->
     <g transform="translate(312.483794 479.637338)scale(0.22 -0.22)">
      <use xlink:href="#UNAVAILABLE-32"/>
     </g>
    </g>
   </g>
   <g id="text_6">
    <g clip-path="url(#pc1a2400620)">
     <!-- 2 -->
     <g transform="translate(371.917756 443.97696)scale(0.22 -0.22)">
      <use xlink:href="#UNAVAILABLE-32"/>
     </g>
    </g>
   </g>
   <g id="text_7">
    <g clip-path="url(#pc1a2400620)">
     <!-- 1 -->
     <g transform="translate(348.144172 111.146772)scale(0.22 -0.22)">
      <use xlink:href="#UNAVAILABLE-31"/>
     </g>
    </g>
   </g>
   <g id="text_8">
    <g clip-path="url(#pc1a2400620)">
     <!-- 1 -->
     <g transform="translate(169.842285 289.448659)scale(0.22 -0.22)">
      <use xlink:href="#UNAVAILABLE-31"/>
     </g>
    </g>
   </g>
   <g id="text_9">
    <g clip-path="url(#pc1a2400620)">
     <!-- 1 -->
     <g transform="translate(110.408323 99.259979)scale(0.22 -0.22)">
      <use xlink:href="#UNAVAILABLE-31"/>
     </g>
    </g>
   </g>
   <g id="text_10">
    <g clip-path="url(#pc1a2400620)">
     <!-- 1 -->
     <g transform="translate(443.238511 325.109036)scale(0.22 -0.22)">
      <use xlink:href="#UNAVAILABLE-31"/>
     </g>
    </g>
   </g>
   <g id="matplotlib.axis_1"/>
   <g id="matplotlib.axis_2"/>
  </g>
 </g>
 <defs>
  <clipPath id="pc1a2400620">
   <rect x="-28.8" y="-28.8" width="528.249057" height="554.4"/>
  </clipPath>
 </defs>
</svg>
