<?xml version="1.0" encoding="utf-8" standalone="no"?>
<!DOCTYPE svg PUBLIC "-//W3C//DTD SVG 1.1//EN"
  "http://www.w3.org/Graphics/SVG/1.1/DTD/svg11.dtd">
<svg xmlns:xlink="http://www.w3.org/1999/xlink" width="470.649057pt" height="496.8pt" viewBox="0 0 470.649057 496.8" xmlns="http://www.w3.org/2000/svg" version="1.1">
 <metadata>
  <rdf:RDF xmlns:dc="http://purl.org/dc/elements/1.1/" xmlns:cc="http://creativecommons.org/ns#" xmlns:rdf="http://www.w3.org/1999/02/22-rdf-syntax-ns#">
   <cc:Work>
    <dc:type rdf:resource="http://purl.org/dc/dcmitype/StillImage"/>
    <dc:date>2023-08-31T19:19:34.115046</dc:date>
    <dc:format>image/svg+xml</dc:format>
    <dc:creator>
     <cc:Agent>
      <dc:title>Matplotlib v3.5.2, https://matplotlib.org/</dc:title>
     </cc:Agent>
    </dc:creator>
   </cc:Work>
  </rdf:RDF>
 </metadata>
 <defs>
  <style type="text/css">*{stroke-linejoin: round; stroke-linecap: butt}</style>
 </defs>
 <g id="figure_1">
  <g id="patch_1">
   <path d="M 0 496.8 
L 470.649057 496.8 
L 470.649057 -0 
L 0 -0 
z
" style="fill: #ffffff"/>
  </g>
  <g id="axes_1">
   <g id="patch_2">
    <path d="M -28.8 525.6 
L 499.449057 525.6 
L 499.449057 -28.8 
L -28.8 -28.8 
z
" style="fill: #ffffff"/>
   </g>
   <g id="patch_3">
    <path d="M 259.098113 260.286792 
L 291.021945 260.286792 
" clip-path="url(#p3e9846cc97)" style="fill: none; stroke: #444444; stroke-width: 1.8; stroke-linejoin: miter"/>
   </g>
   <g id="patch_4">
    <path d="M 300.701887 260.286792 
L 291.021945 255.731757 
L 291.021945 264.841828 
z
" clip-path="url(#p3e9846cc97)" style="fill: #444444"/>
   </g>
   <g id="patch_5">
    <path d="M 259.098113 260.286792 
L 259.098113 228.362961 
" clip-path="url(#p3e9846cc97)" style="fill: none; stroke: #444444; stroke-width: 1.8; stroke-linejoin: miter"/>
   </g>
   <g id="patch_6">
    <path d="M 259.098113 218.683019 
L 254.543078 228.362961 
L 263.653148 228.362961 
z
" clip-path="url(#p3e9846cc97)" style="fill: #444444"/>
   </g>
   <g id="patch_7">
    <path d="M 318.532075 260.286792 
L 359.778343 84.990154 
" clip-path="url(#p3e9846cc97)" style="fill: none; stroke: #f06292; stroke-width: 1.8; stroke-linejoin: miter"/>
   </g>
   <g id="patch_8">
    <path d="M 361.995431 75.567533 
L 355.344394 83.946872 
L 364.212293 86.033437 
z
" clip-path="url(#p3e9846cc97)" style="fill: #f06292"/>
   </g>
   <g id="patch_9">
    <path d="M 366.079245 58.211321 
L 324.145389 236.430208 
" clip-path="url(#p3e9846cc97)" style="fill: none; stroke: #f06292; stroke-width: 1.8; stroke-linejoin: miter"/>
   </g>
   <g id="patch_10">
    <path d="M 321.928302 245.85283 
L 328.579339 237.47349 
L 319.71144 235.386926 
z
" clip-path="url(#p3e9846cc97)" style="fill: #f06292"/>
   </g>
   <g id="patch_11">
    <path d="M 318.532075 260.286792 
L 422.746013 288.708776 
" clip-path="url(#p3e9846cc97)" style="fill: none; stroke: #f06292; stroke-width: 1.8; stroke-linejoin: miter"/>
   </g>
   <g id="patch_12">
    <path d="M 432.084871 291.255737 
L 423.944522 284.314242 
L 421.547504 293.103309 
z
" clip-path="url(#p3e9846cc97)" style="fill: #f06292"/>
   </g>
   <g id="patch_13">
    <path d="M 449.286792 295.94717 
C 391.735694 301.708026 335.957957 294.157032 283.036845 270.836002 
" clip-path="url(#p3e9846cc97)" style="fill: none; stroke: #f06292; stroke-width: 1.8; stroke-linejoin: miter"/>
   </g>
   <g id="patch_14">
    <path d="M 274.178855 266.932504 
L 281.199998 275.004255 
L 284.873691 266.667748 
z
" clip-path="url(#p3e9846cc97)" style="fill: #f06292"/>
   </g>
   <g id="patch_15">
    <path d="M 259.098113 200.85283 
L 259.098113 50.061074 
" clip-path="url(#p3e9846cc97)" style="fill: none; stroke: #ba68c8; stroke-width: 1.8; stroke-linejoin: miter"/>
   </g>
   <g id="patch_16">
    <path d="M 259.098113 40.381132 
L 254.543078 50.061074 
L 263.653148 50.061074 
z
" clip-path="url(#p3e9846cc97)" style="fill: #ba68c8"/>
   </g>
   <g id="patch_17">
    <path d="M 259.098113 22.550943 
L 259.098113 173.342699 
" clip-path="url(#p3e9846cc97)" style="fill: none; stroke: #ba68c8; stroke-width: 1.8; stroke-linejoin: miter"/>
   </g>
   <g id="patch_18">
    <path d="M 259.098113 183.022642 
L 263.653148 173.342699 
L 254.543078 173.342699 
z
" clip-path="url(#p3e9846cc97)" style="fill: #ba68c8"/>
   </g>
   <g id="patch_19">
    <path d="M 259.098113 200.85283 
L 107.772129 170.587633 
" clip-path="url(#p3e9846cc97)" style="fill: none; stroke: #ba68c8; stroke-width: 1.8; stroke-linejoin: miter"/>
   </g>
   <g id="patch_20">
    <path d="M 98.280165 168.689241 
L 106.878813 175.054213 
L 108.665445 166.121054 
z
" clip-path="url(#p3e9846cc97)" style="fill: #ba68c8"/>
   </g>
   <g id="patch_21">
    <path d="M 80.796226 165.192453 
C 140.292401 177.651995 193.763991 202.922766 239.437549 243.024616 
" clip-path="url(#p3e9846cc97)" style="fill: none; stroke: #ba68c8; stroke-width: 1.8; stroke-linejoin: miter"/>
   </g>
   <g id="patch_22">
    <path d="M 246.711586 249.411295 
L 242.442892 239.601714 
L 236.432206 246.447518 
z
" clip-path="url(#p3e9846cc97)" style="fill: #ba68c8"/>
   </g>
   <g id="patch_23">
    <path d="M 318.532075 260.286792 
L 417.9474 160.871468 
" clip-path="url(#p3e9846cc97)" style="fill: none; stroke: #81c784; stroke-width: 1.8; stroke-linejoin: miter"/>
   </g>
   <g id="patch_24">
    <path d="M 424.792153 154.026715 
L 414.726504 157.650572 
L 421.168296 164.092364 
z
" clip-path="url(#p3e9846cc97)" style="fill: #81c784"/>
   </g>
   <g id="patch_25">
    <path d="M 437.4 141.418868 
L 334.291923 244.526945 
" clip-path="url(#p3e9846cc97)" style="fill: none; stroke: #81c784; stroke-width: 1.8; stroke-linejoin: miter"/>
   </g>
   <g id="patch_26">
    <path d="M 327.44717 251.371698 
L 337.512819 247.747841 
L 331.071026 241.306049 
z
" clip-path="url(#p3e9846cc97)" style="fill: #81c784"/>
   </g>
   <g id="patch_27">
    <path d="M 318.532075 260.286792 
L 235.74064 425.869663 
" clip-path="url(#p3e9846cc97)" style="fill: none; stroke: #81c784; stroke-width: 1.8; stroke-linejoin: miter"/>
   </g>
   <g id="patch_28">
    <path d="M 231.411639 434.527666 
L 239.814788 427.906736 
L 231.666493 423.832589 
z
" clip-path="url(#p3e9846cc97)" style="fill: #81c784"/>
   </g>
   <g id="patch_29">
    <path d="M 223.437736 450.475472 
C 217.67688 392.924373 225.227873 337.146636 248.548904 284.225524 
" clip-path="url(#p3e9846cc97)" style="fill: none; stroke: #81c784; stroke-width: 1.8; stroke-linejoin: miter"/>
   </g>
   <g id="patch_30">
    <path d="M 252.452402 275.367534 
L 244.38065 282.388677 
L 252.717158 286.062371 
z
" clip-path="url(#p3e9846cc97)" style="fill: #81c784"/>
   </g>
   <g id="patch_31">
    <path d="M 259.098113 200.85283 
L 409.889869 200.85283 
" clip-path="url(#p3e9846cc97)" style="fill: none; stroke: #fff176; stroke-width: 1.8; stroke-linejoin: miter"/>
   </g>
   <g id="patch_32">
    <path d="M 419.569811 200.85283 
L 409.889869 196.297795 
L 409.889869 205.407865 
z
" clip-path="url(#p3e9846cc97)" style="fill: #fff176"/>
   </g>
   <g id="patch_33">
    <path d="M 437.4 200.85283 
L 339.076871 250.014394 
" clip-path="url(#p3e9846cc97)" style="fill: none; stroke: #fff176; stroke-width: 1.8; stroke-linejoin: miter"/>
   </g>
   <g id="patch_34">
    <path d="M 330.418868 254.343396 
L 341.113945 254.088542 
L 337.039798 245.940247 
z
" clip-path="url(#p3e9846cc97)" style="fill: #fff176"/>
   </g>
   <g id="patch_35">
    <path d="M 318.532075 260.286792 
L 287.394336 447.113231 
" clip-path="url(#p3e9846cc97)" style="fill: none; stroke: #fff176; stroke-width: 1.8; stroke-linejoin: miter"/>
   </g>
   <g id="patch_36">
    <path d="M 285.802963 456.661467 
L 291.887395 447.862074 
L 282.901277 446.364387 
z
" clip-path="url(#p3e9846cc97)" style="fill: #fff176"/>
   </g>
   <g id="patch_37">
    <path d="M 282.871698 474.249057 
C 257.914677 413.876507 248.046302 351.106189 255.93706 286.263074 
" clip-path="url(#p3e9846cc97)" style="fill: none; stroke: #fff176; stroke-width: 1.8; stroke-linejoin: miter"/>
   </g>
   <g id="patch_38">
    <path d="M 257.106386 276.654018 
L 251.415381 285.712831 
L 260.458738 286.813317 
z
" clip-path="url(#p3e9846cc97)" style="fill: #fff176"/>
   </g>
   <g id="patch_39">
    <path d="M 259.098113 200.85283 
L 211.967056 106.590715 
" clip-path="url(#p3e9846cc97)" style="fill: none; stroke: #90a4ae; stroke-width: 1.8; stroke-linejoin: miter"/>
   </g>
   <g id="patch_40">
    <path d="M 207.638054 97.932711 
L 207.892908 108.627788 
L 216.041203 104.553641 
z
" clip-path="url(#p3e9846cc97)" style="fill: #90a4ae"/>
   </g>
   <g id="patch_41">
    <path d="M 199.664151 81.984906 
L 248.825715 180.308034 
" clip-path="url(#p3e9846cc97)" style="fill: none; stroke: #90a4ae; stroke-width: 1.8; stroke-linejoin: miter"/>
   </g>
   <g id="patch_42">
    <path d="M 253.154717 188.966038 
L 252.899862 178.270961 
L 244.751568 182.345108 
z
" clip-path="url(#p3e9846cc97)" style="fill: #90a4ae"/>
   </g>
   <g id="patch_43">
    <path d="M 259.098113 200.85283 
L 48.051011 253.614606 
" clip-path="url(#p3e9846cc97)" style="fill: none; stroke: #90a4ae; stroke-width: 1.8; stroke-linejoin: miter"/>
   </g>
   <g id="patch_44">
    <path d="M 38.660088 255.962336 
L 49.15577 258.033639 
L 46.946253 249.195573 
z
" clip-path="url(#p3e9846cc97)" style="fill: #90a4ae"/>
   </g>
   <g id="patch_45">
    <path d="M 21.362264 260.286792 
C 91.604683 240.225348 162.56949 237.333492 233.633583 254.231645 
" clip-path="url(#p3e9846cc97)" style="fill: none; stroke: #90a4ae; stroke-width: 1.8; stroke-linejoin: miter"/>
   </g>
   <g id="patch_46">
    <path d="M 243.050943 256.470976 
L 234.687332 249.800172 
L 232.579834 258.663119 
z
" clip-path="url(#p3e9846cc97)" style="fill: #90a4ae"/>
   </g>
   <g id="patch_47">
    <path d="M 243.050943 276.333962 
L 275.145283 276.333962 
L 275.145283 244.239623 
L 243.050943 244.239623 
z
" clip-path="url(#p3e9846cc97)" style="fill: #29b6f6; stroke: #000000; stroke-width: 1.3; stroke-linejoin: miter"/>
   </g>
   <g id="patch_48">
    <path d="M 300.701887 260.286792 
L 318.532075 278.116981 
L 336.362264 260.286792 
L 318.532075 242.456604 
z
" clip-path="url(#p3e9846cc97)" style="fill: #ef5350; stroke: #000000; stroke-width: 1.3; stroke-linejoin: miter"/>
   </g>
   <g id="patch_49">
    <path d="M 241.267925 200.85283 
L 259.098113 218.683019 
L 276.928302 200.85283 
L 259.098113 183.022642 
z
" clip-path="url(#p3e9846cc97)" style="fill: #ef5350; stroke: #000000; stroke-width: 1.3; stroke-linejoin: miter"/>
   </g>
   <g id="patch_50">
    <path d="M 437.4 218.683019 
C 442.128621 218.683019 446.664207 216.804318 450.007847 213.460678 
C 453.351488 210.117037 455.230189 205.581452 455.230189 200.85283 
C 455.230189 196.124209 453.351488 191.588623 450.007847 188.244983 
C 446.664207 184.901343 442.128621 183.022642 437.4 183.022642 
C 432.671379 183.022642 428.135793 184.901343 424.792153 188.244983 
C 421.448512 191.588623 419.569811 196.124209 419.569811 200.85283 
C 419.569811 205.581452 421.448512 210.117037 424.792153 213.460678 
C 428.135793 216.804318 432.671379 218.683019 437.4 218.683019 
z
" clip-path="url(#p3e9846cc97)" style="fill: #ffee58; stroke: #000000; stroke-width: 1.3; stroke-linejoin: miter"/>
   </g>
   <g id="patch_51">
    <path d="M 282.871698 492.079245 
C 287.600319 492.079245 292.135905 490.200544 295.479545 486.856904 
C 298.823186 483.513264 300.701887 478.977678 300.701887 474.249057 
C 300.701887 469.520435 298.823186 464.984849 295.479545 461.641209 
C 292.135905 458.297569 287.600319 456.418868 282.871698 456.418868 
C 278.143077 456.418868 273.607491 458.297569 270.263851 461.641209 
C 266.920211 464.984849 265.041509 469.520435 265.041509 474.249057 
C 265.041509 478.977678 266.920211 483.513264 270.263851 486.856904 
C 273.607491 490.200544 278.143077 492.079245 282.871698 492.079245 
z
" clip-path="url(#p3e9846cc97)" style="fill: #ffee58; stroke: #000000; stroke-width: 1.3; stroke-linejoin: miter"/>
   </g>
   <g id="patch_52">
    <path d="M 270.984906 34.437736 
C 270.984906 34.437736 270.984906 34.437736 270.984906 34.437736 
C 270.984906 34.437736 270.984906 34.437736 270.984906 34.437736 
C 270.984906 34.437736 270.984906 34.437736 270.984906 34.437736 
C 270.984906 34.437736 270.984906 34.437736 270.984906 34.437736 
C 270.984906 34.437736 270.984906 34.437736 270.984906 34.437736 
C 270.984906 34.437736 270.984906 34.437736 270.984906 34.437736 
C 270.984906 34.437736 270.984906 34.437736 270.984906 34.437736 
C 270.984906 34.437736 270.984906 34.437736 270.984906 34.437736 
z
" clip-path="url(#p3e9846cc97)" style="fill: #ffffff; stroke: #000000; stroke-width: 1.3; stroke-linejoin: miter"/>
   </g>
   <g id="patch_53">
    <path d="M 45.135849 236.513208 
C 45.135849 236.513208 45.135849 236.513208 45.135849 236.513208 
C 45.135849 236.513208 45.135849 236.513208 45.135849 236.513208 
C 45.135849 236.513208 45.135849 236.513208 45.135849 236.513208 
C 45.135849 236.513208 45.135849 236.513208 45.135849 236.513208 
C 45.135849 236.513208 45.135849 236.513208 45.135849 236.513208 
C 45.135849 236.513208 45.135849 236.513208 45.135849 236.513208 
C 45.135849 236.513208 45.135849 236.513208 45.135849 236.513208 
C 45.135849 236.513208 45.135849 236.513208 45.135849 236.513208 
z
" clip-path="url(#p3e9846cc97)" style="fill: #ffffff; stroke: #000000; stroke-width: 1.3; stroke-linejoin: miter"/>
   </g>
   <g id="patch_54">
    <path d="M 389.85283 426.701887 
C 389.85283 426.701887 389.85283 426.701887 389.85283 426.701887 
C 389.85283 426.701887 389.85283 426.701887 389.85283 426.701887 
C 389.85283 426.701887 389.85283 426.701887 389.85283 426.701887 
C 389.85283 426.701887 389.85283 426.701887 389.85283 426.701887 
C 389.85283 426.701887 389.85283 426.701887 389.85283 426.701887 
C 389.85283 426.701887 389.85283 426.701887 389.85283 426.701887 
C 389.85283 426.701887 389.85283 426.701887 389.85283 426.701887 
C 389.85283 426.701887 389.85283 426.701887 389.85283 426.701887 
z
" clip-path="url(#p3e9846cc97)" style="fill: #ffffff; stroke: #000000; stroke-width: 1.3; stroke-linejoin: miter"/>
   </g>
   <g id="patch_55">
    <path d="M 366.079245 76.041509 
C 370.807867 76.041509 375.343452 74.162808 378.687093 70.819168 
C 382.030733 67.475528 383.909434 62.939942 383.909434 58.211321 
C 383.909434 53.482699 382.030733 48.947114 378.687093 45.603473 
C 375.343452 42.259833 370.807867 40.381132 366.079245 40.381132 
C 361.350624 40.381132 356.815038 42.259833 353.471398 45.603473 
C 350.127758 48.947114 348.249057 53.482699 348.249057 58.211321 
C 348.249057 62.939942 350.127758 67.475528 353.471398 70.819168 
C 356.815038 74.162808 361.350624 76.041509 366.079245 76.041509 
z
" clip-path="url(#p3e9846cc97)" style="fill: #ec407a; stroke: #000000; stroke-width: 1.3; stroke-linejoin: miter"/>
   </g>
   <g id="patch_56">
    <path d="M 199.664151 99.815094 
C 204.392772 99.815094 208.928358 97.936393 212.271998 94.592753 
C 215.615638 91.249113 217.49434 86.713527 217.49434 81.984906 
C 217.49434 77.256284 215.615638 72.720699 212.271998 69.377058 
C 208.928358 66.033418 204.392772 64.154717 199.664151 64.154717 
C 194.93553 64.154717 190.399944 66.033418 187.056304 69.377058 
C 183.712663 72.720699 181.833962 77.256284 181.833962 81.984906 
C 181.833962 86.713527 183.712663 91.249113 187.056304 94.592753 
C 190.399944 97.936393 194.93553 99.815094 199.664151 99.815094 
z
" clip-path="url(#p3e9846cc97)" style="fill: #78909c; stroke: #000000; stroke-width: 1.3; stroke-linejoin: miter"/>
   </g>
   <g id="patch_57">
    <path d="M 116.456604 391.041509 
C 116.456604 391.041509 116.456604 391.041509 116.456604 391.041509 
C 116.456604 391.041509 116.456604 391.041509 116.456604 391.041509 
C 116.456604 391.041509 116.456604 391.041509 116.456604 391.041509 
C 116.456604 391.041509 116.456604 391.041509 116.456604 391.041509 
C 116.456604 391.041509 116.456604 391.041509 116.456604 391.041509 
C 116.456604 391.041509 116.456604 391.041509 116.456604 391.041509 
C 116.456604 391.041509 116.456604 391.041509 116.456604 391.041509 
C 116.456604 391.041509 116.456604 391.041509 116.456604 391.041509 
z
" clip-path="url(#p3e9846cc97)" style="fill: #ffffff; stroke: #000000; stroke-width: 1.3; stroke-linejoin: miter"/>
   </g>
   <g id="patch_58">
    <path d="M 449.286792 313.777358 
C 454.015414 313.777358 458.551 311.898657 461.89464 308.555017 
C 465.23828 305.211377 467.116981 300.675791 467.116981 295.94717 
C 467.116981 291.218548 465.23828 286.682963 461.89464 283.339322 
C 458.551 279.995682 454.015414 278.116981 449.286792 278.116981 
C 444.558171 278.116981 440.022585 279.995682 436.678945 283.339322 
C 433.335305 286.682963 431.456604 291.218548 431.456604 295.94717 
C 431.456604 300.675791 433.335305 305.211377 436.678945 308.555017 
C 440.022585 311.898657 444.558171 313.777358 449.286792 313.777358 
z
" clip-path="url(#p3e9846cc97)" style="fill: #ec407a; stroke: #000000; stroke-width: 1.3; stroke-linejoin: miter"/>
   </g>
   <g id="patch_59">
    <path d="M 223.437736 468.30566 
C 228.166357 468.30566 232.701943 466.426959 236.045583 463.083319 
C 239.389223 459.739679 241.267925 455.204093 241.267925 450.475472 
C 241.267925 445.74685 239.389223 441.211265 236.045583 437.867624 
C 232.701943 434.523984 228.166357 432.645283 223.437736 432.645283 
C 218.709115 432.645283 214.173529 434.523984 210.829889 437.867624 
C 207.486248 441.211265 205.607547 445.74685 205.607547 450.475472 
C 205.607547 455.204093 207.486248 459.739679 210.829889 463.083319 
C 214.173529 466.426959 218.709115 468.30566 223.437736 468.30566 
z
" clip-path="url(#p3e9846cc97)" style="fill: #66bb6a; stroke: #000000; stroke-width: 1.3; stroke-linejoin: miter"/>
   </g>
   <g id="patch_60">
    <path d="M 437.4 159.249057 
C 442.128621 159.249057 446.664207 157.370355 450.007847 154.026715 
C 453.351488 150.683075 455.230189 146.147489 455.230189 141.418868 
C 455.230189 136.690247 453.351488 132.154661 450.007847 128.811021 
C 446.664207 125.46738 442.128621 123.588679 437.4 123.588679 
C 432.671379 123.588679 428.135793 125.46738 424.792153 128.811021 
C 421.448512 132.154661 419.569811 136.690247 419.569811 141.418868 
C 419.569811 146.147489 421.448512 150.683075 424.792153 154.026715 
C 428.135793 157.370355 432.671379 159.249057 437.4 159.249057 
z
" clip-path="url(#p3e9846cc97)" style="fill: #66bb6a; stroke: #000000; stroke-width: 1.3; stroke-linejoin: miter"/>
   </g>
   <g id="patch_61">
    <path d="M 318.532075 474.249057 
C 318.532075 474.249057 318.532075 474.249057 318.532075 474.249057 
C 318.532075 474.249057 318.532075 474.249057 318.532075 474.249057 
C 318.532075 474.249057 318.532075 474.249057 318.532075 474.249057 
C 318.532075 474.249057 318.532075 474.249057 318.532075 474.249057 
C 318.532075 474.249057 318.532075 474.249057 318.532075 474.249057 
C 318.532075 474.249057 318.532075 474.249057 318.532075 474.249057 
C 318.532075 474.249057 318.532075 474.249057 318.532075 474.249057 
C 318.532075 474.249057 318.532075 474.249057 318.532075 474.249057 
z
" clip-path="url(#p3e9846cc97)" style="fill: #ffffff; stroke: #000000; stroke-width: 1.3; stroke-linejoin: miter"/>
   </g>
   <g id="patch_62">
    <path d="M 80.796226 183.022642 
C 85.524848 183.022642 90.060434 181.14394 93.404074 177.8003 
C 96.747714 174.45666 98.626415 169.921074 98.626415 165.192453 
C 98.626415 160.463832 96.747714 155.928246 93.404074 152.584606 
C 90.060434 149.240965 85.524848 147.362264 80.796226 147.362264 
C 76.067605 147.362264 71.532019 149.240965 68.188379 152.584606 
C 64.844739 155.928246 62.966038 160.463832 62.966038 165.192453 
C 62.966038 169.921074 64.844739 174.45666 68.188379 177.8003 
C 71.532019 181.14394 76.067605 183.022642 80.796226 183.022642 
z
" clip-path="url(#p3e9846cc97)" style="fill: #ab47bc; stroke: #000000; stroke-width: 1.3; stroke-linejoin: miter"/>
   </g>
   <g id="patch_63">
    <path d="M 377.966038 438.588679 
C 377.966038 438.588679 377.966038 438.588679 377.966038 438.588679 
C 377.966038 438.588679 377.966038 438.588679 377.966038 438.588679 
C 377.966038 438.588679 377.966038 438.588679 377.966038 438.588679 
C 377.966038 438.588679 377.966038 438.588679 377.966038 438.588679 
C 377.966038 438.588679 377.966038 438.588679 377.966038 438.588679 
C 377.966038 438.588679 377.966038 438.588679 377.966038 438.588679 
C 377.966038 438.588679 377.966038 438.588679 377.966038 438.588679 
C 377.966038 438.588679 377.966038 438.588679 377.966038 438.588679 
z
" clip-path="url(#p3e9846cc97)" style="fill: #ffffff; stroke: #000000; stroke-width: 1.3; stroke-linejoin: miter"/>
   </g>
   <g id="patch_64">
    <path d="M 354.192453 105.758491 
C 354.192453 105.758491 354.192453 105.758491 354.192453 105.758491 
C 354.192453 105.758491 354.192453 105.758491 354.192453 105.758491 
C 354.192453 105.758491 354.192453 105.758491 354.192453 105.758491 
C 354.192453 105.758491 354.192453 105.758491 354.192453 105.758491 
C 354.192453 105.758491 354.192453 105.758491 354.192453 105.758491 
C 354.192453 105.758491 354.192453 105.758491 354.192453 105.758491 
C 354.192453 105.758491 354.192453 105.758491 354.192453 105.758491 
C 354.192453 105.758491 354.192453 105.758491 354.192453 105.758491 
z
" clip-path="url(#p3e9846cc97)" style="fill: #ffffff; stroke: #000000; stroke-width: 1.3; stroke-linejoin: miter"/>
   </g>
   <g id="patch_65">
    <path d="M 175.890566 284.060377 
C 175.890566 284.060377 175.890566 284.060377 175.890566 284.060377 
C 175.890566 284.060377 175.890566 284.060377 175.890566 284.060377 
C 175.890566 284.060377 175.890566 284.060377 175.890566 284.060377 
C 175.890566 284.060377 175.890566 284.060377 175.890566 284.060377 
C 175.890566 284.060377 175.890566 284.060377 175.890566 284.060377 
C 175.890566 284.060377 175.890566 284.060377 175.890566 284.060377 
C 175.890566 284.060377 175.890566 284.060377 175.890566 284.060377 
C 175.890566 284.060377 175.890566 284.060377 175.890566 284.060377 
z
" clip-path="url(#p3e9846cc97)" style="fill: #ffffff; stroke: #000000; stroke-width: 1.3; stroke-linejoin: miter"/>
   </g>
   <g id="patch_66">
    <path d="M 116.456604 93.871698 
C 116.456604 93.871698 116.456604 93.871698 116.456604 93.871698 
C 116.456604 93.871698 116.456604 93.871698 116.456604 93.871698 
C 116.456604 93.871698 116.456604 93.871698 116.456604 93.871698 
C 116.456604 93.871698 116.456604 93.871698 116.456604 93.871698 
C 116.456604 93.871698 116.456604 93.871698 116.456604 93.871698 
C 116.456604 93.871698 116.456604 93.871698 116.456604 93.871698 
C 116.456604 93.871698 116.456604 93.871698 116.456604 93.871698 
C 116.456604 93.871698 116.456604 93.871698 116.456604 93.871698 
z
" clip-path="url(#p3e9846cc97)" style="fill: #ffffff; stroke: #000000; stroke-width: 1.3; stroke-linejoin: miter"/>
   </g>
   <g id="patch_67">
    <path d="M 449.286792 319.720755 
C 449.286792 319.720755 449.286792 319.720755 449.286792 319.720755 
C 449.286792 319.720755 449.286792 319.720755 449.286792 319.720755 
C 449.286792 319.720755 449.286792 319.720755 449.286792 319.720755 
C 449.286792 319.720755 449.286792 319.720755 449.286792 319.720755 
C 449.286792 319.720755 449.286792 319.720755 449.286792 319.720755 
C 449.286792 319.720755 449.286792 319.720755 449.286792 319.720755 
C 449.286792 319.720755 449.286792 319.720755 449.286792 319.720755 
C 449.286792 319.720755 449.286792 319.720755 449.286792 319.720755 
z
" clip-path="url(#p3e9846cc97)" style="fill: #ffffff; stroke: #000000; stroke-width: 1.3; stroke-linejoin: miter"/>
   </g>
   <g id="patch_68">
    <path d="M 259.098113 40.381132 
C 263.826735 40.381132 268.36232 38.502431 271.705961 35.158791 
C 275.049601 31.815151 276.928302 27.279565 276.928302 22.550943 
C 276.928302 17.822322 275.049601 13.286736 271.705961 9.943096 
C 268.36232 6.599456 263.826735 4.720755 259.098113 4.720755 
C 254.369492 4.720755 249.833906 6.599456 246.490266 9.943096 
C 243.146626 13.286736 241.267925 17.822322 241.267925 22.550943 
C 241.267925 27.279565 243.146626 31.815151 246.490266 35.158791 
C 249.833906 38.502431 254.369492 40.381132 259.098113 40.381132 
z
" clip-path="url(#p3e9846cc97)" style="fill: #ab47bc; stroke: #000000; stroke-width: 1.3; stroke-linejoin: miter"/>
   </g>
   <g id="patch_69">
    <path d="M 21.362264 278.116981 
C 26.090885 278.116981 30.626471 276.23828 33.970111 272.89464 
C 37.313752 269.551 39.192453 265.015414 39.192453 260.286792 
C 39.192453 255.558171 37.313752 251.022585 33.970111 247.678945 
C 30.626471 244.335305 26.090885 242.456604 21.362264 242.456604 
C 16.633643 242.456604 12.098057 244.335305 8.754417 247.678945 
C 5.410777 251.022585 3.532075 255.558171 3.532075 260.286792 
C 3.532075 265.015414 5.410777 269.551 8.754417 272.89464 
C 12.098057 276.23828 16.633643 278.116981 21.362264 278.116981 
z
" clip-path="url(#p3e9846cc97)" style="fill: #78909c; stroke: #000000; stroke-width: 1.3; stroke-linejoin: miter"/>
   </g>
   <g id="text_1">
    <g clip-path="url(#p3e9846cc97)">
     <!-- 1 -->
     <g transform="translate(431.351719 206.241111)scale(0.22 -0.22)">
      <defs>
       <path id="UNAVAILABLE-31" d="M 3116 0 
L 550 0 
L 550 506 
L 1600 506 
L 1600 3488 
L 622 2956 
L 422 3419 
L 1722 4103 
L 2203 4103 
L 2203 506 
L 3116 506 
L 3116 0 
z
" transform="scale(0.015625)"/>
      </defs>
      <use xlink:href="#UNAVAILABLE-31"/>
     </g>
    </g>
   </g>
   <g id="text_2">
    <g clip-path="url(#p3e9846cc97)">
     <!-- 2 -->
     <g transform="translate(276.823417 479.637338)scale(0.22 -0.22)">
      <defs>
       <path id="UNAVAILABLE-32" d="M 3150 0 
L 459 0 
L 459 488 
L 1516 1538 
Q 1775 1794 1937 1981 
Q 2100 2169 2190 2323 
Q 2281 2478 2312 2615 
Q 2344 2753 2344 2913 
Q 2344 3063 2303 3198 
Q 2263 3334 2178 3437 
Q 2094 3541 1959 3600 
Q 1825 3659 1638 3659 
Q 1378 3659 1165 3543 
Q 953 3428 775 3244 
L 475 3603 
Q 706 3847 1007 3994 
Q 1309 4141 1709 4141 
Q 1981 4141 2204 4059 
Q 2428 3978 2590 3825 
Q 2753 3672 2842 3450 
Q 2931 3228 2931 2950 
Q 2931 2716 2868 2516 
Q 2806 2316 2679 2117 
Q 2553 1919 2361 1706 
Q 2169 1494 1906 1241 
L 1166 519 
L 3150 519 
L 3150 0 
z
" transform="scale(0.015625)"/>
      </defs>
      <use xlink:href="#UNAVAILABLE-32"/>
     </g>
    </g>
   </g>
   <g id="text_3">
    <g clip-path="url(#p3e9846cc97)">
     <!-- 1 -->
     <g transform="translate(360.030964 63.599602)scale(0.22 -0.22)">
      <use xlink:href="#UNAVAILABLE-31"/>
     </g>
    </g>
   </g>
   <g id="text_4">
    <g clip-path="url(#p3e9846cc97)">
     <!-- 1 -->
     <g transform="translate(193.61587 87.373187)scale(0.22 -0.22)">
      <use xlink:href="#UNAVAILABLE-31"/>
     </g>
    </g>
   </g>
   <g id="text_5">
    <g clip-path="url(#p3e9846cc97)">
     <!-- 2 -->
     <g transform="translate(443.238511 301.335451)scale(0.22 -0.22)">
      <use xlink:href="#UNAVAILABLE-32"/>
     </g>
    </g>
   </g>
   <g id="text_6">
    <g clip-path="url(#p3e9846cc97)">
     <!-- 2 -->
     <g transform="translate(217.389455 455.863753)scale(0.22 -0.22)">
      <use xlink:href="#UNAVAILABLE-32"/>
     </g>
    </g>
   </g>
   <g id="text_7">
    <g clip-path="url(#p3e9846cc97)">
     <!-- 1 -->
     <g transform="translate(431.351719 146.807149)scale(0.22 -0.22)">
      <use xlink:href="#UNAVAILABLE-31"/>
     </g>
    </g>
   </g>
   <g id="text_8">
    <g clip-path="url(#p3e9846cc97)">
     <!-- 2 -->
     <g transform="translate(74.747945 170.580734)scale(0.22 -0.22)">
      <use xlink:href="#UNAVAILABLE-32"/>
     </g>
    </g>
   </g>
   <g id="text_9">
    <g clip-path="url(#p3e9846cc97)">
     <!-- 1 -->
     <g transform="translate(253.049832 27.939225)scale(0.22 -0.22)">
      <use xlink:href="#UNAVAILABLE-31"/>
     </g>
    </g>
   </g>
   <g id="text_10">
    <g clip-path="url(#p3e9846cc97)">
     <!-- 2 -->
     <g transform="translate(15.313983 265.675074)scale(0.22 -0.22)">
      <use xlink:href="#UNAVAILABLE-32"/>
     </g>
    </g>
   </g>
   <g id="matplotlib.axis_1"/>
   <g id="matplotlib.axis_2"/>
  </g>
 </g>
 <defs>
  <clipPath id="p3e9846cc97">
   <rect x="-28.8" y="-28.8" width="528.249057" height="554.4"/>
  </clipPath>
 </defs>
</svg>
