<?xml version="1.0" encoding="utf-8" standalone="no"?>
<!DOCTYPE svg PUBLIC "-//W3C//DTD SVG 1.1//EN"
  "http://www.w3.org/Graphics/SVG/1.1/DTD/svg11.dtd">
<svg xmlns:xlink="http://www.w3.org/1999/xlink" width="460.8pt" height="345.6pt" viewBox="0 0 460.8 345.6" xmlns="http://www.w3.org/2000/svg" version="1.1">
 <metadata>
  <rdf:RDF xmlns:dc="http://purl.org/dc/elements/1.1/" xmlns:cc="http://creativecommons.org/ns#" xmlns:rdf="http://www.w3.org/1999/02/22-rdf-syntax-ns#">
   <cc:Work>
    <dc:type rdf:resource="http://purl.org/dc/dcmitype/StillImage"/>
    <dc:date>2023-09-01T14:19:13.110211</dc:date>
    <dc:format>image/svg+xml</dc:format>
    <dc:creator>
     <cc:Agent>
      <dc:title>Matplotlib v3.5.2, https://matplotlib.org/</dc:title>
     </cc:Agent>
    </dc:creator>
   </cc:Work>
  </rdf:RDF>
 </metadata>
 <defs>
  <style type="text/css">*{stroke-linejoin: round; stroke-linecap: butt}</style>
 </defs>
 <g id="figure_1">
  <g id="patch_1">
   <path d="M 0 345.6 
L 460.8 345.6 
L 460.8 0 
L 0 0 
z
" style="fill: #ffffff"/>
  </g>
  <g id="axes_1">
   <g id="patch_2">
    <path d="M 57.6 307.584 
L 414.72 307.584 
L 414.72 41.472 
L 57.6 41.472 
z
" style="fill: #ffffff"/>
   </g>
   <g id="matplotlib.axis_1">
    <g id="xtick_1">
     <g id="line2d_1">
      <path d="M 68.975052 307.584 
L 68.975052 41.472 
" clip-path="url(#pc7ca89d201)" style="fill: none; stroke-dasharray: 2.96,1.28; stroke-dashoffset: 0; stroke: #b0b0b0; stroke-opacity: 0.8; stroke-width: 0.8"/>
     </g>
     <g id="line2d_2">
      <defs>
       <path id="m7d8aa4dcb9" d="M 0 0 
L 0 3.5 
" style="stroke: #000000; stroke-width: 0.8"/>
      </defs>
      <g>
       <use xlink:href="#m7d8aa4dcb9" x="68.975052" y="307.584" style="stroke: #000000; stroke-width: 0.8"/>
      </g>
     </g>
     <g id="text_1">
      <!-- 0 -->
      <g transform="translate(65.67599 322.864)scale(0.12 -0.12)">
       <defs>
        <path id="UNAVAILABLE-30" d="M 3244 2041 
Q 3244 1572 3150 1186 
Q 3056 800 2865 523 
Q 2675 247 2392 95 
Q 2109 -56 1728 -56 
Q 1400 -56 1131 67 
Q 863 191 672 447 
Q 481 703 378 1100 
Q 275 1497 275 2041 
Q 275 2509 370 2896 
Q 466 3284 655 3561 
Q 844 3838 1128 3989 
Q 1413 4141 1791 4141 
Q 2119 4141 2387 4017 
Q 2656 3894 2847 3636 
Q 3038 3378 3141 2981 
Q 3244 2584 3244 2041 
z
M 2694 2022 
Q 2694 2128 2686 2233 
Q 2678 2338 2669 2438 
L 941 1153 
Q 988 991 1059 853 
Q 1131 716 1232 617 
Q 1334 519 1464 464 
Q 1594 409 1759 409 
Q 1972 409 2145 512 
Q 2319 616 2441 819 
Q 2563 1022 2628 1323 
Q 2694 1625 2694 2022 
z
M 825 2059 
Q 825 1963 826 1866 
Q 828 1769 838 1678 
L 2566 2956 
Q 2519 3116 2447 3247 
Q 2375 3378 2275 3473 
Q 2175 3569 2047 3622 
Q 1919 3675 1759 3675 
Q 1547 3675 1373 3572 
Q 1200 3469 1078 3264 
Q 956 3059 890 2757 
Q 825 2456 825 2059 
z
" transform="scale(0.015625)"/>
       </defs>
       <use xlink:href="#UNAVAILABLE-30"/>
      </g>
     </g>
    </g>
    <g id="xtick_2">
     <g id="line2d_3">
      <path d="M 123.166116 307.584 
L 123.166116 41.472 
" clip-path="url(#pc7ca89d201)" style="fill: none; stroke-dasharray: 2.96,1.28; stroke-dashoffset: 0; stroke: #b0b0b0; stroke-opacity: 0.8; stroke-width: 0.8"/>
     </g>
     <g id="line2d_4">
      <g>
       <use xlink:href="#m7d8aa4dcb9" x="123.166116" y="307.584" style="stroke: #000000; stroke-width: 0.8"/>
      </g>
     </g>
     <g id="text_2">
      <!-- 10 -->
      <g transform="translate(116.567991 322.864)scale(0.12 -0.12)">
       <defs>
        <path id="UNAVAILABLE-31" d="M 3116 0 
L 550 0 
L 550 506 
L 1600 506 
L 1600 3488 
L 622 2956 
L 422 3419 
L 1722 4103 
L 2203 4103 
L 2203 506 
L 3116 506 
L 3116 0 
z
" transform="scale(0.015625)"/>
       </defs>
       <use xlink:href="#UNAVAILABLE-31"/>
       <use xlink:href="#UNAVAILABLE-30" x="54.980469"/>
      </g>
     </g>
    </g>
    <g id="xtick_3">
     <g id="line2d_5">
      <path d="M 177.35718 307.584 
L 177.35718 41.472 
" clip-path="url(#pc7ca89d201)" style="fill: none; stroke-dasharray: 2.96,1.28; stroke-dashoffset: 0; stroke: #b0b0b0; stroke-opacity: 0.8; stroke-width: 0.8"/>
     </g>
     <g id="line2d_6">
      <g>
       <use xlink:href="#m7d8aa4dcb9" x="177.35718" y="307.584" style="stroke: #000000; stroke-width: 0.8"/>
      </g>
     </g>
     <g id="text_3">
      <!-- 20 -->
      <g transform="translate(170.759055 322.864)scale(0.12 -0.12)">
       <defs>
        <path id="UNAVAILABLE-32" d="M 3150 0 
L 459 0 
L 459 488 
L 1516 1538 
Q 1775 1794 1937 1981 
Q 2100 2169 2190 2323 
Q 2281 2478 2312 2615 
Q 2344 2753 2344 2913 
Q 2344 3063 2303 3198 
Q 2263 3334 2178 3437 
Q 2094 3541 1959 3600 
Q 1825 3659 1638 3659 
Q 1378 3659 1165 3543 
Q 953 3428 775 3244 
L 475 3603 
Q 706 3847 1007 3994 
Q 1309 4141 1709 4141 
Q 1981 4141 2204 4059 
Q 2428 3978 2590 3825 
Q 2753 3672 2842 3450 
Q 2931 3228 2931 2950 
Q 2931 2716 2868 2516 
Q 2806 2316 2679 2117 
Q 2553 1919 2361 1706 
Q 2169 1494 1906 1241 
L 1166 519 
L 3150 519 
L 3150 0 
z
" transform="scale(0.015625)"/>
       </defs>
       <use xlink:href="#UNAVAILABLE-32"/>
       <use xlink:href="#UNAVAILABLE-30" x="54.980469"/>
      </g>
     </g>
    </g>
    <g id="xtick_4">
     <g id="line2d_7">
      <path d="M 231.548244 307.584 
L 231.548244 41.472 
" clip-path="url(#pc7ca89d201)" style="fill: none; stroke-dasharray: 2.96,1.28; stroke-dashoffset: 0; stroke: #b0b0b0; stroke-opacity: 0.8; stroke-width: 0.8"/>
     </g>
     <g id="line2d_8">
      <g>
       <use xlink:href="#m7d8aa4dcb9" x="231.548244" y="307.584" style="stroke: #000000; stroke-width: 0.8"/>
      </g>
     </g>
     <g id="text_4">
      <!-- 30 -->
      <g transform="translate(224.950119 322.864)scale(0.12 -0.12)">
       <defs>
        <path id="UNAVAILABLE-33" d="M 3072 1241 
Q 3072 972 2962 736 
Q 2853 500 2634 323 
Q 2416 147 2084 45 
Q 1753 -56 1313 -56 
Q 1069 -56 875 -40 
Q 681 -25 513 0 
L 513 488 
Q 706 453 922 434 
Q 1138 416 1363 416 
Q 1669 416 1886 470 
Q 2103 525 2240 628 
Q 2378 731 2440 878 
Q 2503 1025 2503 1209 
Q 2503 1378 2428 1503 
Q 2353 1628 2217 1712 
Q 2081 1797 1892 1839 
Q 1703 1881 1478 1881 
L 1013 1881 
L 1013 2328 
L 1484 2328 
Q 1669 2328 1820 2376 
Q 1972 2425 2080 2515 
Q 2188 2606 2245 2739 
Q 2303 2872 2303 3041 
Q 2303 3369 2103 3519 
Q 1903 3669 1516 3669 
Q 1309 3669 1090 3628 
Q 872 3588 622 3506 
L 622 3981 
Q 728 4019 848 4048 
Q 969 4078 1089 4098 
Q 1209 4119 1328 4130 
Q 1447 4141 1556 4141 
Q 1881 4141 2128 4070 
Q 2375 4000 2540 3869 
Q 2706 3738 2790 3550 
Q 2875 3363 2875 3128 
Q 2875 2778 2695 2540 
Q 2516 2303 2203 2163 
Q 2363 2138 2517 2063 
Q 2672 1988 2795 1870 
Q 2919 1753 2995 1593 
Q 3072 1434 3072 1241 
z
" transform="scale(0.015625)"/>
       </defs>
       <use xlink:href="#UNAVAILABLE-33"/>
       <use xlink:href="#UNAVAILABLE-30" x="54.980469"/>
      </g>
     </g>
    </g>
    <g id="xtick_5">
     <g id="line2d_9">
      <path d="M 285.739308 307.584 
L 285.739308 41.472 
" clip-path="url(#pc7ca89d201)" style="fill: none; stroke-dasharray: 2.96,1.28; stroke-dashoffset: 0; stroke: #b0b0b0; stroke-opacity: 0.8; stroke-width: 0.8"/>
     </g>
     <g id="line2d_10">
      <g>
       <use xlink:href="#m7d8aa4dcb9" x="285.739308" y="307.584" style="stroke: #000000; stroke-width: 0.8"/>
      </g>
     </g>
     <g id="text_5">
      <!-- 40 -->
      <g transform="translate(279.141183 322.864)scale(0.12 -0.12)">
       <defs>
        <path id="UNAVAILABLE-34" d="M 3353 903 
L 2656 903 
L 2656 0 
L 2100 0 
L 2100 903 
L 134 903 
L 134 1381 
L 1875 4084 
L 2656 4084 
L 2656 1381 
L 3353 1381 
L 3353 903 
z
M 2100 3559 
L 678 1381 
L 2100 1381 
L 2100 3559 
z
" transform="scale(0.015625)"/>
       </defs>
       <use xlink:href="#UNAVAILABLE-34"/>
       <use xlink:href="#UNAVAILABLE-30" x="54.980469"/>
      </g>
     </g>
    </g>
    <g id="xtick_6">
     <g id="line2d_11">
      <path d="M 339.930372 307.584 
L 339.930372 41.472 
" clip-path="url(#pc7ca89d201)" style="fill: none; stroke-dasharray: 2.96,1.28; stroke-dashoffset: 0; stroke: #b0b0b0; stroke-opacity: 0.8; stroke-width: 0.8"/>
     </g>
     <g id="line2d_12">
      <g>
       <use xlink:href="#m7d8aa4dcb9" x="339.930372" y="307.584" style="stroke: #000000; stroke-width: 0.8"/>
      </g>
     </g>
     <g id="text_6">
      <!-- 50 -->
      <g transform="translate(333.332247 322.864)scale(0.12 -0.12)">
       <defs>
        <path id="UNAVAILABLE-35" d="M 3047 1306 
Q 3047 1003 2915 753 
Q 2784 503 2554 323 
Q 2325 144 2012 44 
Q 1700 -56 1338 -56 
Q 1247 -56 1142 -51 
Q 1038 -47 934 -39 
Q 831 -31 732 -22 
Q 634 -13 556 0 
L 556 494 
Q 725 453 942 434 
Q 1159 416 1381 416 
Q 1631 416 1831 475 
Q 2031 534 2172 645 
Q 2313 756 2388 914 
Q 2463 1072 2463 1269 
Q 2463 1650 2189 1823 
Q 1916 1997 1403 1997 
L 628 1997 
L 628 4084 
L 2828 4084 
L 2828 3609 
L 1141 3609 
L 1141 2463 
L 1497 2463 
Q 1791 2463 2069 2409 
Q 2347 2356 2564 2223 
Q 2781 2091 2914 1867 
Q 3047 1644 3047 1306 
z
" transform="scale(0.015625)"/>
       </defs>
       <use xlink:href="#UNAVAILABLE-35"/>
       <use xlink:href="#UNAVAILABLE-30" x="54.980469"/>
      </g>
     </g>
    </g>
    <g id="xtick_7">
     <g id="line2d_13">
      <path d="M 394.121436 307.584 
L 394.121436 41.472 
" clip-path="url(#pc7ca89d201)" style="fill: none; stroke-dasharray: 2.96,1.28; stroke-dashoffset: 0; stroke: #b0b0b0; stroke-opacity: 0.8; stroke-width: 0.8"/>
     </g>
     <g id="line2d_14">
      <g>
       <use xlink:href="#m7d8aa4dcb9" x="394.121436" y="307.584" style="stroke: #000000; stroke-width: 0.8"/>
      </g>
     </g>
     <g id="text_7">
      <!-- 60 -->
      <g transform="translate(387.523311 322.864)scale(0.12 -0.12)">
       <defs>
        <path id="UNAVAILABLE-36" d="M 3200 1294 
Q 3200 1013 3098 766 
Q 2997 519 2809 336 
Q 2622 153 2358 48 
Q 2094 -56 1772 -56 
Q 1434 -56 1175 51 
Q 916 159 741 382 
Q 566 606 475 947 
Q 384 1288 384 1753 
Q 384 2066 425 2359 
Q 466 2653 559 2912 
Q 653 3172 809 3387 
Q 966 3603 1198 3758 
Q 1431 3913 1747 3998 
Q 2063 4084 2478 4084 
L 2881 4084 
L 2881 3609 
L 2444 3609 
Q 2078 3609 1809 3521 
Q 1541 3434 1359 3275 
Q 1178 3116 1081 2891 
Q 984 2666 959 2388 
L 947 2259 
Q 1144 2375 1401 2445 
Q 1659 2516 1959 2516 
Q 2269 2516 2501 2425 
Q 2734 2334 2889 2173 
Q 3044 2013 3122 1788 
Q 3200 1563 3200 1294 
z
M 2631 1259 
Q 2631 1447 2586 1598 
Q 2541 1750 2444 1854 
Q 2347 1959 2198 2017 
Q 2050 2075 1844 2075 
Q 1725 2075 1603 2053 
Q 1481 2031 1364 1992 
Q 1247 1953 1140 1903 
Q 1034 1853 947 1797 
Q 947 1394 1003 1123 
Q 1059 853 1170 690 
Q 1281 528 1443 459 
Q 1606 391 1819 391 
Q 1997 391 2145 448 
Q 2294 506 2401 618 
Q 2509 731 2570 892 
Q 2631 1053 2631 1259 
z
" transform="scale(0.015625)"/>
       </defs>
       <use xlink:href="#UNAVAILABLE-36"/>
       <use xlink:href="#UNAVAILABLE-30" x="54.980469"/>
      </g>
     </g>
    </g>
    <g id="text_8">
     <!-- 运行时间(秒) -->
     <g transform="translate(199.561875 339.2915)scale(0.12 -0.12)">
      <defs>
       <path id="UNAVAILABLE-8fd0" d="M 4319 2197 
L 4713 2447 
Q 5419 1522 5963 666 
L 5513 359 
Q 5372 597 5225 834 
Q 3450 722 2681 622 
Q 2469 591 2238 516 
L 2006 966 
Q 2250 1134 2413 1366 
Q 2838 2009 3250 2859 
L 1919 2859 
L 1919 3334 
L 6200 3334 
L 6200 2859 
L 3844 2859 
Q 3303 1866 2800 1116 
Q 3750 1172 4959 1253 
Q 4650 1731 4319 2197 
z
M 2756 -141 
L 4588 -178 
L 6313 -109 
Q 6206 -366 6113 -609 
L 4250 -622 
L 2650 -603 
Q 1656 -578 1156 122 
Q 769 -209 369 -697 
L 100 -166 
Q 116 -147 931 547 
L 931 2678 
L 131 2678 
L 131 3141 
L 1431 3141 
L 1431 459 
Q 1903 -125 2756 -141 
z
M 2338 4947 
L 5838 4947 
L 5838 4472 
L 2338 4472 
L 2338 4947 
z
M 794 5278 
Q 1275 4697 1744 4078 
L 1300 3778 
Q 881 4403 413 5003 
L 794 5278 
z
" transform="scale(0.015625)"/>
       <path id="UNAVAILABLE-884c" d="M 2363 2978 
L 6319 2978 
L 6319 2509 
L 5106 2509 
L 5106 66 
Q 5106 -709 4325 -709 
Q 3800 -709 3256 -703 
Q 3219 -453 3163 -141 
Q 3650 -191 4144 -191 
Q 4575 -191 4575 234 
L 4575 2509 
L 2363 2509 
L 2363 2978 
z
M 100 1578 
Q 1069 2372 1863 3809 
L 2300 3541 
Q 1978 2984 1619 2500 
L 1619 -809 
L 1100 -809 
L 1100 1856 
Q 725 1431 319 1072 
Q 219 1334 100 1578 
z
M 2725 4866 
L 5969 4866 
L 5969 4397 
L 2725 4397 
L 2725 4866 
z
M 131 3559 
Q 1125 4328 1731 5347 
L 2181 5072 
Q 1456 3959 381 3078 
Q 269 3316 131 3559 
z
" transform="scale(0.015625)"/>
       <path id="UNAVAILABLE-65f6" d="M 344 4728 
L 2500 4728 
L 2500 -366 
L 2006 -366 
L 2006 153 
L 838 153 
L 838 -441 
L 344 -441 
L 344 4728 
z
M 2706 3941 
L 4925 3941 
L 4925 5322 
L 5425 5322 
L 5425 3941 
L 6313 3941 
L 6313 3478 
L 5425 3478 
L 5425 116 
Q 5425 -722 4625 -722 
Q 4263 -722 3563 -703 
Q 3531 -478 3463 -178 
Q 4119 -228 4488 -228 
Q 4925 -228 4925 216 
L 4925 3478 
L 2706 3478 
L 2706 3941 
z
M 838 616 
L 2006 616 
L 2006 2234 
L 838 2234 
L 838 616 
z
M 2006 4266 
L 838 4266 
L 838 2684 
L 2006 2684 
L 2006 4266 
z
M 3406 2878 
Q 3906 1966 4163 1422 
Q 4000 1347 3663 1172 
Q 3419 1766 2963 2653 
L 3406 2878 
z
" transform="scale(0.015625)"/>
       <path id="UNAVAILABLE-95f4" d="M 1863 3647 
L 4513 3647 
L 4513 553 
L 2313 553 
L 2313 166 
L 1863 166 
L 1863 3647 
z
M 2388 4453 
L 2388 4922 
L 6013 4922 
L 6013 -28 
Q 6013 -816 5119 -816 
Q 4756 -816 4169 -803 
Q 4144 -616 4069 -297 
Q 4588 -334 5056 -334 
Q 5525 -334 5525 122 
L 5525 4453 
L 2388 4453 
z
M 419 4084 
L 906 4084 
L 906 -816 
L 419 -816 
L 419 4084 
z
M 2313 997 
L 4063 997 
L 4063 1884 
L 2313 1884 
L 2313 997 
z
M 4063 3203 
L 2313 3203 
L 2313 2328 
L 4063 2328 
L 4063 3203 
z
M 744 5003 
L 1100 5322 
Q 1575 4872 1981 4447 
L 1575 4091 
Q 1194 4541 744 5003 
z
" transform="scale(0.015625)"/>
       <path id="UNAVAILABLE-28" d="M 2378 -1313 
Q 938 22 938 1638 
Q 938 2016 1014 2392 
Q 1091 2769 1261 3147 
Q 1431 3525 1711 3903 
Q 1991 4281 2391 4653 
L 2706 4331 
Q 1494 3134 1494 1678 
Q 1494 953 1800 284 
Q 2106 -384 2706 -978 
L 2378 -1313 
z
" transform="scale(0.015625)"/>
       <path id="UNAVAILABLE-79d2" d="M 44 903 
Q 616 1744 978 3059 
L 113 3059 
L 113 3484 
L 1100 3484 
L 1100 4456 
Q 703 4400 281 4353 
Q 231 4566 150 4784 
Q 1244 4878 2344 5128 
L 2481 4691 
Q 2041 4603 1563 4525 
L 1563 3484 
L 2438 3484 
L 2438 3059 
L 1563 3059 
L 1563 2178 
L 1844 2422 
Q 2094 2166 2575 1603 
L 2200 1297 
Q 1809 1794 1563 2088 
L 1563 -822 
L 1100 -822 
L 1100 2175 
Q 766 1059 256 359 
Q 156 628 44 903 
z
M 1944 -316 
Q 4481 253 5594 2284 
L 6025 2003 
Q 4756 -141 2206 -766 
Q 2088 -534 1944 -316 
z
M 4025 5278 
L 4513 5278 
L 4513 1328 
L 4025 1328 
L 4025 5278 
z
M 3075 4266 
L 3544 4141 
Q 3275 3078 2906 1997 
Q 2681 2097 2425 2172 
Q 2850 3247 3075 4266 
z
M 4950 4141 
L 5375 4341 
Q 5856 3566 6281 2722 
L 5831 2484 
Q 5444 3328 4950 4141 
z
" transform="scale(0.015625)"/>
       <path id="UNAVAILABLE-29" d="M 1141 4653 
Q 2581 3319 2581 1684 
Q 2581 1347 2512 984 
Q 2444 622 2278 242 
Q 2113 -138 1833 -528 
Q 1553 -919 1128 -1313 
L 813 -991 
Q 1422 -388 1722 268 
Q 2022 925 2022 1644 
Q 2022 3131 813 4319 
L 1141 4653 
z
" transform="scale(0.015625)"/>
      </defs>
      <use xlink:href="#UNAVAILABLE-8fd0"/>
      <use xlink:href="#UNAVAILABLE-884c" x="100"/>
      <use xlink:href="#UNAVAILABLE-65f6" x="200"/>
      <use xlink:href="#UNAVAILABLE-95f4" x="300"/>
      <use xlink:href="#UNAVAILABLE-28" x="400"/>
      <use xlink:href="#UNAVAILABLE-79d2" x="454.980469"/>
      <use xlink:href="#UNAVAILABLE-29" x="554.980469"/>
     </g>
    </g>
   </g>
   <g id="matplotlib.axis_2">
    <g id="ytick_1">
     <g id="line2d_15">
      <path d="M 57.6 288.643436 
L 414.72 288.643436 
" clip-path="url(#pc7ca89d201)" style="fill: none; stroke-dasharray: 2.96,1.28; stroke-dashoffset: 0; stroke: #b0b0b0; stroke-opacity: 0.8; stroke-width: 0.8"/>
     </g>
     <g id="line2d_16">
      <defs>
       <path id="m0c68999a74" d="M 0 0 
L -3.5 0 
" style="stroke: #000000; stroke-width: 0.8"/>
      </defs>
      <g>
       <use xlink:href="#m0c68999a74" x="57.6" y="288.643436" style="stroke: #000000; stroke-width: 0.8"/>
      </g>
     </g>
     <g id="text_9">
      <!-- 7.5 -->
      <g transform="translate(30.805625 292.783436)scale(0.12 -0.12)">
       <defs>
        <path id="UNAVAILABLE-37" d="M 3128 3578 
L 1416 0 
L 794 0 
L 2572 3578 
L 366 3578 
L 366 4084 
L 3128 4084 
L 3128 3578 
z
" transform="scale(0.015625)"/>
        <path id="UNAVAILABLE-2e" d="M 1734 984 
Q 1841 984 1936 943 
Q 2031 903 2101 831 
Q 2172 759 2212 664 
Q 2253 569 2253 459 
Q 2253 353 2212 259 
Q 2172 166 2101 95 
Q 2031 25 1936 -15 
Q 1841 -56 1734 -56 
Q 1625 -56 1531 -15 
Q 1438 25 1367 95 
Q 1297 166 1256 259 
Q 1216 353 1216 459 
Q 1216 569 1256 664 
Q 1297 759 1367 831 
Q 1438 903 1531 943 
Q 1625 984 1734 984 
z
" transform="scale(0.015625)"/>
       </defs>
       <use xlink:href="#UNAVAILABLE-37"/>
       <use xlink:href="#UNAVAILABLE-2e" x="54.980469"/>
       <use xlink:href="#UNAVAILABLE-35" x="109.960938"/>
      </g>
     </g>
    </g>
    <g id="ytick_2">
     <g id="line2d_17">
      <path d="M 57.6 258.611633 
L 414.72 258.611633 
" clip-path="url(#pc7ca89d201)" style="fill: none; stroke-dasharray: 2.96,1.28; stroke-dashoffset: 0; stroke: #b0b0b0; stroke-opacity: 0.8; stroke-width: 0.8"/>
     </g>
     <g id="line2d_18">
      <g>
       <use xlink:href="#m0c68999a74" x="57.6" y="258.611633" style="stroke: #000000; stroke-width: 0.8"/>
      </g>
     </g>
     <g id="text_10">
      <!-- 10.0 -->
      <g transform="translate(24.2075 262.751633)scale(0.12 -0.12)">
       <use xlink:href="#UNAVAILABLE-31"/>
       <use xlink:href="#UNAVAILABLE-30" x="54.980469"/>
       <use xlink:href="#UNAVAILABLE-2e" x="109.960938"/>
       <use xlink:href="#UNAVAILABLE-30" x="164.941406"/>
      </g>
     </g>
    </g>
    <g id="ytick_3">
     <g id="line2d_19">
      <path d="M 57.6 228.579831 
L 414.72 228.579831 
" clip-path="url(#pc7ca89d201)" style="fill: none; stroke-dasharray: 2.96,1.28; stroke-dashoffset: 0; stroke: #b0b0b0; stroke-opacity: 0.8; stroke-width: 0.8"/>
     </g>
     <g id="line2d_20">
      <g>
       <use xlink:href="#m0c68999a74" x="57.6" y="228.579831" style="stroke: #000000; stroke-width: 0.8"/>
      </g>
     </g>
     <g id="text_11">
      <!-- 12.5 -->
      <g transform="translate(24.2075 232.719831)scale(0.12 -0.12)">
       <use xlink:href="#UNAVAILABLE-31"/>
       <use xlink:href="#UNAVAILABLE-32" x="54.980469"/>
       <use xlink:href="#UNAVAILABLE-2e" x="109.960938"/>
       <use xlink:href="#UNAVAILABLE-35" x="164.941406"/>
      </g>
     </g>
    </g>
    <g id="ytick_4">
     <g id="line2d_21">
      <path d="M 57.6 198.548028 
L 414.72 198.548028 
" clip-path="url(#pc7ca89d201)" style="fill: none; stroke-dasharray: 2.96,1.28; stroke-dashoffset: 0; stroke: #b0b0b0; stroke-opacity: 0.8; stroke-width: 0.8"/>
     </g>
     <g id="line2d_22">
      <g>
       <use xlink:href="#m0c68999a74" x="57.6" y="198.548028" style="stroke: #000000; stroke-width: 0.8"/>
      </g>
     </g>
     <g id="text_12">
      <!-- 15.0 -->
      <g transform="translate(24.2075 202.688028)scale(0.12 -0.12)">
       <use xlink:href="#UNAVAILABLE-31"/>
       <use xlink:href="#UNAVAILABLE-35" x="54.980469"/>
       <use xlink:href="#UNAVAILABLE-2e" x="109.960938"/>
       <use xlink:href="#UNAVAILABLE-30" x="164.941406"/>
      </g>
     </g>
    </g>
    <g id="ytick_5">
     <g id="line2d_23">
      <path d="M 57.6 168.516225 
L 414.72 168.516225 
" clip-path="url(#pc7ca89d201)" style="fill: none; stroke-dasharray: 2.96,1.28; stroke-dashoffset: 0; stroke: #b0b0b0; stroke-opacity: 0.8; stroke-width: 0.8"/>
     </g>
     <g id="line2d_24">
      <g>
       <use xlink:href="#m0c68999a74" x="57.6" y="168.516225" style="stroke: #000000; stroke-width: 0.8"/>
      </g>
     </g>
     <g id="text_13">
      <!-- 17.5 -->
      <g transform="translate(24.2075 172.656225)scale(0.12 -0.12)">
       <use xlink:href="#UNAVAILABLE-31"/>
       <use xlink:href="#UNAVAILABLE-37" x="54.980469"/>
       <use xlink:href="#UNAVAILABLE-2e" x="109.960938"/>
       <use xlink:href="#UNAVAILABLE-35" x="164.941406"/>
      </g>
     </g>
    </g>
    <g id="ytick_6">
     <g id="line2d_25">
      <path d="M 57.6 138.484422 
L 414.72 138.484422 
" clip-path="url(#pc7ca89d201)" style="fill: none; stroke-dasharray: 2.96,1.28; stroke-dashoffset: 0; stroke: #b0b0b0; stroke-opacity: 0.8; stroke-width: 0.8"/>
     </g>
     <g id="line2d_26">
      <g>
       <use xlink:href="#m0c68999a74" x="57.6" y="138.484422" style="stroke: #000000; stroke-width: 0.8"/>
      </g>
     </g>
     <g id="text_14">
      <!-- 20.0 -->
      <g transform="translate(24.2075 142.624422)scale(0.12 -0.12)">
       <use xlink:href="#UNAVAILABLE-32"/>
       <use xlink:href="#UNAVAILABLE-30" x="54.980469"/>
       <use xlink:href="#UNAVAILABLE-2e" x="109.960938"/>
       <use xlink:href="#UNAVAILABLE-30" x="164.941406"/>
      </g>
     </g>
    </g>
    <g id="ytick_7">
     <g id="line2d_27">
      <path d="M 57.6 108.452619 
L 414.72 108.452619 
" clip-path="url(#pc7ca89d201)" style="fill: none; stroke-dasharray: 2.96,1.28; stroke-dashoffset: 0; stroke: #b0b0b0; stroke-opacity: 0.8; stroke-width: 0.8"/>
     </g>
     <g id="line2d_28">
      <g>
       <use xlink:href="#m0c68999a74" x="57.6" y="108.452619" style="stroke: #000000; stroke-width: 0.8"/>
      </g>
     </g>
     <g id="text_15">
      <!-- 22.5 -->
      <g transform="translate(24.2075 112.592619)scale(0.12 -0.12)">
       <use xlink:href="#UNAVAILABLE-32"/>
       <use xlink:href="#UNAVAILABLE-32" x="54.980469"/>
       <use xlink:href="#UNAVAILABLE-2e" x="109.960938"/>
       <use xlink:href="#UNAVAILABLE-35" x="164.941406"/>
      </g>
     </g>
    </g>
    <g id="ytick_8">
     <g id="line2d_29">
      <path d="M 57.6 78.420816 
L 414.72 78.420816 
" clip-path="url(#pc7ca89d201)" style="fill: none; stroke-dasharray: 2.96,1.28; stroke-dashoffset: 0; stroke: #b0b0b0; stroke-opacity: 0.8; stroke-width: 0.8"/>
     </g>
     <g id="line2d_30">
      <g>
       <use xlink:href="#m0c68999a74" x="57.6" y="78.420816" style="stroke: #000000; stroke-width: 0.8"/>
      </g>
     </g>
     <g id="text_16">
      <!-- 25.0 -->
      <g transform="translate(24.2075 82.560816)scale(0.12 -0.12)">
       <use xlink:href="#UNAVAILABLE-32"/>
       <use xlink:href="#UNAVAILABLE-35" x="54.980469"/>
       <use xlink:href="#UNAVAILABLE-2e" x="109.960938"/>
       <use xlink:href="#UNAVAILABLE-30" x="164.941406"/>
      </g>
     </g>
    </g>
    <g id="ytick_9">
     <g id="line2d_31">
      <path d="M 57.6 48.389014 
L 414.72 48.389014 
" clip-path="url(#pc7ca89d201)" style="fill: none; stroke-dasharray: 2.96,1.28; stroke-dashoffset: 0; stroke: #b0b0b0; stroke-opacity: 0.8; stroke-width: 0.8"/>
     </g>
     <g id="line2d_32">
      <g>
       <use xlink:href="#m0c68999a74" x="57.6" y="48.389014" style="stroke: #000000; stroke-width: 0.8"/>
      </g>
     </g>
     <g id="text_17">
      <!-- 27.5 -->
      <g transform="translate(24.2075 52.529014)scale(0.12 -0.12)">
       <use xlink:href="#UNAVAILABLE-32"/>
       <use xlink:href="#UNAVAILABLE-37" x="54.980469"/>
       <use xlink:href="#UNAVAILABLE-2e" x="109.960938"/>
       <use xlink:href="#UNAVAILABLE-35" x="164.941406"/>
      </g>
     </g>
    </g>
    <g id="text_18">
     <!-- 目标值(分钟) -->
     <g transform="translate(17.745625 211.126125)rotate(-90)scale(0.12 -0.12)">
      <defs>
       <path id="UNAVAILABLE-76ee" d="M 944 5016 
L 5469 5016 
L 5469 -772 
L 4938 -772 
L 4938 -303 
L 1475 -303 
L 1475 -772 
L 944 -772 
L 944 5016 
z
M 1475 1341 
L 1475 159 
L 4938 159 
L 4938 1341 
L 1475 1341 
z
M 1475 2947 
L 1475 1778 
L 4938 1778 
L 4938 2947 
L 1475 2947 
z
M 1475 4553 
L 1475 3384 
L 4938 3384 
L 4938 4553 
L 1475 4553 
z
" transform="scale(0.015625)"/>
       <path id="UNAVAILABLE-6807" d="M 75 1409 
Q 769 2478 1025 3647 
L 119 3647 
L 119 4072 
L 1069 4072 
L 1069 5297 
L 1506 5297 
L 1506 4072 
L 2356 4072 
L 2356 3647 
L 1506 3647 
L 1506 2541 
L 1775 2822 
Q 2175 2478 2481 2159 
L 2150 1816 
Q 1850 2156 1506 2503 
L 1506 -797 
L 1069 -797 
L 1069 2588 
Q 738 1513 281 859 
Q 194 1128 75 1409 
z
M 2350 3097 
L 6250 3097 
L 6250 2659 
L 4525 2659 
L 4525 47 
Q 4525 -734 3806 -734 
Q 3469 -741 2975 -728 
Q 2944 -503 2888 -209 
Q 3319 -259 3675 -259 
Q 4050 -259 4050 203 
L 4050 2659 
L 2350 2659 
L 2350 3097 
z
M 2638 4928 
L 5963 4928 
L 5963 4491 
L 2638 4491 
L 2638 4928 
z
M 4938 1853 
L 5381 2066 
Q 5975 928 6369 72 
L 5869 -147 
Q 5463 822 4938 1853 
z
M 2931 2066 
L 3400 1878 
Q 2888 734 2381 -153 
Q 2188 -41 1925 66 
Q 2425 872 2931 2066 
z
" transform="scale(0.015625)"/>
       <path id="UNAVAILABLE-503c" d="M 1619 -216 
L 2250 -216 
L 2250 3653 
L 3725 3653 
L 3725 4222 
L 1913 4222 
L 1913 4647 
L 3725 4647 
L 3725 5309 
L 4200 5309 
L 4200 4647 
L 6169 4647 
L 6169 4222 
L 4200 4222 
L 4200 3653 
L 5713 3653 
L 5713 -216 
L 6306 -216 
L 6306 -641 
L 1619 -641 
L 1619 -216 
z
M 69 2247 
Q 906 3497 1369 5278 
L 1831 5141 
Q 1581 4334 1288 3628 
L 1288 -816 
L 831 -816 
L 831 2666 
Q 563 2166 263 1734 
Q 175 1997 69 2247 
z
M 2713 -216 
L 5250 -216 
L 5250 353 
L 2713 353 
L 2713 -216 
z
M 5250 3241 
L 2713 3241 
L 2713 2678 
L 5250 2678 
L 5250 3241 
z
M 2713 1716 
L 5250 1716 
L 5250 2278 
L 2713 2278 
L 2713 1716 
z
M 2713 753 
L 5250 753 
L 5250 1316 
L 2713 1316 
L 2713 753 
z
" transform="scale(0.015625)"/>
       <path id="UNAVAILABLE-5206" d="M 900 2559 
L 5056 2559 
Q 5025 1497 4963 484 
Q 4888 -684 3856 -678 
Q 3350 -684 2788 -647 
Q 2750 -384 2700 -116 
Q 3181 -184 3775 -191 
Q 4400 -203 4463 541 
Q 4513 1216 4538 2097 
L 2616 2097 
Q 2541 1053 2181 416 
Q 1706 -422 588 -878 
Q 425 -666 231 -459 
Q 1269 -72 1725 666 
Q 2053 1225 2103 2097 
L 900 2097 
L 900 2559 
z
M 3488 5159 
L 3938 5353 
Q 4625 3678 6350 2847 
Q 6069 2553 5944 2372 
Q 4225 3366 3488 5159 
z
M 50 2766 
Q 1338 3678 2250 5253 
L 2694 5009 
Q 1744 3347 413 2341 
Q 281 2534 50 2766 
z
" transform="scale(0.015625)"/>
       <path id="UNAVAILABLE-949f" d="M 2663 4091 
L 4094 4091 
L 4094 5303 
L 4569 5303 
L 4569 4091 
L 6000 4091 
L 6000 1091 
L 5538 1091 
L 5538 1384 
L 4569 1384 
L 4569 -822 
L 4094 -822 
L 4094 1384 
L 3125 1384 
L 3125 1091 
L 2663 1091 
L 2663 4091 
z
M 2294 566 
Q 2294 291 2325 47 
Q 1925 -147 1394 -466 
Q 1281 -528 1131 -678 
L 800 -247 
Q 1000 -53 1000 222 
L 1000 1584 
L 144 1584 
L 144 2016 
L 1000 2016 
L 1000 2859 
L 563 2859 
L 563 3281 
Q 444 3094 319 2903 
Q 200 3128 56 3328 
Q 700 4278 1056 5341 
L 1525 5184 
Q 1363 4781 1166 4378 
L 2388 4378 
L 2388 3947 
L 944 3947 
Q 769 3619 566 3291 
L 2238 3291 
L 2238 2859 
L 1456 2859 
L 1456 2016 
L 2388 2016 
L 2388 1584 
L 1456 1584 
L 1456 97 
Q 1913 341 2294 566 
z
M 5538 3653 
L 4569 3653 
L 4569 1822 
L 5538 1822 
L 5538 3653 
z
M 3125 1822 
L 4094 1822 
L 4094 3653 
L 3125 3653 
L 3125 1822 
z
" transform="scale(0.015625)"/>
      </defs>
      <use xlink:href="#UNAVAILABLE-76ee"/>
      <use xlink:href="#UNAVAILABLE-6807" x="100"/>
      <use xlink:href="#UNAVAILABLE-503c" x="200"/>
      <use xlink:href="#UNAVAILABLE-28" x="300"/>
      <use xlink:href="#UNAVAILABLE-5206" x="354.980469"/>
      <use xlink:href="#UNAVAILABLE-949f" x="454.980469"/>
      <use xlink:href="#UNAVAILABLE-29" x="554.980469"/>
     </g>
    </g>
   </g>
   <g id="line2d_33">
    <path d="M 73.832727 53.568 
L 94.863322 53.568 
L 97.048671 53.568 
L 102.029487 53.568 
L 114.914517 53.568 
L 127.780476 53.568 
L 128.089441 53.568 
L 129.100637 178.10822 
L 130.596113 178.10822 
L 131.203198 178.10822 
L 132.216793 178.10822 
L 136.678647 178.10822 
L 143.926185 184.75991 
L 145.481817 184.75991 
L 146.614703 184.75991 
L 147.801763 184.75991 
L 161.880406 236.69074 
L 163.092591 237.375107 
L 167.263703 275.071433 
L 171.616231 276.024857 
L 176.42464 280.629701 
L 182.435232 288.057382 
L 187.934709 292.492471 
L 191.129472 293.084066 
L 195.299126 293.257411 
L 198.408037 293.257411 
L 203.699265 293.869744 
L 209.322498 293.96849 
L 214.251475 293.96849 
L 218.80167 293.96849 
L 221.245044 293.96849 
L 231.103677 294.23815 
L 237.425483 295.430434 
L 242.778751 295.488 
L 248.48564 295.488 
L 251.443087 295.488 
L 255.550559 295.488 
L 269.009949 295.488 
L 280.576705 295.488 
L 284.716982 295.488 
L 289.777579 295.488 
L 296.788471 295.488 
L 310.793204 295.488 
L 322.703288 295.488 
L 339.30996 295.488 
L 352.05144 295.488 
L 364.159009 295.488 
L 377.890657 295.488 
L 398.487273 295.488 
" clip-path="url(#pc7ca89d201)" style="fill: none; stroke: #ab47bc; stroke-width: 2; stroke-linecap: square"/>
   </g>
   <g id="patch_3">
    <path d="M 57.6 307.584 
L 57.6 41.472 
" style="fill: none; stroke: #000000; stroke-width: 0.8; stroke-linejoin: miter; stroke-linecap: square"/>
   </g>
   <g id="patch_4">
    <path d="M 414.72 307.584 
L 414.72 41.472 
" style="fill: none; stroke: #000000; stroke-width: 0.8; stroke-linejoin: miter; stroke-linecap: square"/>
   </g>
   <g id="patch_5">
    <path d="M 57.6 307.584 
L 414.72 307.584 
" style="fill: none; stroke: #000000; stroke-width: 0.8; stroke-linejoin: miter; stroke-linecap: square"/>
   </g>
   <g id="patch_6">
    <path d="M 57.6 41.472 
L 414.72 41.472 
" style="fill: none; stroke: #000000; stroke-width: 0.8; stroke-linejoin: miter; stroke-linecap: square"/>
   </g>
  </g>
 </g>
 <defs>
  <clipPath id="pc7ca89d201">
   <rect x="57.6" y="41.472" width="357.12" height="266.112"/>
  </clipPath>
 </defs>
</svg>
