<?xml version="1.0" encoding="utf-8" standalone="no"?>
<!DOCTYPE svg PUBLIC "-//W3C//DTD SVG 1.1//EN"
  "http://www.w3.org/Graphics/SVG/1.1/DTD/svg11.dtd">
<svg xmlns:xlink="http://www.w3.org/1999/xlink" width="470.649057pt" height="496.8pt" viewBox="0 0 470.649057 496.8" xmlns="http://www.w3.org/2000/svg" version="1.1">
 <metadata>
  <rdf:RDF xmlns:dc="http://purl.org/dc/elements/1.1/" xmlns:cc="http://creativecommons.org/ns#" xmlns:rdf="http://www.w3.org/1999/02/22-rdf-syntax-ns#">
   <cc:Work>
    <dc:type rdf:resource="http://purl.org/dc/dcmitype/StillImage"/>
    <dc:date>2023-09-01T15:48:22.476825</dc:date>
    <dc:format>image/svg+xml</dc:format>
    <dc:creator>
     <cc:Agent>
      <dc:title>Matplotlib v3.5.2, https://matplotlib.org/</dc:title>
     </cc:Agent>
    </dc:creator>
   </cc:Work>
  </rdf:RDF>
 </metadata>
 <defs>
  <style type="text/css">*{stroke-linejoin: round; stroke-linecap: butt}</style>
 </defs>
 <g id="figure_1">
  <g id="patch_1">
   <path d="M 0 496.8 
L 470.649057 496.8 
L 470.649057 -0 
L 0 -0 
z
" style="fill: #ffffff"/>
  </g>
  <g id="axes_1">
   <g id="patch_2">
    <path d="M -28.8 525.6 
L 499.449057 525.6 
L 499.449057 -28.8 
L -28.8 -28.8 
z
" style="fill: #ffffff"/>
   </g>
   <g id="patch_3">
    <path d="M 259.098113 260.286792 
L 291.021945 260.286792 
" clip-path="url(#p8468595817)" style="fill: none; stroke: #444444; stroke-width: 1.8; stroke-linejoin: miter"/>
   </g>
   <g id="patch_4">
    <path d="M 300.701887 260.286792 
L 291.021945 255.731757 
L 291.021945 264.841828 
z
" clip-path="url(#p8468595817)" style="fill: #444444"/>
   </g>
   <g id="patch_5">
    <path d="M 259.098113 260.286792 
L 259.098113 228.362961 
" clip-path="url(#p8468595817)" style="fill: none; stroke: #444444; stroke-width: 1.8; stroke-linejoin: miter"/>
   </g>
   <g id="patch_6">
    <path d="M 259.098113 218.683019 
L 254.543078 228.362961 
L 263.653148 228.362961 
z
" clip-path="url(#p8468595817)" style="fill: #444444"/>
   </g>
   <g id="patch_7">
    <path d="M 318.532075 260.286792 
L 412.794191 213.155735 
" clip-path="url(#p8468595817)" style="fill: none; stroke: #bdbdbd; stroke-width: 1.8; stroke-linejoin: miter"/>
   </g>
   <g id="patch_8">
    <path d="M 421.452194 208.826733 
L 410.757117 209.081588 
L 414.831264 217.229882 
z
" clip-path="url(#p8468595817)" style="fill: #bdbdbd"/>
   </g>
   <g id="patch_9">
    <path d="M 437.4 200.85283 
L 284.328483 251.876669 
" clip-path="url(#p8468595817)" style="fill: none; stroke: #bdbdbd; stroke-width: 1.8; stroke-linejoin: miter"/>
   </g>
   <g id="patch_10">
    <path d="M 275.145283 254.937736 
L 285.768911 256.197955 
L 282.888054 247.555384 
z
" clip-path="url(#p8468595817)" style="fill: #bdbdbd"/>
   </g>
   <g id="patch_11">
    <path d="M 318.532075 260.286792 
L 417.9474 160.871468 
" clip-path="url(#p8468595817)" style="fill: none; stroke: #bdbdbd; stroke-width: 1.8; stroke-linejoin: miter"/>
   </g>
   <g id="patch_12">
    <path d="M 424.792153 154.026715 
L 414.726504 157.650572 
L 421.168296 164.092364 
z
" clip-path="url(#p8468595817)" style="fill: #bdbdbd"/>
   </g>
   <g id="patch_13">
    <path d="M 437.4 141.418868 
L 283.199482 244.219213 
" clip-path="url(#p8468595817)" style="fill: none; stroke: #bdbdbd; stroke-width: 1.8; stroke-linejoin: miter"/>
   </g>
   <g id="patch_14">
    <path d="M 275.145283 249.588679 
L 285.726161 248.009232 
L 280.672803 240.429195 
z
" clip-path="url(#p8468595817)" style="fill: #bdbdbd"/>
   </g>
   <g id="patch_15">
    <path d="M 259.098113 200.85283 
L 72.271675 231.99057 
" clip-path="url(#p8468595817)" style="fill: none; stroke: #bdbdbd; stroke-width: 1.8; stroke-linejoin: miter"/>
   </g>
   <g id="patch_16">
    <path d="M 62.723439 233.581943 
L 73.020518 236.483629 
L 71.522832 227.497511 
z
" clip-path="url(#p8468595817)" style="fill: #bdbdbd"/>
   </g>
   <g id="patch_17">
    <path d="M 45.135849 236.513208 
L 233.430206 257.434803 
" clip-path="url(#p8468595817)" style="fill: none; stroke: #bdbdbd; stroke-width: 1.8; stroke-linejoin: miter"/>
   </g>
   <g id="patch_18">
    <path d="M 243.050943 258.503774 
L 233.933226 252.907628 
L 232.927187 261.961978 
z
" clip-path="url(#p8468595817)" style="fill: #bdbdbd"/>
   </g>
   <g id="patch_19">
    <path d="M 259.098113 200.85283 
L 312.688108 447.366807 
" clip-path="url(#p8468595817)" style="fill: none; stroke: #bdbdbd; stroke-width: 1.8; stroke-linejoin: miter"/>
   </g>
   <g id="patch_20">
    <path d="M 314.744415 456.825818 
L 317.139181 446.399182 
L 308.237036 448.334431 
z
" clip-path="url(#p8468595817)" style="fill: #bdbdbd"/>
   </g>
   <g id="patch_21">
    <path d="M 318.532075 474.249057 
L 264.338382 224.958067 
" clip-path="url(#p8468595817)" style="fill: none; stroke: #bdbdbd; stroke-width: 1.8; stroke-linejoin: miter"/>
   </g>
   <g id="patch_22">
    <path d="M 262.282075 215.499057 
L 259.88731 225.925692 
L 268.789455 223.990443 
z
" clip-path="url(#p8468595817)" style="fill: #bdbdbd"/>
   </g>
   <g id="patch_23">
    <path d="M 259.098113 200.85283 
L 48.051011 253.614606 
" clip-path="url(#p8468595817)" style="fill: none; stroke: #bdbdbd; stroke-width: 1.8; stroke-linejoin: miter"/>
   </g>
   <g id="patch_24">
    <path d="M 38.660088 255.962336 
L 49.15577 258.033639 
L 46.946253 249.195573 
z
" clip-path="url(#p8468595817)" style="fill: #bdbdbd"/>
   </g>
   <g id="patch_25">
    <path d="M 21.362264 260.286792 
L 233.371001 260.286792 
" clip-path="url(#p8468595817)" style="fill: none; stroke: #bdbdbd; stroke-width: 1.8; stroke-linejoin: miter"/>
   </g>
   <g id="patch_26">
    <path d="M 243.050943 260.286792 
L 233.371001 255.731757 
L 233.371001 264.841828 
z
" clip-path="url(#p8468595817)" style="fill: #bdbdbd"/>
   </g>
   <g id="patch_27">
    <path d="M 243.050943 276.333962 
L 275.145283 276.333962 
L 275.145283 244.239623 
L 243.050943 244.239623 
z
" clip-path="url(#p8468595817)" style="fill: #29b6f6; stroke: #000000; stroke-width: 1.3; stroke-linejoin: miter"/>
   </g>
   <g id="patch_28">
    <path d="M 300.701887 260.286792 
L 318.532075 278.116981 
L 336.362264 260.286792 
L 318.532075 242.456604 
z
" clip-path="url(#p8468595817)" style="fill: #ef5350; stroke: #000000; stroke-width: 1.3; stroke-linejoin: miter"/>
   </g>
   <g id="patch_29">
    <path d="M 241.267925 200.85283 
L 259.098113 218.683019 
L 276.928302 200.85283 
L 259.098113 183.022642 
z
" clip-path="url(#p8468595817)" style="fill: #ef5350; stroke: #000000; stroke-width: 1.3; stroke-linejoin: miter"/>
   </g>
   <g id="patch_30">
    <path d="M 437.4 218.683019 
C 442.128621 218.683019 446.664207 216.804318 450.007847 213.460678 
C 453.351488 210.117037 455.230189 205.581452 455.230189 200.85283 
C 455.230189 196.124209 453.351488 191.588623 450.007847 188.244983 
C 446.664207 184.901343 442.128621 183.022642 437.4 183.022642 
C 432.671379 183.022642 428.135793 184.901343 424.792153 188.244983 
C 421.448512 191.588623 419.569811 196.124209 419.569811 200.85283 
C 419.569811 205.581452 421.448512 210.117037 424.792153 213.460678 
C 428.135793 216.804318 432.671379 218.683019 437.4 218.683019 
z
" clip-path="url(#p8468595817)" style="fill: #ff5a5a; stroke: #000000; stroke-width: 1.3; stroke-linejoin: miter"/>
   </g>
   <g id="patch_31">
    <path d="M 282.871698 474.249057 
C 282.871698 474.249057 282.871698 474.249057 282.871698 474.249057 
C 282.871698 474.249057 282.871698 474.249057 282.871698 474.249057 
C 282.871698 474.249057 282.871698 474.249057 282.871698 474.249057 
C 282.871698 474.249057 282.871698 474.249057 282.871698 474.249057 
C 282.871698 474.249057 282.871698 474.249057 282.871698 474.249057 
C 282.871698 474.249057 282.871698 474.249057 282.871698 474.249057 
C 282.871698 474.249057 282.871698 474.249057 282.871698 474.249057 
C 282.871698 474.249057 282.871698 474.249057 282.871698 474.249057 
z
" clip-path="url(#p8468595817)" style="fill: #ffffff; stroke: #000000; stroke-width: 1.3; stroke-linejoin: miter"/>
   </g>
   <g id="patch_32">
    <path d="M 270.984906 34.437736 
C 270.984906 34.437736 270.984906 34.437736 270.984906 34.437736 
C 270.984906 34.437736 270.984906 34.437736 270.984906 34.437736 
C 270.984906 34.437736 270.984906 34.437736 270.984906 34.437736 
C 270.984906 34.437736 270.984906 34.437736 270.984906 34.437736 
C 270.984906 34.437736 270.984906 34.437736 270.984906 34.437736 
C 270.984906 34.437736 270.984906 34.437736 270.984906 34.437736 
C 270.984906 34.437736 270.984906 34.437736 270.984906 34.437736 
C 270.984906 34.437736 270.984906 34.437736 270.984906 34.437736 
z
" clip-path="url(#p8468595817)" style="fill: #ffffff; stroke: #000000; stroke-width: 1.3; stroke-linejoin: miter"/>
   </g>
   <g id="patch_33">
    <path d="M 45.135849 254.343396 
C 49.86447 254.343396 54.400056 252.464695 57.743696 249.121055 
C 61.087337 245.777415 62.966038 241.241829 62.966038 236.513208 
C 62.966038 231.784586 61.087337 227.249 57.743696 223.90536 
C 54.400056 220.56172 49.86447 218.683019 45.135849 218.683019 
C 40.407228 218.683019 35.871642 220.56172 32.528002 223.90536 
C 29.184362 227.249 27.30566 231.784586 27.30566 236.513208 
C 27.30566 241.241829 29.184362 245.777415 32.528002 249.121055 
C 35.871642 252.464695 40.407228 254.343396 45.135849 254.343396 
z
" clip-path="url(#p8468595817)" style="fill: #d4ff5a; stroke: #000000; stroke-width: 1.3; stroke-linejoin: miter"/>
   </g>
   <g id="patch_34">
    <path d="M 389.85283 426.701887 
C 389.85283 426.701887 389.85283 426.701887 389.85283 426.701887 
C 389.85283 426.701887 389.85283 426.701887 389.85283 426.701887 
C 389.85283 426.701887 389.85283 426.701887 389.85283 426.701887 
C 389.85283 426.701887 389.85283 426.701887 389.85283 426.701887 
C 389.85283 426.701887 389.85283 426.701887 389.85283 426.701887 
C 389.85283 426.701887 389.85283 426.701887 389.85283 426.701887 
C 389.85283 426.701887 389.85283 426.701887 389.85283 426.701887 
C 389.85283 426.701887 389.85283 426.701887 389.85283 426.701887 
z
" clip-path="url(#p8468595817)" style="fill: #ffffff; stroke: #000000; stroke-width: 1.3; stroke-linejoin: miter"/>
   </g>
   <g id="patch_35">
    <path d="M 366.079245 58.211321 
C 366.079245 58.211321 366.079245 58.211321 366.079245 58.211321 
C 366.079245 58.211321 366.079245 58.211321 366.079245 58.211321 
C 366.079245 58.211321 366.079245 58.211321 366.079245 58.211321 
C 366.079245 58.211321 366.079245 58.211321 366.079245 58.211321 
C 366.079245 58.211321 366.079245 58.211321 366.079245 58.211321 
C 366.079245 58.211321 366.079245 58.211321 366.079245 58.211321 
C 366.079245 58.211321 366.079245 58.211321 366.079245 58.211321 
C 366.079245 58.211321 366.079245 58.211321 366.079245 58.211321 
z
" clip-path="url(#p8468595817)" style="fill: #ffffff; stroke: #000000; stroke-width: 1.3; stroke-linejoin: miter"/>
   </g>
   <g id="patch_36">
    <path d="M 199.664151 81.984906 
C 199.664151 81.984906 199.664151 81.984906 199.664151 81.984906 
C 199.664151 81.984906 199.664151 81.984906 199.664151 81.984906 
C 199.664151 81.984906 199.664151 81.984906 199.664151 81.984906 
C 199.664151 81.984906 199.664151 81.984906 199.664151 81.984906 
C 199.664151 81.984906 199.664151 81.984906 199.664151 81.984906 
C 199.664151 81.984906 199.664151 81.984906 199.664151 81.984906 
C 199.664151 81.984906 199.664151 81.984906 199.664151 81.984906 
C 199.664151 81.984906 199.664151 81.984906 199.664151 81.984906 
z
" clip-path="url(#p8468595817)" style="fill: #ffffff; stroke: #000000; stroke-width: 1.3; stroke-linejoin: miter"/>
   </g>
   <g id="patch_37">
    <path d="M 116.456604 391.041509 
C 116.456604 391.041509 116.456604 391.041509 116.456604 391.041509 
C 116.456604 391.041509 116.456604 391.041509 116.456604 391.041509 
C 116.456604 391.041509 116.456604 391.041509 116.456604 391.041509 
C 116.456604 391.041509 116.456604 391.041509 116.456604 391.041509 
C 116.456604 391.041509 116.456604 391.041509 116.456604 391.041509 
C 116.456604 391.041509 116.456604 391.041509 116.456604 391.041509 
C 116.456604 391.041509 116.456604 391.041509 116.456604 391.041509 
C 116.456604 391.041509 116.456604 391.041509 116.456604 391.041509 
z
" clip-path="url(#p8468595817)" style="fill: #ffffff; stroke: #000000; stroke-width: 1.3; stroke-linejoin: miter"/>
   </g>
   <g id="patch_38">
    <path d="M 449.286792 295.94717 
C 449.286792 295.94717 449.286792 295.94717 449.286792 295.94717 
C 449.286792 295.94717 449.286792 295.94717 449.286792 295.94717 
C 449.286792 295.94717 449.286792 295.94717 449.286792 295.94717 
C 449.286792 295.94717 449.286792 295.94717 449.286792 295.94717 
C 449.286792 295.94717 449.286792 295.94717 449.286792 295.94717 
C 449.286792 295.94717 449.286792 295.94717 449.286792 295.94717 
C 449.286792 295.94717 449.286792 295.94717 449.286792 295.94717 
C 449.286792 295.94717 449.286792 295.94717 449.286792 295.94717 
z
" clip-path="url(#p8468595817)" style="fill: #ffffff; stroke: #000000; stroke-width: 1.3; stroke-linejoin: miter"/>
   </g>
   <g id="patch_39">
    <path d="M 223.437736 450.475472 
C 223.437736 450.475472 223.437736 450.475472 223.437736 450.475472 
C 223.437736 450.475472 223.437736 450.475472 223.437736 450.475472 
C 223.437736 450.475472 223.437736 450.475472 223.437736 450.475472 
C 223.437736 450.475472 223.437736 450.475472 223.437736 450.475472 
C 223.437736 450.475472 223.437736 450.475472 223.437736 450.475472 
C 223.437736 450.475472 223.437736 450.475472 223.437736 450.475472 
C 223.437736 450.475472 223.437736 450.475472 223.437736 450.475472 
C 223.437736 450.475472 223.437736 450.475472 223.437736 450.475472 
z
" clip-path="url(#p8468595817)" style="fill: #ffffff; stroke: #000000; stroke-width: 1.3; stroke-linejoin: miter"/>
   </g>
   <g id="patch_40">
    <path d="M 437.4 159.249057 
C 442.128621 159.249057 446.664207 157.370355 450.007847 154.026715 
C 453.351488 150.683075 455.230189 146.147489 455.230189 141.418868 
C 455.230189 136.690247 453.351488 132.154661 450.007847 128.811021 
C 446.664207 125.46738 442.128621 123.588679 437.4 123.588679 
C 432.671379 123.588679 428.135793 125.46738 424.792153 128.811021 
C 421.448512 132.154661 419.569811 136.690247 419.569811 141.418868 
C 419.569811 146.147489 421.448512 150.683075 424.792153 154.026715 
C 428.135793 157.370355 432.671379 159.249057 437.4 159.249057 
z
" clip-path="url(#p8468595817)" style="fill: #ffbd5a; stroke: #000000; stroke-width: 1.3; stroke-linejoin: miter"/>
   </g>
   <g id="patch_41">
    <path d="M 318.532075 492.079245 
C 323.260697 492.079245 327.796283 490.200544 331.139923 486.856904 
C 334.483563 483.513264 336.362264 478.977678 336.362264 474.249057 
C 336.362264 469.520435 334.483563 464.984849 331.139923 461.641209 
C 327.796283 458.297569 323.260697 456.418868 318.532075 456.418868 
C 313.803454 456.418868 309.267868 458.297569 305.924228 461.641209 
C 302.580588 464.984849 300.701887 469.520435 300.701887 474.249057 
C 300.701887 478.977678 302.580588 483.513264 305.924228 486.856904 
C 309.267868 490.200544 313.803454 492.079245 318.532075 492.079245 
z
" clip-path="url(#p8468595817)" style="fill: #67ff5a; stroke: #000000; stroke-width: 1.3; stroke-linejoin: miter"/>
   </g>
   <g id="patch_42">
    <path d="M 80.796226 165.192453 
C 80.796226 165.192453 80.796226 165.192453 80.796226 165.192453 
C 80.796226 165.192453 80.796226 165.192453 80.796226 165.192453 
C 80.796226 165.192453 80.796226 165.192453 80.796226 165.192453 
C 80.796226 165.192453 80.796226 165.192453 80.796226 165.192453 
C 80.796226 165.192453 80.796226 165.192453 80.796226 165.192453 
C 80.796226 165.192453 80.796226 165.192453 80.796226 165.192453 
C 80.796226 165.192453 80.796226 165.192453 80.796226 165.192453 
C 80.796226 165.192453 80.796226 165.192453 80.796226 165.192453 
z
" clip-path="url(#p8468595817)" style="fill: #ffffff; stroke: #000000; stroke-width: 1.3; stroke-linejoin: miter"/>
   </g>
   <g id="patch_43">
    <path d="M 377.966038 438.588679 
C 377.966038 438.588679 377.966038 438.588679 377.966038 438.588679 
C 377.966038 438.588679 377.966038 438.588679 377.966038 438.588679 
C 377.966038 438.588679 377.966038 438.588679 377.966038 438.588679 
C 377.966038 438.588679 377.966038 438.588679 377.966038 438.588679 
C 377.966038 438.588679 377.966038 438.588679 377.966038 438.588679 
C 377.966038 438.588679 377.966038 438.588679 377.966038 438.588679 
C 377.966038 438.588679 377.966038 438.588679 377.966038 438.588679 
C 377.966038 438.588679 377.966038 438.588679 377.966038 438.588679 
z
" clip-path="url(#p8468595817)" style="fill: #ffffff; stroke: #000000; stroke-width: 1.3; stroke-linejoin: miter"/>
   </g>
   <g id="patch_44">
    <path d="M 354.192453 105.758491 
C 354.192453 105.758491 354.192453 105.758491 354.192453 105.758491 
C 354.192453 105.758491 354.192453 105.758491 354.192453 105.758491 
C 354.192453 105.758491 354.192453 105.758491 354.192453 105.758491 
C 354.192453 105.758491 354.192453 105.758491 354.192453 105.758491 
C 354.192453 105.758491 354.192453 105.758491 354.192453 105.758491 
C 354.192453 105.758491 354.192453 105.758491 354.192453 105.758491 
C 354.192453 105.758491 354.192453 105.758491 354.192453 105.758491 
C 354.192453 105.758491 354.192453 105.758491 354.192453 105.758491 
z
" clip-path="url(#p8468595817)" style="fill: #ffffff; stroke: #000000; stroke-width: 1.3; stroke-linejoin: miter"/>
   </g>
   <g id="patch_45">
    <path d="M 175.890566 284.060377 
C 175.890566 284.060377 175.890566 284.060377 175.890566 284.060377 
C 175.890566 284.060377 175.890566 284.060377 175.890566 284.060377 
C 175.890566 284.060377 175.890566 284.060377 175.890566 284.060377 
C 175.890566 284.060377 175.890566 284.060377 175.890566 284.060377 
C 175.890566 284.060377 175.890566 284.060377 175.890566 284.060377 
C 175.890566 284.060377 175.890566 284.060377 175.890566 284.060377 
C 175.890566 284.060377 175.890566 284.060377 175.890566 284.060377 
C 175.890566 284.060377 175.890566 284.060377 175.890566 284.060377 
z
" clip-path="url(#p8468595817)" style="fill: #ffffff; stroke: #000000; stroke-width: 1.3; stroke-linejoin: miter"/>
   </g>
   <g id="patch_46">
    <path d="M 116.456604 93.871698 
C 116.456604 93.871698 116.456604 93.871698 116.456604 93.871698 
C 116.456604 93.871698 116.456604 93.871698 116.456604 93.871698 
C 116.456604 93.871698 116.456604 93.871698 116.456604 93.871698 
C 116.456604 93.871698 116.456604 93.871698 116.456604 93.871698 
C 116.456604 93.871698 116.456604 93.871698 116.456604 93.871698 
C 116.456604 93.871698 116.456604 93.871698 116.456604 93.871698 
C 116.456604 93.871698 116.456604 93.871698 116.456604 93.871698 
C 116.456604 93.871698 116.456604 93.871698 116.456604 93.871698 
z
" clip-path="url(#p8468595817)" style="fill: #ffffff; stroke: #000000; stroke-width: 1.3; stroke-linejoin: miter"/>
   </g>
   <g id="patch_47">
    <path d="M 449.286792 319.720755 
C 449.286792 319.720755 449.286792 319.720755 449.286792 319.720755 
C 449.286792 319.720755 449.286792 319.720755 449.286792 319.720755 
C 449.286792 319.720755 449.286792 319.720755 449.286792 319.720755 
C 449.286792 319.720755 449.286792 319.720755 449.286792 319.720755 
C 449.286792 319.720755 449.286792 319.720755 449.286792 319.720755 
C 449.286792 319.720755 449.286792 319.720755 449.286792 319.720755 
C 449.286792 319.720755 449.286792 319.720755 449.286792 319.720755 
C 449.286792 319.720755 449.286792 319.720755 449.286792 319.720755 
z
" clip-path="url(#p8468595817)" style="fill: #ffffff; stroke: #000000; stroke-width: 1.3; stroke-linejoin: miter"/>
   </g>
   <g id="patch_48">
    <path d="M 259.098113 22.550943 
C 259.098113 22.550943 259.098113 22.550943 259.098113 22.550943 
C 259.098113 22.550943 259.098113 22.550943 259.098113 22.550943 
C 259.098113 22.550943 259.098113 22.550943 259.098113 22.550943 
C 259.098113 22.550943 259.098113 22.550943 259.098113 22.550943 
C 259.098113 22.550943 259.098113 22.550943 259.098113 22.550943 
C 259.098113 22.550943 259.098113 22.550943 259.098113 22.550943 
C 259.098113 22.550943 259.098113 22.550943 259.098113 22.550943 
C 259.098113 22.550943 259.098113 22.550943 259.098113 22.550943 
z
" clip-path="url(#p8468595817)" style="fill: #ffffff; stroke: #000000; stroke-width: 1.3; stroke-linejoin: miter"/>
   </g>
   <g id="patch_49">
    <path d="M 21.362264 278.116981 
C 26.090885 278.116981 30.626471 276.23828 33.970111 272.89464 
C 37.313752 269.551 39.192453 265.015414 39.192453 260.286792 
C 39.192453 255.558171 37.313752 251.022585 33.970111 247.678945 
C 30.626471 244.335305 26.090885 242.456604 21.362264 242.456604 
C 16.633643 242.456604 12.098057 244.335305 8.754417 247.678945 
C 5.410777 251.022585 3.532075 255.558171 3.532075 260.286792 
C 3.532075 265.015414 5.410777 269.551 8.754417 272.89464 
C 12.098057 276.23828 16.633643 278.116981 21.362264 278.116981 
z
" clip-path="url(#p8468595817)" style="fill: #5affba; stroke: #000000; stroke-width: 1.3; stroke-linejoin: miter"/>
   </g>
   <g id="text_1">
    <g clip-path="url(#p8468595817)">
     <!-- 1 -->
     <g transform="translate(431.351719 206.241111)scale(0.22 -0.22)">
      <defs>
       <path id="UNAVAILABLE-31" d="M 3116 0 
L 550 0 
L 550 506 
L 1600 506 
L 1600 3488 
L 622 2956 
L 422 3419 
L 1722 4103 
L 2203 4103 
L 2203 506 
L 3116 506 
L 3116 0 
z
" transform="scale(0.015625)"/>
      </defs>
      <use xlink:href="#UNAVAILABLE-31"/>
     </g>
    </g>
   </g>
   <g id="text_2">
    <g clip-path="url(#p8468595817)">
     <!-- 3 -->
     <g transform="translate(39.087568 241.901489)scale(0.22 -0.22)">
      <defs>
       <path id="UNAVAILABLE-33" d="M 3072 1241 
Q 3072 972 2962 736 
Q 2853 500 2634 323 
Q 2416 147 2084 45 
Q 1753 -56 1313 -56 
Q 1069 -56 875 -40 
Q 681 -25 513 0 
L 513 488 
Q 706 453 922 434 
Q 1138 416 1363 416 
Q 1669 416 1886 470 
Q 2103 525 2240 628 
Q 2378 731 2440 878 
Q 2503 1025 2503 1209 
Q 2503 1378 2428 1503 
Q 2353 1628 2217 1712 
Q 2081 1797 1892 1839 
Q 1703 1881 1478 1881 
L 1013 1881 
L 1013 2328 
L 1484 2328 
Q 1669 2328 1820 2376 
Q 1972 2425 2080 2515 
Q 2188 2606 2245 2739 
Q 2303 2872 2303 3041 
Q 2303 3369 2103 3519 
Q 1903 3669 1516 3669 
Q 1309 3669 1090 3628 
Q 872 3588 622 3506 
L 622 3981 
Q 728 4019 848 4048 
Q 969 4078 1089 4098 
Q 1209 4119 1328 4130 
Q 1447 4141 1556 4141 
Q 1881 4141 2128 4070 
Q 2375 4000 2540 3869 
Q 2706 3738 2790 3550 
Q 2875 3363 2875 3128 
Q 2875 2778 2695 2540 
Q 2516 2303 2203 2163 
Q 2363 2138 2517 2063 
Q 2672 1988 2795 1870 
Q 2919 1753 2995 1593 
Q 3072 1434 3072 1241 
z
" transform="scale(0.015625)"/>
      </defs>
      <use xlink:href="#UNAVAILABLE-33"/>
     </g>
    </g>
   </g>
   <g id="text_3">
    <g clip-path="url(#p8468595817)">
     <!-- 2 -->
     <g transform="translate(431.351719 146.807149)scale(0.22 -0.22)">
      <defs>
       <path id="UNAVAILABLE-32" d="M 3150 0 
L 459 0 
L 459 488 
L 1516 1538 
Q 1775 1794 1937 1981 
Q 2100 2169 2190 2323 
Q 2281 2478 2312 2615 
Q 2344 2753 2344 2913 
Q 2344 3063 2303 3198 
Q 2263 3334 2178 3437 
Q 2094 3541 1959 3600 
Q 1825 3659 1638 3659 
Q 1378 3659 1165 3543 
Q 953 3428 775 3244 
L 475 3603 
Q 706 3847 1007 3994 
Q 1309 4141 1709 4141 
Q 1981 4141 2204 4059 
Q 2428 3978 2590 3825 
Q 2753 3672 2842 3450 
Q 2931 3228 2931 2950 
Q 2931 2716 2868 2516 
Q 2806 2316 2679 2117 
Q 2553 1919 2361 1706 
Q 2169 1494 1906 1241 
L 1166 519 
L 3150 519 
L 3150 0 
z
" transform="scale(0.015625)"/>
      </defs>
      <use xlink:href="#UNAVAILABLE-32"/>
     </g>
    </g>
   </g>
   <g id="text_4">
    <g clip-path="url(#p8468595817)">
     <!-- 4 -->
     <g transform="translate(312.483794 479.637338)scale(0.22 -0.22)">
      <defs>
       <path id="UNAVAILABLE-34" d="M 3353 903 
L 2656 903 
L 2656 0 
L 2100 0 
L 2100 903 
L 134 903 
L 134 1381 
L 1875 4084 
L 2656 4084 
L 2656 1381 
L 3353 1381 
L 3353 903 
z
M 2100 3559 
L 678 1381 
L 2100 1381 
L 2100 3559 
z
" transform="scale(0.015625)"/>
      </defs>
      <use xlink:href="#UNAVAILABLE-34"/>
     </g>
    </g>
   </g>
   <g id="text_5">
    <g clip-path="url(#p8468595817)">
     <!-- 5 -->
     <g transform="translate(15.313983 265.675074)scale(0.22 -0.22)">
      <defs>
       <path id="UNAVAILABLE-35" d="M 3047 1306 
Q 3047 1003 2915 753 
Q 2784 503 2554 323 
Q 2325 144 2012 44 
Q 1700 -56 1338 -56 
Q 1247 -56 1142 -51 
Q 1038 -47 934 -39 
Q 831 -31 732 -22 
Q 634 -13 556 0 
L 556 494 
Q 725 453 942 434 
Q 1159 416 1381 416 
Q 1631 416 1831 475 
Q 2031 534 2172 645 
Q 2313 756 2388 914 
Q 2463 1072 2463 1269 
Q 2463 1650 2189 1823 
Q 1916 1997 1403 1997 
L 628 1997 
L 628 4084 
L 2828 4084 
L 2828 3609 
L 1141 3609 
L 1141 2463 
L 1497 2463 
Q 1791 2463 2069 2409 
Q 2347 2356 2564 2223 
Q 2781 2091 2914 1867 
Q 3047 1644 3047 1306 
z
" transform="scale(0.015625)"/>
      </defs>
      <use xlink:href="#UNAVAILABLE-35"/>
     </g>
    </g>
   </g>
   <g id="matplotlib.axis_1"/>
   <g id="matplotlib.axis_2"/>
  </g>
 </g>
 <defs>
  <clipPath id="p8468595817">
   <rect x="-28.8" y="-28.8" width="528.249057" height="554.4"/>
  </clipPath>
 </defs>
</svg>
