<?xml version="1.0" encoding="utf-8" standalone="no"?>
<!DOCTYPE svg PUBLIC "-//W3C//DTD SVG 1.1//EN"
  "http://www.w3.org/Graphics/SVG/1.1/DTD/svg11.dtd">
<svg xmlns:xlink="http://www.w3.org/1999/xlink" width="470.649057pt" height="496.8pt" viewBox="0 0 470.649057 496.8" xmlns="http://www.w3.org/2000/svg" version="1.1">
 <metadata>
  <rdf:RDF xmlns:dc="http://purl.org/dc/elements/1.1/" xmlns:cc="http://creativecommons.org/ns#" xmlns:rdf="http://www.w3.org/1999/02/22-rdf-syntax-ns#">
   <cc:Work>
    <dc:type rdf:resource="http://purl.org/dc/dcmitype/StillImage"/>
    <dc:date>2023-09-01T15:48:22.656866</dc:date>
    <dc:format>image/svg+xml</dc:format>
    <dc:creator>
     <cc:Agent>
      <dc:title>Matplotlib v3.5.2, https://matplotlib.org/</dc:title>
     </cc:Agent>
    </dc:creator>
   </cc:Work>
  </rdf:RDF>
 </metadata>
 <defs>
  <style type="text/css">*{stroke-linejoin: round; stroke-linecap: butt}</style>
 </defs>
 <g id="figure_1">
  <g id="patch_1">
   <path d="M 0 496.8 
L 470.649057 496.8 
L 470.649057 -0 
L 0 -0 
z
" style="fill: #ffffff"/>
  </g>
  <g id="axes_1">
   <g id="patch_2">
    <path d="M -28.8 525.6 
L 499.449057 525.6 
L 499.449057 -28.8 
L -28.8 -28.8 
z
" style="fill: #ffffff"/>
   </g>
   <g id="patch_3">
    <path d="M 259.098113 260.286792 
L 291.021945 260.286792 
" clip-path="url(#pe12cce59bf)" style="fill: none; stroke: #444444; stroke-width: 1.8; stroke-linejoin: miter"/>
   </g>
   <g id="patch_4">
    <path d="M 300.701887 260.286792 
L 291.021945 255.731757 
L 291.021945 264.841828 
z
" clip-path="url(#pe12cce59bf)" style="fill: #444444"/>
   </g>
   <g id="patch_5">
    <path d="M 259.098113 260.286792 
L 259.098113 228.362961 
" clip-path="url(#pe12cce59bf)" style="fill: none; stroke: #444444; stroke-width: 1.8; stroke-linejoin: miter"/>
   </g>
   <g id="patch_6">
    <path d="M 259.098113 218.683019 
L 254.543078 228.362961 
L 263.653148 228.362961 
z
" clip-path="url(#pe12cce59bf)" style="fill: #444444"/>
   </g>
   <g id="patch_7">
    <path d="M 259.098113 200.85283 
L 280.488506 446.842348 
" clip-path="url(#pe12cce59bf)" style="fill: none; stroke: #bdbdbd; stroke-width: 1.8; stroke-linejoin: miter"/>
   </g>
   <g id="patch_8">
    <path d="M 281.327076 456.485899 
L 285.026417 446.447747 
L 275.950595 447.236949 
z
" clip-path="url(#pe12cce59bf)" style="fill: #bdbdbd"/>
   </g>
   <g id="patch_9">
    <path d="M 282.871698 474.249057 
L 261.363098 226.900155 
" clip-path="url(#pe12cce59bf)" style="fill: none; stroke: #bdbdbd; stroke-width: 1.8; stroke-linejoin: miter"/>
   </g>
   <g id="patch_10">
    <path d="M 260.524528 217.256604 
L 256.825187 227.294756 
L 265.901009 226.505554 
z
" clip-path="url(#pe12cce59bf)" style="fill: #bdbdbd"/>
   </g>
   <g id="patch_11">
    <path d="M 259.098113 200.85283 
L 424.680983 283.644265 
" clip-path="url(#pe12cce59bf)" style="fill: none; stroke: #bdbdbd; stroke-width: 1.8; stroke-linejoin: miter"/>
   </g>
   <g id="patch_12">
    <path d="M 433.338987 287.973267 
L 426.718057 279.570118 
L 422.64391 287.718412 
z
" clip-path="url(#pe12cce59bf)" style="fill: #bdbdbd"/>
   </g>
   <g id="patch_13">
    <path d="M 449.286792 295.94717 
L 284.659429 265.079539 
" clip-path="url(#pe12cce59bf)" style="fill: none; stroke: #bdbdbd; stroke-width: 1.8; stroke-linejoin: miter"/>
   </g>
   <g id="patch_14">
    <path d="M 275.145283 263.295637 
L 283.819988 269.556556 
L 285.49887 260.602522 
z
" clip-path="url(#pe12cce59bf)" style="fill: #bdbdbd"/>
   </g>
   <g id="patch_15">
    <path d="M 259.098113 200.85283 
L 132.962682 369.033405 
" clip-path="url(#pe12cce59bf)" style="fill: none; stroke: #bdbdbd; stroke-width: 1.8; stroke-linejoin: miter"/>
   </g>
   <g id="patch_16">
    <path d="M 127.154717 376.777358 
L 136.60671 371.766426 
L 129.318654 366.300384 
z
" clip-path="url(#pe12cce59bf)" style="fill: #bdbdbd"/>
   </g>
   <g id="patch_17">
    <path d="M 116.456604 391.041509 
L 245.648638 218.785463 
" clip-path="url(#pe12cce59bf)" style="fill: none; stroke: #bdbdbd; stroke-width: 1.8; stroke-linejoin: miter"/>
   </g>
   <g id="patch_18">
    <path d="M 251.456604 211.041509 
L 242.00461 216.052442 
L 249.292666 221.518484 
z
" clip-path="url(#pe12cce59bf)" style="fill: #bdbdbd"/>
   </g>
   <g id="patch_19">
    <path d="M 259.098113 200.85283 
L 138.464709 110.377777 
" clip-path="url(#pe12cce59bf)" style="fill: none; stroke: #bdbdbd; stroke-width: 1.8; stroke-linejoin: miter"/>
   </g>
   <g id="patch_20">
    <path d="M 130.720755 104.569811 
L 135.731687 114.021805 
L 141.19773 106.733749 
z
" clip-path="url(#pe12cce59bf)" style="fill: #bdbdbd"/>
   </g>
   <g id="patch_21">
    <path d="M 116.456604 93.871698 
L 241.16548 187.403355 
" clip-path="url(#pe12cce59bf)" style="fill: none; stroke: #bdbdbd; stroke-width: 1.8; stroke-linejoin: miter"/>
   </g>
   <g id="patch_22">
    <path d="M 248.909434 193.211321 
L 243.898501 183.759327 
L 238.432459 191.047383 
z
" clip-path="url(#pe12cce59bf)" style="fill: #bdbdbd"/>
   </g>
   <g id="patch_23">
    <path d="M 259.098113 200.85283 
L 107.772129 170.587633 
" clip-path="url(#pe12cce59bf)" style="fill: none; stroke: #bdbdbd; stroke-width: 1.8; stroke-linejoin: miter"/>
   </g>
   <g id="patch_24">
    <path d="M 98.280165 168.689241 
L 106.878813 175.054213 
L 108.665445 166.121054 
z
" clip-path="url(#pe12cce59bf)" style="fill: #bdbdbd"/>
   </g>
   <g id="patch_25">
    <path d="M 80.796226 165.192453 
L 234.509818 247.173035 
" clip-path="url(#pe12cce59bf)" style="fill: none; stroke: #bdbdbd; stroke-width: 1.8; stroke-linejoin: miter"/>
   </g>
   <g id="patch_26">
    <path d="M 243.050943 251.728302 
L 236.653364 243.153886 
L 232.366272 251.192184 
z
" clip-path="url(#pe12cce59bf)" style="fill: #bdbdbd"/>
   </g>
   <g id="patch_27">
    <path d="M 318.532075 260.286792 
L 424.242491 308.336982 
" clip-path="url(#pe12cce59bf)" style="fill: none; stroke: #bdbdbd; stroke-width: 1.8; stroke-linejoin: miter"/>
   </g>
   <g id="patch_28">
    <path d="M 433.054786 312.34257 
L 426.127378 304.19023 
L 422.357605 312.483733 
z
" clip-path="url(#pe12cce59bf)" style="fill: #bdbdbd"/>
   </g>
   <g id="patch_29">
    <path d="M 449.286792 319.720755 
L 339.602625 269.864315 
" clip-path="url(#pe12cce59bf)" style="fill: none; stroke: #bdbdbd; stroke-width: 1.8; stroke-linejoin: miter"/>
   </g>
   <g id="patch_30">
    <path d="M 330.79033 265.858726 
L 337.717738 274.011066 
L 341.487512 265.717564 
z
" clip-path="url(#pe12cce59bf)" style="fill: #bdbdbd"/>
   </g>
   <g id="patch_31">
    <path d="M 318.532075 260.286792 
L 369.26657 412.490278 
" clip-path="url(#pe12cce59bf)" style="fill: none; stroke: #bdbdbd; stroke-width: 1.8; stroke-linejoin: miter"/>
   </g>
   <g id="patch_32">
    <path d="M 372.327637 421.673477 
L 373.587856 411.049849 
L 364.945285 413.930706 
z
" clip-path="url(#pe12cce59bf)" style="fill: #bdbdbd"/>
   </g>
   <g id="patch_33">
    <path d="M 377.966038 438.588679 
L 275.165692 284.388161 
" clip-path="url(#pe12cce59bf)" style="fill: none; stroke: #bdbdbd; stroke-width: 1.8; stroke-linejoin: miter"/>
   </g>
   <g id="patch_34">
    <path d="M 269.796226 276.333962 
L 271.375674 286.91484 
L 278.955711 281.861482 
z
" clip-path="url(#pe12cce59bf)" style="fill: #bdbdbd"/>
   </g>
   <g id="patch_35">
    <path d="M 243.050943 276.333962 
L 275.145283 276.333962 
L 275.145283 244.239623 
L 243.050943 244.239623 
z
" clip-path="url(#pe12cce59bf)" style="fill: #29b6f6; stroke: #000000; stroke-width: 1.3; stroke-linejoin: miter"/>
   </g>
   <g id="patch_36">
    <path d="M 300.701887 260.286792 
L 318.532075 278.116981 
L 336.362264 260.286792 
L 318.532075 242.456604 
z
" clip-path="url(#pe12cce59bf)" style="fill: #ef5350; stroke: #000000; stroke-width: 1.3; stroke-linejoin: miter"/>
   </g>
   <g id="patch_37">
    <path d="M 241.267925 200.85283 
L 259.098113 218.683019 
L 276.928302 200.85283 
L 259.098113 183.022642 
z
" clip-path="url(#pe12cce59bf)" style="fill: #ef5350; stroke: #000000; stroke-width: 1.3; stroke-linejoin: miter"/>
   </g>
   <g id="patch_38">
    <path d="M 437.4 200.85283 
C 437.4 200.85283 437.4 200.85283 437.4 200.85283 
C 437.4 200.85283 437.4 200.85283 437.4 200.85283 
C 437.4 200.85283 437.4 200.85283 437.4 200.85283 
C 437.4 200.85283 437.4 200.85283 437.4 200.85283 
C 437.4 200.85283 437.4 200.85283 437.4 200.85283 
C 437.4 200.85283 437.4 200.85283 437.4 200.85283 
C 437.4 200.85283 437.4 200.85283 437.4 200.85283 
C 437.4 200.85283 437.4 200.85283 437.4 200.85283 
z
" clip-path="url(#pe12cce59bf)" style="fill: #ffffff; stroke: #000000; stroke-width: 1.3; stroke-linejoin: miter"/>
   </g>
   <g id="patch_39">
    <path d="M 282.871698 492.079245 
C 287.600319 492.079245 292.135905 490.200544 295.479545 486.856904 
C 298.823186 483.513264 300.701887 478.977678 300.701887 474.249057 
C 300.701887 469.520435 298.823186 464.984849 295.479545 461.641209 
C 292.135905 458.297569 287.600319 456.418868 282.871698 456.418868 
C 278.143077 456.418868 273.607491 458.297569 270.263851 461.641209 
C 266.920211 464.984849 265.041509 469.520435 265.041509 474.249057 
C 265.041509 478.977678 266.920211 483.513264 270.263851 486.856904 
C 273.607491 490.200544 278.143077 492.079245 282.871698 492.079245 
z
" clip-path="url(#pe12cce59bf)" style="fill: #ff5a5a; stroke: #000000; stroke-width: 1.3; stroke-linejoin: miter"/>
   </g>
   <g id="patch_40">
    <path d="M 270.984906 34.437736 
C 270.984906 34.437736 270.984906 34.437736 270.984906 34.437736 
C 270.984906 34.437736 270.984906 34.437736 270.984906 34.437736 
C 270.984906 34.437736 270.984906 34.437736 270.984906 34.437736 
C 270.984906 34.437736 270.984906 34.437736 270.984906 34.437736 
C 270.984906 34.437736 270.984906 34.437736 270.984906 34.437736 
C 270.984906 34.437736 270.984906 34.437736 270.984906 34.437736 
C 270.984906 34.437736 270.984906 34.437736 270.984906 34.437736 
C 270.984906 34.437736 270.984906 34.437736 270.984906 34.437736 
z
" clip-path="url(#pe12cce59bf)" style="fill: #ffffff; stroke: #000000; stroke-width: 1.3; stroke-linejoin: miter"/>
   </g>
   <g id="patch_41">
    <path d="M 45.135849 236.513208 
C 45.135849 236.513208 45.135849 236.513208 45.135849 236.513208 
C 45.135849 236.513208 45.135849 236.513208 45.135849 236.513208 
C 45.135849 236.513208 45.135849 236.513208 45.135849 236.513208 
C 45.135849 236.513208 45.135849 236.513208 45.135849 236.513208 
C 45.135849 236.513208 45.135849 236.513208 45.135849 236.513208 
C 45.135849 236.513208 45.135849 236.513208 45.135849 236.513208 
C 45.135849 236.513208 45.135849 236.513208 45.135849 236.513208 
C 45.135849 236.513208 45.135849 236.513208 45.135849 236.513208 
z
" clip-path="url(#pe12cce59bf)" style="fill: #ffffff; stroke: #000000; stroke-width: 1.3; stroke-linejoin: miter"/>
   </g>
   <g id="patch_42">
    <path d="M 389.85283 426.701887 
C 389.85283 426.701887 389.85283 426.701887 389.85283 426.701887 
C 389.85283 426.701887 389.85283 426.701887 389.85283 426.701887 
C 389.85283 426.701887 389.85283 426.701887 389.85283 426.701887 
C 389.85283 426.701887 389.85283 426.701887 389.85283 426.701887 
C 389.85283 426.701887 389.85283 426.701887 389.85283 426.701887 
C 389.85283 426.701887 389.85283 426.701887 389.85283 426.701887 
C 389.85283 426.701887 389.85283 426.701887 389.85283 426.701887 
C 389.85283 426.701887 389.85283 426.701887 389.85283 426.701887 
z
" clip-path="url(#pe12cce59bf)" style="fill: #ffffff; stroke: #000000; stroke-width: 1.3; stroke-linejoin: miter"/>
   </g>
   <g id="patch_43">
    <path d="M 366.079245 58.211321 
C 366.079245 58.211321 366.079245 58.211321 366.079245 58.211321 
C 366.079245 58.211321 366.079245 58.211321 366.079245 58.211321 
C 366.079245 58.211321 366.079245 58.211321 366.079245 58.211321 
C 366.079245 58.211321 366.079245 58.211321 366.079245 58.211321 
C 366.079245 58.211321 366.079245 58.211321 366.079245 58.211321 
C 366.079245 58.211321 366.079245 58.211321 366.079245 58.211321 
C 366.079245 58.211321 366.079245 58.211321 366.079245 58.211321 
C 366.079245 58.211321 366.079245 58.211321 366.079245 58.211321 
z
" clip-path="url(#pe12cce59bf)" style="fill: #ffffff; stroke: #000000; stroke-width: 1.3; stroke-linejoin: miter"/>
   </g>
   <g id="patch_44">
    <path d="M 199.664151 81.984906 
C 199.664151 81.984906 199.664151 81.984906 199.664151 81.984906 
C 199.664151 81.984906 199.664151 81.984906 199.664151 81.984906 
C 199.664151 81.984906 199.664151 81.984906 199.664151 81.984906 
C 199.664151 81.984906 199.664151 81.984906 199.664151 81.984906 
C 199.664151 81.984906 199.664151 81.984906 199.664151 81.984906 
C 199.664151 81.984906 199.664151 81.984906 199.664151 81.984906 
C 199.664151 81.984906 199.664151 81.984906 199.664151 81.984906 
C 199.664151 81.984906 199.664151 81.984906 199.664151 81.984906 
z
" clip-path="url(#pe12cce59bf)" style="fill: #ffffff; stroke: #000000; stroke-width: 1.3; stroke-linejoin: miter"/>
   </g>
   <g id="patch_45">
    <path d="M 116.456604 408.871698 
C 121.185225 408.871698 125.720811 406.992997 129.064451 403.649357 
C 132.408091 400.305717 134.286792 395.770131 134.286792 391.041509 
C 134.286792 386.312888 132.408091 381.777302 129.064451 378.433662 
C 125.720811 375.090022 121.185225 373.211321 116.456604 373.211321 
C 111.727982 373.211321 107.192397 375.090022 103.848756 378.433662 
C 100.505116 381.777302 98.626415 386.312888 98.626415 391.041509 
C 98.626415 395.770131 100.505116 400.305717 103.848756 403.649357 
C 107.192397 406.992997 111.727982 408.871698 116.456604 408.871698 
z
" clip-path="url(#pe12cce59bf)" style="fill: #d4ff5a; stroke: #000000; stroke-width: 1.3; stroke-linejoin: miter"/>
   </g>
   <g id="patch_46">
    <path d="M 449.286792 313.777358 
C 454.015414 313.777358 458.551 311.898657 461.89464 308.555017 
C 465.23828 305.211377 467.116981 300.675791 467.116981 295.94717 
C 467.116981 291.218548 465.23828 286.682963 461.89464 283.339322 
C 458.551 279.995682 454.015414 278.116981 449.286792 278.116981 
C 444.558171 278.116981 440.022585 279.995682 436.678945 283.339322 
C 433.335305 286.682963 431.456604 291.218548 431.456604 295.94717 
C 431.456604 300.675791 433.335305 305.211377 436.678945 308.555017 
C 440.022585 311.898657 444.558171 313.777358 449.286792 313.777358 
z
" clip-path="url(#pe12cce59bf)" style="fill: #ffbd5a; stroke: #000000; stroke-width: 1.3; stroke-linejoin: miter"/>
   </g>
   <g id="patch_47">
    <path d="M 223.437736 450.475472 
C 223.437736 450.475472 223.437736 450.475472 223.437736 450.475472 
C 223.437736 450.475472 223.437736 450.475472 223.437736 450.475472 
C 223.437736 450.475472 223.437736 450.475472 223.437736 450.475472 
C 223.437736 450.475472 223.437736 450.475472 223.437736 450.475472 
C 223.437736 450.475472 223.437736 450.475472 223.437736 450.475472 
C 223.437736 450.475472 223.437736 450.475472 223.437736 450.475472 
C 223.437736 450.475472 223.437736 450.475472 223.437736 450.475472 
C 223.437736 450.475472 223.437736 450.475472 223.437736 450.475472 
z
" clip-path="url(#pe12cce59bf)" style="fill: #ffffff; stroke: #000000; stroke-width: 1.3; stroke-linejoin: miter"/>
   </g>
   <g id="patch_48">
    <path d="M 437.4 141.418868 
C 437.4 141.418868 437.4 141.418868 437.4 141.418868 
C 437.4 141.418868 437.4 141.418868 437.4 141.418868 
C 437.4 141.418868 437.4 141.418868 437.4 141.418868 
C 437.4 141.418868 437.4 141.418868 437.4 141.418868 
C 437.4 141.418868 437.4 141.418868 437.4 141.418868 
C 437.4 141.418868 437.4 141.418868 437.4 141.418868 
C 437.4 141.418868 437.4 141.418868 437.4 141.418868 
C 437.4 141.418868 437.4 141.418868 437.4 141.418868 
z
" clip-path="url(#pe12cce59bf)" style="fill: #ffffff; stroke: #000000; stroke-width: 1.3; stroke-linejoin: miter"/>
   </g>
   <g id="patch_49">
    <path d="M 318.532075 474.249057 
C 318.532075 474.249057 318.532075 474.249057 318.532075 474.249057 
C 318.532075 474.249057 318.532075 474.249057 318.532075 474.249057 
C 318.532075 474.249057 318.532075 474.249057 318.532075 474.249057 
C 318.532075 474.249057 318.532075 474.249057 318.532075 474.249057 
C 318.532075 474.249057 318.532075 474.249057 318.532075 474.249057 
C 318.532075 474.249057 318.532075 474.249057 318.532075 474.249057 
C 318.532075 474.249057 318.532075 474.249057 318.532075 474.249057 
C 318.532075 474.249057 318.532075 474.249057 318.532075 474.249057 
z
" clip-path="url(#pe12cce59bf)" style="fill: #ffffff; stroke: #000000; stroke-width: 1.3; stroke-linejoin: miter"/>
   </g>
   <g id="patch_50">
    <path d="M 80.796226 183.022642 
C 85.524848 183.022642 90.060434 181.14394 93.404074 177.8003 
C 96.747714 174.45666 98.626415 169.921074 98.626415 165.192453 
C 98.626415 160.463832 96.747714 155.928246 93.404074 152.584606 
C 90.060434 149.240965 85.524848 147.362264 80.796226 147.362264 
C 76.067605 147.362264 71.532019 149.240965 68.188379 152.584606 
C 64.844739 155.928246 62.966038 160.463832 62.966038 165.192453 
C 62.966038 169.921074 64.844739 174.45666 68.188379 177.8003 
C 71.532019 181.14394 76.067605 183.022642 80.796226 183.022642 
z
" clip-path="url(#pe12cce59bf)" style="fill: #5affba; stroke: #000000; stroke-width: 1.3; stroke-linejoin: miter"/>
   </g>
   <g id="patch_51">
    <path d="M 377.966038 456.418868 
C 382.694659 456.418868 387.230245 454.540167 390.573885 451.196527 
C 393.917525 447.852886 395.796226 443.317301 395.796226 438.588679 
C 395.796226 433.860058 393.917525 429.324472 390.573885 425.980832 
C 387.230245 422.637192 382.694659 420.758491 377.966038 420.758491 
C 373.237416 420.758491 368.701831 422.637192 365.35819 425.980832 
C 362.01455 429.324472 360.135849 433.860058 360.135849 438.588679 
C 360.135849 443.317301 362.01455 447.852886 365.35819 451.196527 
C 368.701831 454.540167 373.237416 456.418868 377.966038 456.418868 
z
" clip-path="url(#pe12cce59bf)" style="fill: #5a6aff; stroke: #000000; stroke-width: 1.3; stroke-linejoin: miter"/>
   </g>
   <g id="patch_52">
    <path d="M 354.192453 105.758491 
C 354.192453 105.758491 354.192453 105.758491 354.192453 105.758491 
C 354.192453 105.758491 354.192453 105.758491 354.192453 105.758491 
C 354.192453 105.758491 354.192453 105.758491 354.192453 105.758491 
C 354.192453 105.758491 354.192453 105.758491 354.192453 105.758491 
C 354.192453 105.758491 354.192453 105.758491 354.192453 105.758491 
C 354.192453 105.758491 354.192453 105.758491 354.192453 105.758491 
C 354.192453 105.758491 354.192453 105.758491 354.192453 105.758491 
C 354.192453 105.758491 354.192453 105.758491 354.192453 105.758491 
z
" clip-path="url(#pe12cce59bf)" style="fill: #ffffff; stroke: #000000; stroke-width: 1.3; stroke-linejoin: miter"/>
   </g>
   <g id="patch_53">
    <path d="M 175.890566 284.060377 
C 175.890566 284.060377 175.890566 284.060377 175.890566 284.060377 
C 175.890566 284.060377 175.890566 284.060377 175.890566 284.060377 
C 175.890566 284.060377 175.890566 284.060377 175.890566 284.060377 
C 175.890566 284.060377 175.890566 284.060377 175.890566 284.060377 
C 175.890566 284.060377 175.890566 284.060377 175.890566 284.060377 
C 175.890566 284.060377 175.890566 284.060377 175.890566 284.060377 
C 175.890566 284.060377 175.890566 284.060377 175.890566 284.060377 
C 175.890566 284.060377 175.890566 284.060377 175.890566 284.060377 
z
" clip-path="url(#pe12cce59bf)" style="fill: #ffffff; stroke: #000000; stroke-width: 1.3; stroke-linejoin: miter"/>
   </g>
   <g id="patch_54">
    <path d="M 116.456604 111.701887 
C 121.185225 111.701887 125.720811 109.823186 129.064451 106.479545 
C 132.408091 103.135905 134.286792 98.600319 134.286792 93.871698 
C 134.286792 89.143077 132.408091 84.607491 129.064451 81.263851 
C 125.720811 77.920211 121.185225 76.041509 116.456604 76.041509 
C 111.727982 76.041509 107.192397 77.920211 103.848756 81.263851 
C 100.505116 84.607491 98.626415 89.143077 98.626415 93.871698 
C 98.626415 98.600319 100.505116 103.135905 103.848756 106.479545 
C 107.192397 109.823186 111.727982 111.701887 116.456604 111.701887 
z
" clip-path="url(#pe12cce59bf)" style="fill: #67ff5a; stroke: #000000; stroke-width: 1.3; stroke-linejoin: miter"/>
   </g>
   <g id="patch_55">
    <path d="M 449.286792 337.550943 
C 454.015414 337.550943 458.551 335.672242 461.89464 332.328602 
C 465.23828 328.984962 467.116981 324.449376 467.116981 319.720755 
C 467.116981 314.992133 465.23828 310.456548 461.89464 307.112907 
C 458.551 303.769267 454.015414 301.890566 449.286792 301.890566 
C 444.558171 301.890566 440.022585 303.769267 436.678945 307.112907 
C 433.335305 310.456548 431.456604 314.992133 431.456604 319.720755 
C 431.456604 324.449376 433.335305 328.984962 436.678945 332.328602 
C 440.022585 335.672242 444.558171 337.550943 449.286792 337.550943 
z
" clip-path="url(#pe12cce59bf)" style="fill: #5acdff; stroke: #000000; stroke-width: 1.3; stroke-linejoin: miter"/>
   </g>
   <g id="patch_56">
    <path d="M 259.098113 22.550943 
C 259.098113 22.550943 259.098113 22.550943 259.098113 22.550943 
C 259.098113 22.550943 259.098113 22.550943 259.098113 22.550943 
C 259.098113 22.550943 259.098113 22.550943 259.098113 22.550943 
C 259.098113 22.550943 259.098113 22.550943 259.098113 22.550943 
C 259.098113 22.550943 259.098113 22.550943 259.098113 22.550943 
C 259.098113 22.550943 259.098113 22.550943 259.098113 22.550943 
C 259.098113 22.550943 259.098113 22.550943 259.098113 22.550943 
C 259.098113 22.550943 259.098113 22.550943 259.098113 22.550943 
z
" clip-path="url(#pe12cce59bf)" style="fill: #ffffff; stroke: #000000; stroke-width: 1.3; stroke-linejoin: miter"/>
   </g>
   <g id="patch_57">
    <path d="M 21.362264 260.286792 
C 21.362264 260.286792 21.362264 260.286792 21.362264 260.286792 
C 21.362264 260.286792 21.362264 260.286792 21.362264 260.286792 
C 21.362264 260.286792 21.362264 260.286792 21.362264 260.286792 
C 21.362264 260.286792 21.362264 260.286792 21.362264 260.286792 
C 21.362264 260.286792 21.362264 260.286792 21.362264 260.286792 
C 21.362264 260.286792 21.362264 260.286792 21.362264 260.286792 
C 21.362264 260.286792 21.362264 260.286792 21.362264 260.286792 
C 21.362264 260.286792 21.362264 260.286792 21.362264 260.286792 
z
" clip-path="url(#pe12cce59bf)" style="fill: #ffffff; stroke: #000000; stroke-width: 1.3; stroke-linejoin: miter"/>
   </g>
   <g id="text_1">
    <g clip-path="url(#pe12cce59bf)">
     <!-- 1 -->
     <g transform="translate(276.823417 479.637338)scale(0.22 -0.22)">
      <defs>
       <path id="UNAVAILABLE-31" d="M 3116 0 
L 550 0 
L 550 506 
L 1600 506 
L 1600 3488 
L 622 2956 
L 422 3419 
L 1722 4103 
L 2203 4103 
L 2203 506 
L 3116 506 
L 3116 0 
z
" transform="scale(0.015625)"/>
      </defs>
      <use xlink:href="#UNAVAILABLE-31"/>
     </g>
    </g>
   </g>
   <g id="text_2">
    <g clip-path="url(#pe12cce59bf)">
     <!-- 3 -->
     <g transform="translate(110.408323 396.429791)scale(0.22 -0.22)">
      <defs>
       <path id="UNAVAILABLE-33" d="M 3072 1241 
Q 3072 972 2962 736 
Q 2853 500 2634 323 
Q 2416 147 2084 45 
Q 1753 -56 1313 -56 
Q 1069 -56 875 -40 
Q 681 -25 513 0 
L 513 488 
Q 706 453 922 434 
Q 1138 416 1363 416 
Q 1669 416 1886 470 
Q 2103 525 2240 628 
Q 2378 731 2440 878 
Q 2503 1025 2503 1209 
Q 2503 1378 2428 1503 
Q 2353 1628 2217 1712 
Q 2081 1797 1892 1839 
Q 1703 1881 1478 1881 
L 1013 1881 
L 1013 2328 
L 1484 2328 
Q 1669 2328 1820 2376 
Q 1972 2425 2080 2515 
Q 2188 2606 2245 2739 
Q 2303 2872 2303 3041 
Q 2303 3369 2103 3519 
Q 1903 3669 1516 3669 
Q 1309 3669 1090 3628 
Q 872 3588 622 3506 
L 622 3981 
Q 728 4019 848 4048 
Q 969 4078 1089 4098 
Q 1209 4119 1328 4130 
Q 1447 4141 1556 4141 
Q 1881 4141 2128 4070 
Q 2375 4000 2540 3869 
Q 2706 3738 2790 3550 
Q 2875 3363 2875 3128 
Q 2875 2778 2695 2540 
Q 2516 2303 2203 2163 
Q 2363 2138 2517 2063 
Q 2672 1988 2795 1870 
Q 2919 1753 2995 1593 
Q 3072 1434 3072 1241 
z
" transform="scale(0.015625)"/>
      </defs>
      <use xlink:href="#UNAVAILABLE-33"/>
     </g>
    </g>
   </g>
   <g id="text_3">
    <g clip-path="url(#pe12cce59bf)">
     <!-- 2 -->
     <g transform="translate(443.238511 301.335451)scale(0.22 -0.22)">
      <defs>
       <path id="UNAVAILABLE-32" d="M 3150 0 
L 459 0 
L 459 488 
L 1516 1538 
Q 1775 1794 1937 1981 
Q 2100 2169 2190 2323 
Q 2281 2478 2312 2615 
Q 2344 2753 2344 2913 
Q 2344 3063 2303 3198 
Q 2263 3334 2178 3437 
Q 2094 3541 1959 3600 
Q 1825 3659 1638 3659 
Q 1378 3659 1165 3543 
Q 953 3428 775 3244 
L 475 3603 
Q 706 3847 1007 3994 
Q 1309 4141 1709 4141 
Q 1981 4141 2204 4059 
Q 2428 3978 2590 3825 
Q 2753 3672 2842 3450 
Q 2931 3228 2931 2950 
Q 2931 2716 2868 2516 
Q 2806 2316 2679 2117 
Q 2553 1919 2361 1706 
Q 2169 1494 1906 1241 
L 1166 519 
L 3150 519 
L 3150 0 
z
" transform="scale(0.015625)"/>
      </defs>
      <use xlink:href="#UNAVAILABLE-32"/>
     </g>
    </g>
   </g>
   <g id="text_4">
    <g clip-path="url(#pe12cce59bf)">
     <!-- 5 -->
     <g transform="translate(74.747945 170.580734)scale(0.22 -0.22)">
      <defs>
       <path id="UNAVAILABLE-35" d="M 3047 1306 
Q 3047 1003 2915 753 
Q 2784 503 2554 323 
Q 2325 144 2012 44 
Q 1700 -56 1338 -56 
Q 1247 -56 1142 -51 
Q 1038 -47 934 -39 
Q 831 -31 732 -22 
Q 634 -13 556 0 
L 556 494 
Q 725 453 942 434 
Q 1159 416 1381 416 
Q 1631 416 1831 475 
Q 2031 534 2172 645 
Q 2313 756 2388 914 
Q 2463 1072 2463 1269 
Q 2463 1650 2189 1823 
Q 1916 1997 1403 1997 
L 628 1997 
L 628 4084 
L 2828 4084 
L 2828 3609 
L 1141 3609 
L 1141 2463 
L 1497 2463 
Q 1791 2463 2069 2409 
Q 2347 2356 2564 2223 
Q 2781 2091 2914 1867 
Q 3047 1644 3047 1306 
z
" transform="scale(0.015625)"/>
      </defs>
      <use xlink:href="#UNAVAILABLE-35"/>
     </g>
    </g>
   </g>
   <g id="text_5">
    <g clip-path="url(#pe12cce59bf)">
     <!-- 7 -->
     <g transform="translate(371.917756 443.97696)scale(0.22 -0.22)">
      <defs>
       <path id="UNAVAILABLE-37" d="M 3128 3578 
L 1416 0 
L 794 0 
L 2572 3578 
L 366 3578 
L 366 4084 
L 3128 4084 
L 3128 3578 
z
" transform="scale(0.015625)"/>
      </defs>
      <use xlink:href="#UNAVAILABLE-37"/>
     </g>
    </g>
   </g>
   <g id="text_6">
    <g clip-path="url(#pe12cce59bf)">
     <!-- 4 -->
     <g transform="translate(110.408323 99.259979)scale(0.22 -0.22)">
      <defs>
       <path id="UNAVAILABLE-34" d="M 3353 903 
L 2656 903 
L 2656 0 
L 2100 0 
L 2100 903 
L 134 903 
L 134 1381 
L 1875 4084 
L 2656 4084 
L 2656 1381 
L 3353 1381 
L 3353 903 
z
M 2100 3559 
L 678 1381 
L 2100 1381 
L 2100 3559 
z
" transform="scale(0.015625)"/>
      </defs>
      <use xlink:href="#UNAVAILABLE-34"/>
     </g>
    </g>
   </g>
   <g id="text_7">
    <g clip-path="url(#pe12cce59bf)">
     <!-- 6 -->
     <g transform="translate(443.238511 325.109036)scale(0.22 -0.22)">
      <defs>
       <path id="UNAVAILABLE-36" d="M 3200 1294 
Q 3200 1013 3098 766 
Q 2997 519 2809 336 
Q 2622 153 2358 48 
Q 2094 -56 1772 -56 
Q 1434 -56 1175 51 
Q 916 159 741 382 
Q 566 606 475 947 
Q 384 1288 384 1753 
Q 384 2066 425 2359 
Q 466 2653 559 2912 
Q 653 3172 809 3387 
Q 966 3603 1198 3758 
Q 1431 3913 1747 3998 
Q 2063 4084 2478 4084 
L 2881 4084 
L 2881 3609 
L 2444 3609 
Q 2078 3609 1809 3521 
Q 1541 3434 1359 3275 
Q 1178 3116 1081 2891 
Q 984 2666 959 2388 
L 947 2259 
Q 1144 2375 1401 2445 
Q 1659 2516 1959 2516 
Q 2269 2516 2501 2425 
Q 2734 2334 2889 2173 
Q 3044 2013 3122 1788 
Q 3200 1563 3200 1294 
z
M 2631 1259 
Q 2631 1447 2586 1598 
Q 2541 1750 2444 1854 
Q 2347 1959 2198 2017 
Q 2050 2075 1844 2075 
Q 1725 2075 1603 2053 
Q 1481 2031 1364 1992 
Q 1247 1953 1140 1903 
Q 1034 1853 947 1797 
Q 947 1394 1003 1123 
Q 1059 853 1170 690 
Q 1281 528 1443 459 
Q 1606 391 1819 391 
Q 1997 391 2145 448 
Q 2294 506 2401 618 
Q 2509 731 2570 892 
Q 2631 1053 2631 1259 
z
" transform="scale(0.015625)"/>
      </defs>
      <use xlink:href="#UNAVAILABLE-36"/>
     </g>
    </g>
   </g>
   <g id="matplotlib.axis_1"/>
   <g id="matplotlib.axis_2"/>
  </g>
 </g>
 <defs>
  <clipPath id="pe12cce59bf">
   <rect x="-28.8" y="-28.8" width="528.249057" height="554.4"/>
  </clipPath>
 </defs>
</svg>
