<?xml version="1.0" encoding="utf-8" standalone="no"?>
<!DOCTYPE svg PUBLIC "-//W3C//DTD SVG 1.1//EN"
  "http://www.w3.org/Graphics/SVG/1.1/DTD/svg11.dtd">
<svg xmlns:xlink="http://www.w3.org/1999/xlink" width="470.649057pt" height="496.8pt" viewBox="0 0 470.649057 496.8" xmlns="http://www.w3.org/2000/svg" version="1.1">
 <metadata>
  <rdf:RDF xmlns:dc="http://purl.org/dc/elements/1.1/" xmlns:cc="http://creativecommons.org/ns#" xmlns:rdf="http://www.w3.org/1999/02/22-rdf-syntax-ns#">
   <cc:Work>
    <dc:type rdf:resource="http://purl.org/dc/dcmitype/StillImage"/>
    <dc:date>2023-09-01T15:48:22.565850</dc:date>
    <dc:format>image/svg+xml</dc:format>
    <dc:creator>
     <cc:Agent>
      <dc:title>Matplotlib v3.5.2, https://matplotlib.org/</dc:title>
     </cc:Agent>
    </dc:creator>
   </cc:Work>
  </rdf:RDF>
 </metadata>
 <defs>
  <style type="text/css">*{stroke-linejoin: round; stroke-linecap: butt}</style>
 </defs>
 <g id="figure_1">
  <g id="patch_1">
   <path d="M 0 496.8 
L 470.649057 496.8 
L 470.649057 -0 
L 0 -0 
z
" style="fill: #ffffff"/>
  </g>
  <g id="axes_1">
   <g id="patch_2">
    <path d="M -28.8 525.6 
L 499.449057 525.6 
L 499.449057 -28.8 
L -28.8 -28.8 
z
" style="fill: #ffffff"/>
   </g>
   <g id="patch_3">
    <path d="M 259.098113 260.286792 
L 291.021945 260.286792 
" clip-path="url(#p0925a24706)" style="fill: none; stroke: #444444; stroke-width: 1.8; stroke-linejoin: miter"/>
   </g>
   <g id="patch_4">
    <path d="M 300.701887 260.286792 
L 291.021945 255.731757 
L 291.021945 264.841828 
z
" clip-path="url(#p0925a24706)" style="fill: #444444"/>
   </g>
   <g id="patch_5">
    <path d="M 259.098113 260.286792 
L 259.098113 228.362961 
" clip-path="url(#p0925a24706)" style="fill: none; stroke: #444444; stroke-width: 1.8; stroke-linejoin: miter"/>
   </g>
   <g id="patch_6">
    <path d="M 259.098113 218.683019 
L 254.543078 228.362961 
L 263.653148 228.362961 
z
" clip-path="url(#p0925a24706)" style="fill: #444444"/>
   </g>
   <g id="patch_7">
    <path d="M 318.532075 260.286792 
L 276.652281 61.357769 
" clip-path="url(#p0925a24706)" style="fill: none; stroke: #bdbdbd; stroke-width: 1.8; stroke-linejoin: miter"/>
   </g>
   <g id="patch_8">
    <path d="M 274.658111 51.885463 
L 272.194952 62.296154 
L 281.10961 60.419384 
z
" clip-path="url(#p0925a24706)" style="fill: #bdbdbd"/>
   </g>
   <g id="patch_9">
    <path d="M 270.984906 34.437736 
L 313.437004 236.085201 
" clip-path="url(#p0925a24706)" style="fill: none; stroke: #bdbdbd; stroke-width: 1.8; stroke-linejoin: miter"/>
   </g>
   <g id="patch_10">
    <path d="M 315.431173 245.557506 
L 317.894332 235.146816 
L 308.979675 237.023586 
z
" clip-path="url(#p0925a24706)" style="fill: #bdbdbd"/>
   </g>
   <g id="patch_11">
    <path d="M 318.532075 260.286792 
L 379.016059 401.416087 
" clip-path="url(#p0925a24706)" style="fill: none; stroke: #bdbdbd; stroke-width: 1.8; stroke-linejoin: miter"/>
   </g>
   <g id="patch_12">
    <path d="M 382.829175 410.313357 
L 383.202797 399.62177 
L 374.829321 403.210403 
z
" clip-path="url(#p0925a24706)" style="fill: #bdbdbd"/>
   </g>
   <g id="patch_13">
    <path d="M 389.85283 426.701887 
L 327.694248 281.665195 
" clip-path="url(#p0925a24706)" style="fill: none; stroke: #bdbdbd; stroke-width: 1.8; stroke-linejoin: miter"/>
   </g>
   <g id="patch_14">
    <path d="M 323.881132 272.767925 
L 323.50751 283.459512 
L 331.880986 279.870879 
z
" clip-path="url(#p0925a24706)" style="fill: #bdbdbd"/>
   </g>
   <g id="patch_15">
    <path d="M 318.532075 260.286792 
L 214.924026 104.874718 
" clip-path="url(#p0925a24706)" style="fill: none; stroke: #bdbdbd; stroke-width: 1.8; stroke-linejoin: miter"/>
   </g>
   <g id="patch_16">
    <path d="M 209.55456 96.820519 
L 211.134008 107.401397 
L 218.714044 102.348039 
z
" clip-path="url(#p0925a24706)" style="fill: #bdbdbd"/>
   </g>
   <g id="patch_17">
    <path d="M 199.664151 81.984906 
L 250.68799 235.056423 
" clip-path="url(#p0925a24706)" style="fill: none; stroke: #bdbdbd; stroke-width: 1.8; stroke-linejoin: miter"/>
   </g>
   <g id="patch_18">
    <path d="M 253.749057 244.239623 
L 255.009276 233.615995 
L 246.366704 236.496852 
z
" clip-path="url(#p0925a24706)" style="fill: #bdbdbd"/>
   </g>
   <g id="patch_19">
    <path d="M 318.532075 260.286792 
L 235.74064 425.869663 
" clip-path="url(#p0925a24706)" style="fill: none; stroke: #bdbdbd; stroke-width: 1.8; stroke-linejoin: miter"/>
   </g>
   <g id="patch_20">
    <path d="M 231.411639 434.527666 
L 239.814788 427.906736 
L 231.666493 423.832589 
z
" clip-path="url(#p0925a24706)" style="fill: #bdbdbd"/>
   </g>
   <g id="patch_21">
    <path d="M 223.437736 450.475472 
L 254.305366 285.848108 
" clip-path="url(#p0925a24706)" style="fill: none; stroke: #bdbdbd; stroke-width: 1.8; stroke-linejoin: miter"/>
   </g>
   <g id="patch_22">
    <path d="M 256.089269 276.333962 
L 249.828349 285.008668 
L 258.782384 286.687549 
z
" clip-path="url(#p0925a24706)" style="fill: #bdbdbd"/>
   </g>
   <g id="patch_23">
    <path d="M 318.532075 260.286792 
L 359.778343 84.990154 
" clip-path="url(#p0925a24706)" style="fill: none; stroke: #bdbdbd; stroke-width: 1.8; stroke-linejoin: miter"/>
   </g>
   <g id="patch_24">
    <path d="M 361.995431 75.567533 
L 355.344394 83.946872 
L 364.212293 86.033437 
z
" clip-path="url(#p0925a24706)" style="fill: #bdbdbd"/>
   </g>
   <g id="patch_25">
    <path d="M 366.079245 58.211321 
L 272.547588 182.920197 
" clip-path="url(#p0925a24706)" style="fill: none; stroke: #bdbdbd; stroke-width: 1.8; stroke-linejoin: miter"/>
   </g>
   <g id="patch_26">
    <path d="M 266.739623 190.664151 
L 276.191616 185.653218 
L 268.90356 180.187176 
z
" clip-path="url(#p0925a24706)" style="fill: #bdbdbd"/>
   </g>
   <g id="patch_27">
    <path d="M 259.098113 200.85283 
L 259.098113 50.061074 
" clip-path="url(#p0925a24706)" style="fill: none; stroke: #bdbdbd; stroke-width: 1.8; stroke-linejoin: miter"/>
   </g>
   <g id="patch_28">
    <path d="M 259.098113 40.381132 
L 254.543078 50.061074 
L 263.653148 50.061074 
z
" clip-path="url(#p0925a24706)" style="fill: #bdbdbd"/>
   </g>
   <g id="patch_29">
    <path d="M 259.098113 22.550943 
L 259.098113 173.342699 
" clip-path="url(#p0925a24706)" style="fill: none; stroke: #bdbdbd; stroke-width: 1.8; stroke-linejoin: miter"/>
   </g>
   <g id="patch_30">
    <path d="M 259.098113 183.022642 
L 263.653148 173.342699 
L 254.543078 173.342699 
z
" clip-path="url(#p0925a24706)" style="fill: #bdbdbd"/>
   </g>
   <g id="patch_31">
    <path d="M 259.098113 200.85283 
L 334.739853 125.211091 
" clip-path="url(#p0925a24706)" style="fill: none; stroke: #bdbdbd; stroke-width: 1.8; stroke-linejoin: miter"/>
   </g>
   <g id="patch_32">
    <path d="M 341.584606 118.366338 
L 331.518957 121.990195 
L 337.960749 128.431987 
z
" clip-path="url(#p0925a24706)" style="fill: #bdbdbd"/>
   </g>
   <g id="patch_33">
    <path d="M 354.192453 105.758491 
L 274.046527 235.995619 
" clip-path="url(#p0925a24706)" style="fill: none; stroke: #bdbdbd; stroke-width: 1.8; stroke-linejoin: miter"/>
   </g>
   <g id="patch_34">
    <path d="M 268.973295 244.239623 
L 277.925861 238.382901 
L 270.167194 233.608337 
z
" clip-path="url(#p0925a24706)" style="fill: #bdbdbd"/>
   </g>
   <g id="patch_35">
    <path d="M 259.098113 200.85283 
L 195.343166 264.607777 
" clip-path="url(#p0925a24706)" style="fill: none; stroke: #bdbdbd; stroke-width: 1.8; stroke-linejoin: miter"/>
   </g>
   <g id="patch_36">
    <path d="M 188.498413 271.45253 
L 198.564062 267.828673 
L 192.12227 261.386881 
z
" clip-path="url(#p0925a24706)" style="fill: #bdbdbd"/>
   </g>
   <g id="patch_37">
    <path d="M 175.890566 284.060377 
L 233.743447 267.530983 
" clip-path="url(#p0925a24706)" style="fill: none; stroke: #bdbdbd; stroke-width: 1.8; stroke-linejoin: miter"/>
   </g>
   <g id="patch_38">
    <path d="M 243.050943 264.871698 
L 232.492083 263.151207 
L 234.994811 271.910758 
z
" clip-path="url(#p0925a24706)" style="fill: #bdbdbd"/>
   </g>
   <g id="patch_39">
    <path d="M 243.050943 276.333962 
L 275.145283 276.333962 
L 275.145283 244.239623 
L 243.050943 244.239623 
z
" clip-path="url(#p0925a24706)" style="fill: #29b6f6; stroke: #000000; stroke-width: 1.3; stroke-linejoin: miter"/>
   </g>
   <g id="patch_40">
    <path d="M 300.701887 260.286792 
L 318.532075 278.116981 
L 336.362264 260.286792 
L 318.532075 242.456604 
z
" clip-path="url(#p0925a24706)" style="fill: #ef5350; stroke: #000000; stroke-width: 1.3; stroke-linejoin: miter"/>
   </g>
   <g id="patch_41">
    <path d="M 241.267925 200.85283 
L 259.098113 218.683019 
L 276.928302 200.85283 
L 259.098113 183.022642 
z
" clip-path="url(#p0925a24706)" style="fill: #ef5350; stroke: #000000; stroke-width: 1.3; stroke-linejoin: miter"/>
   </g>
   <g id="patch_42">
    <path d="M 437.4 200.85283 
C 437.4 200.85283 437.4 200.85283 437.4 200.85283 
C 437.4 200.85283 437.4 200.85283 437.4 200.85283 
C 437.4 200.85283 437.4 200.85283 437.4 200.85283 
C 437.4 200.85283 437.4 200.85283 437.4 200.85283 
C 437.4 200.85283 437.4 200.85283 437.4 200.85283 
C 437.4 200.85283 437.4 200.85283 437.4 200.85283 
C 437.4 200.85283 437.4 200.85283 437.4 200.85283 
C 437.4 200.85283 437.4 200.85283 437.4 200.85283 
z
" clip-path="url(#p0925a24706)" style="fill: #ffffff; stroke: #000000; stroke-width: 1.3; stroke-linejoin: miter"/>
   </g>
   <g id="patch_43">
    <path d="M 282.871698 474.249057 
C 282.871698 474.249057 282.871698 474.249057 282.871698 474.249057 
C 282.871698 474.249057 282.871698 474.249057 282.871698 474.249057 
C 282.871698 474.249057 282.871698 474.249057 282.871698 474.249057 
C 282.871698 474.249057 282.871698 474.249057 282.871698 474.249057 
C 282.871698 474.249057 282.871698 474.249057 282.871698 474.249057 
C 282.871698 474.249057 282.871698 474.249057 282.871698 474.249057 
C 282.871698 474.249057 282.871698 474.249057 282.871698 474.249057 
C 282.871698 474.249057 282.871698 474.249057 282.871698 474.249057 
z
" clip-path="url(#p0925a24706)" style="fill: #ffffff; stroke: #000000; stroke-width: 1.3; stroke-linejoin: miter"/>
   </g>
   <g id="patch_44">
    <path d="M 270.984906 52.267925 
C 275.713527 52.267925 280.249113 50.389223 283.592753 47.045583 
C 286.936393 43.701943 288.815094 39.166357 288.815094 34.437736 
C 288.815094 29.709115 286.936393 25.173529 283.592753 21.829889 
C 280.249113 18.486248 275.713527 16.607547 270.984906 16.607547 
C 266.256284 16.607547 261.720699 18.486248 258.377058 21.829889 
C 255.033418 25.173529 253.154717 29.709115 253.154717 34.437736 
C 253.154717 39.166357 255.033418 43.701943 258.377058 47.045583 
C 261.720699 50.389223 266.256284 52.267925 270.984906 52.267925 
z
" clip-path="url(#p0925a24706)" style="fill: #ff5a5a; stroke: #000000; stroke-width: 1.3; stroke-linejoin: miter"/>
   </g>
   <g id="patch_45">
    <path d="M 45.135849 236.513208 
C 45.135849 236.513208 45.135849 236.513208 45.135849 236.513208 
C 45.135849 236.513208 45.135849 236.513208 45.135849 236.513208 
C 45.135849 236.513208 45.135849 236.513208 45.135849 236.513208 
C 45.135849 236.513208 45.135849 236.513208 45.135849 236.513208 
C 45.135849 236.513208 45.135849 236.513208 45.135849 236.513208 
C 45.135849 236.513208 45.135849 236.513208 45.135849 236.513208 
C 45.135849 236.513208 45.135849 236.513208 45.135849 236.513208 
C 45.135849 236.513208 45.135849 236.513208 45.135849 236.513208 
z
" clip-path="url(#p0925a24706)" style="fill: #ffffff; stroke: #000000; stroke-width: 1.3; stroke-linejoin: miter"/>
   </g>
   <g id="patch_46">
    <path d="M 389.85283 444.532075 
C 394.581452 444.532075 399.117037 442.653374 402.460678 439.309734 
C 405.804318 435.966094 407.683019 431.430508 407.683019 426.701887 
C 407.683019 421.973265 405.804318 417.43768 402.460678 414.094039 
C 399.117037 410.750399 394.581452 408.871698 389.85283 408.871698 
C 385.124209 408.871698 380.588623 410.750399 377.244983 414.094039 
C 373.901343 417.43768 372.022642 421.973265 372.022642 426.701887 
C 372.022642 431.430508 373.901343 435.966094 377.244983 439.309734 
C 380.588623 442.653374 385.124209 444.532075 389.85283 444.532075 
z
" clip-path="url(#p0925a24706)" style="fill: #ffbd5a; stroke: #000000; stroke-width: 1.3; stroke-linejoin: miter"/>
   </g>
   <g id="patch_47">
    <path d="M 366.079245 76.041509 
C 370.807867 76.041509 375.343452 74.162808 378.687093 70.819168 
C 382.030733 67.475528 383.909434 62.939942 383.909434 58.211321 
C 383.909434 53.482699 382.030733 48.947114 378.687093 45.603473 
C 375.343452 42.259833 370.807867 40.381132 366.079245 40.381132 
C 361.350624 40.381132 356.815038 42.259833 353.471398 45.603473 
C 350.127758 48.947114 348.249057 53.482699 348.249057 58.211321 
C 348.249057 62.939942 350.127758 67.475528 353.471398 70.819168 
C 356.815038 74.162808 361.350624 76.041509 366.079245 76.041509 
z
" clip-path="url(#p0925a24706)" style="fill: #5affba; stroke: #000000; stroke-width: 1.3; stroke-linejoin: miter"/>
   </g>
   <g id="patch_48">
    <path d="M 199.664151 99.815094 
C 204.392772 99.815094 208.928358 97.936393 212.271998 94.592753 
C 215.615638 91.249113 217.49434 86.713527 217.49434 81.984906 
C 217.49434 77.256284 215.615638 72.720699 212.271998 69.377058 
C 208.928358 66.033418 204.392772 64.154717 199.664151 64.154717 
C 194.93553 64.154717 190.399944 66.033418 187.056304 69.377058 
C 183.712663 72.720699 181.833962 77.256284 181.833962 81.984906 
C 181.833962 86.713527 183.712663 91.249113 187.056304 94.592753 
C 190.399944 97.936393 194.93553 99.815094 199.664151 99.815094 
z
" clip-path="url(#p0925a24706)" style="fill: #d4ff5a; stroke: #000000; stroke-width: 1.3; stroke-linejoin: miter"/>
   </g>
   <g id="patch_49">
    <path d="M 116.456604 391.041509 
C 116.456604 391.041509 116.456604 391.041509 116.456604 391.041509 
C 116.456604 391.041509 116.456604 391.041509 116.456604 391.041509 
C 116.456604 391.041509 116.456604 391.041509 116.456604 391.041509 
C 116.456604 391.041509 116.456604 391.041509 116.456604 391.041509 
C 116.456604 391.041509 116.456604 391.041509 116.456604 391.041509 
C 116.456604 391.041509 116.456604 391.041509 116.456604 391.041509 
C 116.456604 391.041509 116.456604 391.041509 116.456604 391.041509 
C 116.456604 391.041509 116.456604 391.041509 116.456604 391.041509 
z
" clip-path="url(#p0925a24706)" style="fill: #ffffff; stroke: #000000; stroke-width: 1.3; stroke-linejoin: miter"/>
   </g>
   <g id="patch_50">
    <path d="M 449.286792 295.94717 
C 449.286792 295.94717 449.286792 295.94717 449.286792 295.94717 
C 449.286792 295.94717 449.286792 295.94717 449.286792 295.94717 
C 449.286792 295.94717 449.286792 295.94717 449.286792 295.94717 
C 449.286792 295.94717 449.286792 295.94717 449.286792 295.94717 
C 449.286792 295.94717 449.286792 295.94717 449.286792 295.94717 
C 449.286792 295.94717 449.286792 295.94717 449.286792 295.94717 
C 449.286792 295.94717 449.286792 295.94717 449.286792 295.94717 
C 449.286792 295.94717 449.286792 295.94717 449.286792 295.94717 
z
" clip-path="url(#p0925a24706)" style="fill: #ffffff; stroke: #000000; stroke-width: 1.3; stroke-linejoin: miter"/>
   </g>
   <g id="patch_51">
    <path d="M 223.437736 468.30566 
C 228.166357 468.30566 232.701943 466.426959 236.045583 463.083319 
C 239.389223 459.739679 241.267925 455.204093 241.267925 450.475472 
C 241.267925 445.74685 239.389223 441.211265 236.045583 437.867624 
C 232.701943 434.523984 228.166357 432.645283 223.437736 432.645283 
C 218.709115 432.645283 214.173529 434.523984 210.829889 437.867624 
C 207.486248 441.211265 205.607547 445.74685 205.607547 450.475472 
C 205.607547 455.204093 207.486248 459.739679 210.829889 463.083319 
C 214.173529 466.426959 218.709115 468.30566 223.437736 468.30566 
z
" clip-path="url(#p0925a24706)" style="fill: #67ff5a; stroke: #000000; stroke-width: 1.3; stroke-linejoin: miter"/>
   </g>
   <g id="patch_52">
    <path d="M 437.4 141.418868 
C 437.4 141.418868 437.4 141.418868 437.4 141.418868 
C 437.4 141.418868 437.4 141.418868 437.4 141.418868 
C 437.4 141.418868 437.4 141.418868 437.4 141.418868 
C 437.4 141.418868 437.4 141.418868 437.4 141.418868 
C 437.4 141.418868 437.4 141.418868 437.4 141.418868 
C 437.4 141.418868 437.4 141.418868 437.4 141.418868 
C 437.4 141.418868 437.4 141.418868 437.4 141.418868 
C 437.4 141.418868 437.4 141.418868 437.4 141.418868 
z
" clip-path="url(#p0925a24706)" style="fill: #ffffff; stroke: #000000; stroke-width: 1.3; stroke-linejoin: miter"/>
   </g>
   <g id="patch_53">
    <path d="M 318.532075 474.249057 
C 318.532075 474.249057 318.532075 474.249057 318.532075 474.249057 
C 318.532075 474.249057 318.532075 474.249057 318.532075 474.249057 
C 318.532075 474.249057 318.532075 474.249057 318.532075 474.249057 
C 318.532075 474.249057 318.532075 474.249057 318.532075 474.249057 
C 318.532075 474.249057 318.532075 474.249057 318.532075 474.249057 
C 318.532075 474.249057 318.532075 474.249057 318.532075 474.249057 
C 318.532075 474.249057 318.532075 474.249057 318.532075 474.249057 
C 318.532075 474.249057 318.532075 474.249057 318.532075 474.249057 
z
" clip-path="url(#p0925a24706)" style="fill: #ffffff; stroke: #000000; stroke-width: 1.3; stroke-linejoin: miter"/>
   </g>
   <g id="patch_54">
    <path d="M 80.796226 165.192453 
C 80.796226 165.192453 80.796226 165.192453 80.796226 165.192453 
C 80.796226 165.192453 80.796226 165.192453 80.796226 165.192453 
C 80.796226 165.192453 80.796226 165.192453 80.796226 165.192453 
C 80.796226 165.192453 80.796226 165.192453 80.796226 165.192453 
C 80.796226 165.192453 80.796226 165.192453 80.796226 165.192453 
C 80.796226 165.192453 80.796226 165.192453 80.796226 165.192453 
C 80.796226 165.192453 80.796226 165.192453 80.796226 165.192453 
C 80.796226 165.192453 80.796226 165.192453 80.796226 165.192453 
z
" clip-path="url(#p0925a24706)" style="fill: #ffffff; stroke: #000000; stroke-width: 1.3; stroke-linejoin: miter"/>
   </g>
   <g id="patch_55">
    <path d="M 377.966038 438.588679 
C 377.966038 438.588679 377.966038 438.588679 377.966038 438.588679 
C 377.966038 438.588679 377.966038 438.588679 377.966038 438.588679 
C 377.966038 438.588679 377.966038 438.588679 377.966038 438.588679 
C 377.966038 438.588679 377.966038 438.588679 377.966038 438.588679 
C 377.966038 438.588679 377.966038 438.588679 377.966038 438.588679 
C 377.966038 438.588679 377.966038 438.588679 377.966038 438.588679 
C 377.966038 438.588679 377.966038 438.588679 377.966038 438.588679 
C 377.966038 438.588679 377.966038 438.588679 377.966038 438.588679 
z
" clip-path="url(#p0925a24706)" style="fill: #ffffff; stroke: #000000; stroke-width: 1.3; stroke-linejoin: miter"/>
   </g>
   <g id="patch_56">
    <path d="M 354.192453 123.588679 
C 358.921074 123.588679 363.45666 121.709978 366.8003 118.366338 
C 370.14394 115.022698 372.022642 110.487112 372.022642 105.758491 
C 372.022642 101.029869 370.14394 96.494283 366.8003 93.150643 
C 363.45666 89.807003 358.921074 87.928302 354.192453 87.928302 
C 349.463832 87.928302 344.928246 89.807003 341.584606 93.150643 
C 338.240965 96.494283 336.362264 101.029869 336.362264 105.758491 
C 336.362264 110.487112 338.240965 115.022698 341.584606 118.366338 
C 344.928246 121.709978 349.463832 123.588679 354.192453 123.588679 
z
" clip-path="url(#p0925a24706)" style="fill: #5a6aff; stroke: #000000; stroke-width: 1.3; stroke-linejoin: miter"/>
   </g>
   <g id="patch_57">
    <path d="M 175.890566 301.890566 
C 180.619187 301.890566 185.154773 300.011865 188.498413 296.668225 
C 191.842054 293.324584 193.720755 288.788999 193.720755 284.060377 
C 193.720755 279.331756 191.842054 274.79617 188.498413 271.45253 
C 185.154773 268.10889 180.619187 266.230189 175.890566 266.230189 
C 171.161945 266.230189 166.626359 268.10889 163.282719 271.45253 
C 159.939079 274.79617 158.060377 279.331756 158.060377 284.060377 
C 158.060377 288.788999 159.939079 293.324584 163.282719 296.668225 
C 166.626359 300.011865 171.161945 301.890566 175.890566 301.890566 
z
" clip-path="url(#p0925a24706)" style="fill: #90a4ae; stroke: #000000; stroke-width: 1.3; stroke-linejoin: miter"/>
   </g>
   <g id="patch_58">
    <path d="M 116.456604 93.871698 
C 116.456604 93.871698 116.456604 93.871698 116.456604 93.871698 
C 116.456604 93.871698 116.456604 93.871698 116.456604 93.871698 
C 116.456604 93.871698 116.456604 93.871698 116.456604 93.871698 
C 116.456604 93.871698 116.456604 93.871698 116.456604 93.871698 
C 116.456604 93.871698 116.456604 93.871698 116.456604 93.871698 
C 116.456604 93.871698 116.456604 93.871698 116.456604 93.871698 
C 116.456604 93.871698 116.456604 93.871698 116.456604 93.871698 
C 116.456604 93.871698 116.456604 93.871698 116.456604 93.871698 
z
" clip-path="url(#p0925a24706)" style="fill: #ffffff; stroke: #000000; stroke-width: 1.3; stroke-linejoin: miter"/>
   </g>
   <g id="patch_59">
    <path d="M 449.286792 319.720755 
C 449.286792 319.720755 449.286792 319.720755 449.286792 319.720755 
C 449.286792 319.720755 449.286792 319.720755 449.286792 319.720755 
C 449.286792 319.720755 449.286792 319.720755 449.286792 319.720755 
C 449.286792 319.720755 449.286792 319.720755 449.286792 319.720755 
C 449.286792 319.720755 449.286792 319.720755 449.286792 319.720755 
C 449.286792 319.720755 449.286792 319.720755 449.286792 319.720755 
C 449.286792 319.720755 449.286792 319.720755 449.286792 319.720755 
C 449.286792 319.720755 449.286792 319.720755 449.286792 319.720755 
z
" clip-path="url(#p0925a24706)" style="fill: #ffffff; stroke: #000000; stroke-width: 1.3; stroke-linejoin: miter"/>
   </g>
   <g id="patch_60">
    <path d="M 259.098113 40.381132 
C 263.826735 40.381132 268.36232 38.502431 271.705961 35.158791 
C 275.049601 31.815151 276.928302 27.279565 276.928302 22.550943 
C 276.928302 17.822322 275.049601 13.286736 271.705961 9.943096 
C 268.36232 6.599456 263.826735 4.720755 259.098113 4.720755 
C 254.369492 4.720755 249.833906 6.599456 246.490266 9.943096 
C 243.146626 13.286736 241.267925 17.822322 241.267925 22.550943 
C 241.267925 27.279565 243.146626 31.815151 246.490266 35.158791 
C 249.833906 38.502431 254.369492 40.381132 259.098113 40.381132 
z
" clip-path="url(#p0925a24706)" style="fill: #5acdff; stroke: #000000; stroke-width: 1.3; stroke-linejoin: miter"/>
   </g>
   <g id="patch_61">
    <path d="M 21.362264 260.286792 
C 21.362264 260.286792 21.362264 260.286792 21.362264 260.286792 
C 21.362264 260.286792 21.362264 260.286792 21.362264 260.286792 
C 21.362264 260.286792 21.362264 260.286792 21.362264 260.286792 
C 21.362264 260.286792 21.362264 260.286792 21.362264 260.286792 
C 21.362264 260.286792 21.362264 260.286792 21.362264 260.286792 
C 21.362264 260.286792 21.362264 260.286792 21.362264 260.286792 
C 21.362264 260.286792 21.362264 260.286792 21.362264 260.286792 
C 21.362264 260.286792 21.362264 260.286792 21.362264 260.286792 
z
" clip-path="url(#p0925a24706)" style="fill: #ffffff; stroke: #000000; stroke-width: 1.3; stroke-linejoin: miter"/>
   </g>
   <g id="text_1">
    <g clip-path="url(#p0925a24706)">
     <!-- 1 -->
     <g transform="translate(264.936624 39.826017)scale(0.22 -0.22)">
      <defs>
       <path id="UNAVAILABLE-31" d="M 3116 0 
L 550 0 
L 550 506 
L 1600 506 
L 1600 3488 
L 622 2956 
L 422 3419 
L 1722 4103 
L 2203 4103 
L 2203 506 
L 3116 506 
L 3116 0 
z
" transform="scale(0.015625)"/>
      </defs>
      <use xlink:href="#UNAVAILABLE-31"/>
     </g>
    </g>
   </g>
   <g id="text_2">
    <g clip-path="url(#p0925a24706)">
     <!-- 2 -->
     <g transform="translate(383.804549 432.090168)scale(0.22 -0.22)">
      <defs>
       <path id="UNAVAILABLE-32" d="M 3150 0 
L 459 0 
L 459 488 
L 1516 1538 
Q 1775 1794 1937 1981 
Q 2100 2169 2190 2323 
Q 2281 2478 2312 2615 
Q 2344 2753 2344 2913 
Q 2344 3063 2303 3198 
Q 2263 3334 2178 3437 
Q 2094 3541 1959 3600 
Q 1825 3659 1638 3659 
Q 1378 3659 1165 3543 
Q 953 3428 775 3244 
L 475 3603 
Q 706 3847 1007 3994 
Q 1309 4141 1709 4141 
Q 1981 4141 2204 4059 
Q 2428 3978 2590 3825 
Q 2753 3672 2842 3450 
Q 2931 3228 2931 2950 
Q 2931 2716 2868 2516 
Q 2806 2316 2679 2117 
Q 2553 1919 2361 1706 
Q 2169 1494 1906 1241 
L 1166 519 
L 3150 519 
L 3150 0 
z
" transform="scale(0.015625)"/>
      </defs>
      <use xlink:href="#UNAVAILABLE-32"/>
     </g>
    </g>
   </g>
   <g id="text_3">
    <g clip-path="url(#p0925a24706)">
     <!-- 5 -->
     <g transform="translate(360.030964 63.599602)scale(0.22 -0.22)">
      <defs>
       <path id="UNAVAILABLE-35" d="M 3047 1306 
Q 3047 1003 2915 753 
Q 2784 503 2554 323 
Q 2325 144 2012 44 
Q 1700 -56 1338 -56 
Q 1247 -56 1142 -51 
Q 1038 -47 934 -39 
Q 831 -31 732 -22 
Q 634 -13 556 0 
L 556 494 
Q 725 453 942 434 
Q 1159 416 1381 416 
Q 1631 416 1831 475 
Q 2031 534 2172 645 
Q 2313 756 2388 914 
Q 2463 1072 2463 1269 
Q 2463 1650 2189 1823 
Q 1916 1997 1403 1997 
L 628 1997 
L 628 4084 
L 2828 4084 
L 2828 3609 
L 1141 3609 
L 1141 2463 
L 1497 2463 
Q 1791 2463 2069 2409 
Q 2347 2356 2564 2223 
Q 2781 2091 2914 1867 
Q 3047 1644 3047 1306 
z
" transform="scale(0.015625)"/>
      </defs>
      <use xlink:href="#UNAVAILABLE-35"/>
     </g>
    </g>
   </g>
   <g id="text_4">
    <g clip-path="url(#p0925a24706)">
     <!-- 3 -->
     <g transform="translate(193.61587 87.373187)scale(0.22 -0.22)">
      <defs>
       <path id="UNAVAILABLE-33" d="M 3072 1241 
Q 3072 972 2962 736 
Q 2853 500 2634 323 
Q 2416 147 2084 45 
Q 1753 -56 1313 -56 
Q 1069 -56 875 -40 
Q 681 -25 513 0 
L 513 488 
Q 706 453 922 434 
Q 1138 416 1363 416 
Q 1669 416 1886 470 
Q 2103 525 2240 628 
Q 2378 731 2440 878 
Q 2503 1025 2503 1209 
Q 2503 1378 2428 1503 
Q 2353 1628 2217 1712 
Q 2081 1797 1892 1839 
Q 1703 1881 1478 1881 
L 1013 1881 
L 1013 2328 
L 1484 2328 
Q 1669 2328 1820 2376 
Q 1972 2425 2080 2515 
Q 2188 2606 2245 2739 
Q 2303 2872 2303 3041 
Q 2303 3369 2103 3519 
Q 1903 3669 1516 3669 
Q 1309 3669 1090 3628 
Q 872 3588 622 3506 
L 622 3981 
Q 728 4019 848 4048 
Q 969 4078 1089 4098 
Q 1209 4119 1328 4130 
Q 1447 4141 1556 4141 
Q 1881 4141 2128 4070 
Q 2375 4000 2540 3869 
Q 2706 3738 2790 3550 
Q 2875 3363 2875 3128 
Q 2875 2778 2695 2540 
Q 2516 2303 2203 2163 
Q 2363 2138 2517 2063 
Q 2672 1988 2795 1870 
Q 2919 1753 2995 1593 
Q 3072 1434 3072 1241 
z
" transform="scale(0.015625)"/>
      </defs>
      <use xlink:href="#UNAVAILABLE-33"/>
     </g>
    </g>
   </g>
   <g id="text_5">
    <g clip-path="url(#p0925a24706)">
     <!-- 4 -->
     <g transform="translate(217.389455 455.863753)scale(0.22 -0.22)">
      <defs>
       <path id="UNAVAILABLE-34" d="M 3353 903 
L 2656 903 
L 2656 0 
L 2100 0 
L 2100 903 
L 134 903 
L 134 1381 
L 1875 4084 
L 2656 4084 
L 2656 1381 
L 3353 1381 
L 3353 903 
z
M 2100 3559 
L 678 1381 
L 2100 1381 
L 2100 3559 
z
" transform="scale(0.015625)"/>
      </defs>
      <use xlink:href="#UNAVAILABLE-34"/>
     </g>
    </g>
   </g>
   <g id="text_6">
    <g clip-path="url(#p0925a24706)">
     <!-- 7 -->
     <g transform="translate(348.144172 111.146772)scale(0.22 -0.22)">
      <defs>
       <path id="UNAVAILABLE-37" d="M 3128 3578 
L 1416 0 
L 794 0 
L 2572 3578 
L 366 3578 
L 366 4084 
L 3128 4084 
L 3128 3578 
z
" transform="scale(0.015625)"/>
      </defs>
      <use xlink:href="#UNAVAILABLE-37"/>
     </g>
    </g>
   </g>
   <g id="text_7">
    <g clip-path="url(#p0925a24706)">
     <!-- 8 -->
     <g transform="translate(169.842285 289.448659)scale(0.22 -0.22)">
      <defs>
       <path id="UNAVAILABLE-38" d="M 3150 1025 
Q 3150 766 3044 564 
Q 2938 363 2747 225 
Q 2556 88 2297 16 
Q 2038 -56 1734 -56 
Q 1400 -56 1145 19 
Q 891 94 719 228 
Q 547 363 459 547 
Q 372 731 372 953 
Q 372 1328 581 1600 
Q 791 1872 1228 2094 
Q 828 2297 643 2545 
Q 459 2794 459 3116 
Q 459 3313 540 3497 
Q 622 3681 786 3825 
Q 950 3969 1197 4055 
Q 1444 4141 1778 4141 
Q 2094 4141 2333 4073 
Q 2572 4006 2734 3881 
Q 2897 3756 2978 3578 
Q 3059 3400 3059 3181 
Q 3059 2825 2861 2575 
Q 2663 2325 2297 2138 
Q 2478 2047 2634 1937 
Q 2791 1828 2906 1693 
Q 3022 1559 3086 1393 
Q 3150 1228 3150 1025 
z
M 2503 3138 
Q 2503 3416 2308 3552 
Q 2113 3688 1759 3688 
Q 1409 3688 1214 3553 
Q 1019 3419 1019 3150 
Q 1019 3028 1066 2925 
Q 1113 2822 1211 2731 
Q 1309 2641 1456 2553 
Q 1603 2466 1806 2375 
Q 2159 2541 2331 2720 
Q 2503 2900 2503 3138 
z
M 2559 984 
Q 2559 1100 2521 1209 
Q 2484 1319 2387 1425 
Q 2291 1531 2128 1637 
Q 1966 1744 1716 1856 
Q 1503 1753 1358 1651 
Q 1213 1550 1123 1445 
Q 1034 1341 996 1228 
Q 959 1116 959 991 
Q 959 850 1020 742 
Q 1081 634 1187 559 
Q 1294 484 1441 446 
Q 1588 409 1759 409 
Q 1925 409 2072 443 
Q 2219 478 2326 548 
Q 2434 619 2496 726 
Q 2559 834 2559 984 
z
" transform="scale(0.015625)"/>
      </defs>
      <use xlink:href="#UNAVAILABLE-38"/>
     </g>
    </g>
   </g>
   <g id="text_8">
    <g clip-path="url(#p0925a24706)">
     <!-- 6 -->
     <g transform="translate(253.049832 27.939225)scale(0.22 -0.22)">
      <defs>
       <path id="UNAVAILABLE-36" d="M 3200 1294 
Q 3200 1013 3098 766 
Q 2997 519 2809 336 
Q 2622 153 2358 48 
Q 2094 -56 1772 -56 
Q 1434 -56 1175 51 
Q 916 159 741 382 
Q 566 606 475 947 
Q 384 1288 384 1753 
Q 384 2066 425 2359 
Q 466 2653 559 2912 
Q 653 3172 809 3387 
Q 966 3603 1198 3758 
Q 1431 3913 1747 3998 
Q 2063 4084 2478 4084 
L 2881 4084 
L 2881 3609 
L 2444 3609 
Q 2078 3609 1809 3521 
Q 1541 3434 1359 3275 
Q 1178 3116 1081 2891 
Q 984 2666 959 2388 
L 947 2259 
Q 1144 2375 1401 2445 
Q 1659 2516 1959 2516 
Q 2269 2516 2501 2425 
Q 2734 2334 2889 2173 
Q 3044 2013 3122 1788 
Q 3200 1563 3200 1294 
z
M 2631 1259 
Q 2631 1447 2586 1598 
Q 2541 1750 2444 1854 
Q 2347 1959 2198 2017 
Q 2050 2075 1844 2075 
Q 1725 2075 1603 2053 
Q 1481 2031 1364 1992 
Q 1247 1953 1140 1903 
Q 1034 1853 947 1797 
Q 947 1394 1003 1123 
Q 1059 853 1170 690 
Q 1281 528 1443 459 
Q 1606 391 1819 391 
Q 1997 391 2145 448 
Q 2294 506 2401 618 
Q 2509 731 2570 892 
Q 2631 1053 2631 1259 
z
" transform="scale(0.015625)"/>
      </defs>
      <use xlink:href="#UNAVAILABLE-36"/>
     </g>
    </g>
   </g>
   <g id="matplotlib.axis_1"/>
   <g id="matplotlib.axis_2"/>
  </g>
 </g>
 <defs>
  <clipPath id="p0925a24706">
   <rect x="-28.8" y="-28.8" width="528.249057" height="554.4"/>
  </clipPath>
 </defs>
</svg>
