<?xml version="1.0" encoding="utf-8" standalone="no"?>
<!DOCTYPE svg PUBLIC "-//W3C//DTD SVG 1.1//EN"
  "http://www.w3.org/Graphics/SVG/1.1/DTD/svg11.dtd">
<svg xmlns:xlink="http://www.w3.org/1999/xlink" width="460.8pt" height="345.6pt" viewBox="0 0 460.8 345.6" xmlns="http://www.w3.org/2000/svg" version="1.1">
 <metadata>
  <rdf:RDF xmlns:dc="http://purl.org/dc/elements/1.1/" xmlns:cc="http://creativecommons.org/ns#" xmlns:rdf="http://www.w3.org/1999/02/22-rdf-syntax-ns#">
   <cc:Work>
    <dc:type rdf:resource="http://purl.org/dc/dcmitype/StillImage"/>
    <dc:date>2023-09-01T16:29:41.547728</dc:date>
    <dc:format>image/svg+xml</dc:format>
    <dc:creator>
     <cc:Agent>
      <dc:title>Matplotlib v3.5.2, https://matplotlib.org/</dc:title>
     </cc:Agent>
    </dc:creator>
   </cc:Work>
  </rdf:RDF>
 </metadata>
 <defs>
  <style type="text/css">*{stroke-linejoin: round; stroke-linecap: butt}</style>
 </defs>
 <g id="figure_1">
  <g id="patch_1">
   <path d="M 0 345.6 
L 460.8 345.6 
L 460.8 0 
L 0 0 
z
" style="fill: #ffffff"/>
  </g>
  <g id="axes_1">
   <g id="patch_2">
    <path d="M 57.6 307.584 
L 414.72 307.584 
L 414.72 41.472 
L 57.6 41.472 
z
" style="fill: #ffffff"/>
   </g>
   <g id="matplotlib.axis_1">
    <g id="xtick_1">
     <g id="line2d_1">
      <path d="M 87.538896 307.584 
L 87.538896 41.472 
" clip-path="url(#p565ea809e2)" style="fill: none; stroke-dasharray: 2.96,1.28; stroke-dashoffset: 0; stroke: #b0b0b0; stroke-opacity: 0.8; stroke-width: 0.8"/>
     </g>
     <g id="line2d_2">
      <defs>
       <path id="maa67c7c25d" d="M 0 0 
L 0 3.5 
" style="stroke: #000000; stroke-width: 0.8"/>
      </defs>
      <g>
       <use xlink:href="#maa67c7c25d" x="87.538896" y="307.584" style="stroke: #000000; stroke-width: 0.8"/>
      </g>
     </g>
     <g id="text_1">
      <!-- 1 -->
      <g transform="translate(84.239833 322.864)scale(0.12 -0.12)">
       <defs>
        <path id="UNAVAILABLE-31" d="M 3116 0 
L 550 0 
L 550 506 
L 1600 506 
L 1600 3488 
L 622 2956 
L 422 3419 
L 1722 4103 
L 2203 4103 
L 2203 506 
L 3116 506 
L 3116 0 
z
" transform="scale(0.015625)"/>
       </defs>
       <use xlink:href="#UNAVAILABLE-31"/>
      </g>
     </g>
    </g>
    <g id="xtick_2">
     <g id="line2d_3">
      <path d="M 120.565808 307.584 
L 120.565808 41.472 
" clip-path="url(#p565ea809e2)" style="fill: none; stroke-dasharray: 2.96,1.28; stroke-dashoffset: 0; stroke: #b0b0b0; stroke-opacity: 0.8; stroke-width: 0.8"/>
     </g>
     <g id="line2d_4">
      <g>
       <use xlink:href="#maa67c7c25d" x="120.565808" y="307.584" style="stroke: #000000; stroke-width: 0.8"/>
      </g>
     </g>
     <g id="text_2">
      <!-- 2 -->
      <g transform="translate(117.266745 322.864)scale(0.12 -0.12)">
       <defs>
        <path id="UNAVAILABLE-32" d="M 3150 0 
L 459 0 
L 459 488 
L 1516 1538 
Q 1775 1794 1937 1981 
Q 2100 2169 2190 2323 
Q 2281 2478 2312 2615 
Q 2344 2753 2344 2913 
Q 2344 3063 2303 3198 
Q 2263 3334 2178 3437 
Q 2094 3541 1959 3600 
Q 1825 3659 1638 3659 
Q 1378 3659 1165 3543 
Q 953 3428 775 3244 
L 475 3603 
Q 706 3847 1007 3994 
Q 1309 4141 1709 4141 
Q 1981 4141 2204 4059 
Q 2428 3978 2590 3825 
Q 2753 3672 2842 3450 
Q 2931 3228 2931 2950 
Q 2931 2716 2868 2516 
Q 2806 2316 2679 2117 
Q 2553 1919 2361 1706 
Q 2169 1494 1906 1241 
L 1166 519 
L 3150 519 
L 3150 0 
z
" transform="scale(0.015625)"/>
       </defs>
       <use xlink:href="#UNAVAILABLE-32"/>
      </g>
     </g>
    </g>
    <g id="xtick_3">
     <g id="line2d_5">
      <path d="M 153.59272 307.584 
L 153.59272 41.472 
" clip-path="url(#p565ea809e2)" style="fill: none; stroke-dasharray: 2.96,1.28; stroke-dashoffset: 0; stroke: #b0b0b0; stroke-opacity: 0.8; stroke-width: 0.8"/>
     </g>
     <g id="line2d_6">
      <g>
       <use xlink:href="#maa67c7c25d" x="153.59272" y="307.584" style="stroke: #000000; stroke-width: 0.8"/>
      </g>
     </g>
     <g id="text_3">
      <!-- 3 -->
      <g transform="translate(150.293657 322.864)scale(0.12 -0.12)">
       <defs>
        <path id="UNAVAILABLE-33" d="M 3072 1241 
Q 3072 972 2962 736 
Q 2853 500 2634 323 
Q 2416 147 2084 45 
Q 1753 -56 1313 -56 
Q 1069 -56 875 -40 
Q 681 -25 513 0 
L 513 488 
Q 706 453 922 434 
Q 1138 416 1363 416 
Q 1669 416 1886 470 
Q 2103 525 2240 628 
Q 2378 731 2440 878 
Q 2503 1025 2503 1209 
Q 2503 1378 2428 1503 
Q 2353 1628 2217 1712 
Q 2081 1797 1892 1839 
Q 1703 1881 1478 1881 
L 1013 1881 
L 1013 2328 
L 1484 2328 
Q 1669 2328 1820 2376 
Q 1972 2425 2080 2515 
Q 2188 2606 2245 2739 
Q 2303 2872 2303 3041 
Q 2303 3369 2103 3519 
Q 1903 3669 1516 3669 
Q 1309 3669 1090 3628 
Q 872 3588 622 3506 
L 622 3981 
Q 728 4019 848 4048 
Q 969 4078 1089 4098 
Q 1209 4119 1328 4130 
Q 1447 4141 1556 4141 
Q 1881 4141 2128 4070 
Q 2375 4000 2540 3869 
Q 2706 3738 2790 3550 
Q 2875 3363 2875 3128 
Q 2875 2778 2695 2540 
Q 2516 2303 2203 2163 
Q 2363 2138 2517 2063 
Q 2672 1988 2795 1870 
Q 2919 1753 2995 1593 
Q 3072 1434 3072 1241 
z
" transform="scale(0.015625)"/>
       </defs>
       <use xlink:href="#UNAVAILABLE-33"/>
      </g>
     </g>
    </g>
    <g id="xtick_4">
     <g id="line2d_7">
      <path d="M 186.619632 307.584 
L 186.619632 41.472 
" clip-path="url(#p565ea809e2)" style="fill: none; stroke-dasharray: 2.96,1.28; stroke-dashoffset: 0; stroke: #b0b0b0; stroke-opacity: 0.8; stroke-width: 0.8"/>
     </g>
     <g id="line2d_8">
      <g>
       <use xlink:href="#maa67c7c25d" x="186.619632" y="307.584" style="stroke: #000000; stroke-width: 0.8"/>
      </g>
     </g>
     <g id="text_4">
      <!-- 4 -->
      <g transform="translate(183.320569 322.864)scale(0.12 -0.12)">
       <defs>
        <path id="UNAVAILABLE-34" d="M 3353 903 
L 2656 903 
L 2656 0 
L 2100 0 
L 2100 903 
L 134 903 
L 134 1381 
L 1875 4084 
L 2656 4084 
L 2656 1381 
L 3353 1381 
L 3353 903 
z
M 2100 3559 
L 678 1381 
L 2100 1381 
L 2100 3559 
z
" transform="scale(0.015625)"/>
       </defs>
       <use xlink:href="#UNAVAILABLE-34"/>
      </g>
     </g>
    </g>
    <g id="xtick_5">
     <g id="line2d_9">
      <path d="M 219.646544 307.584 
L 219.646544 41.472 
" clip-path="url(#p565ea809e2)" style="fill: none; stroke-dasharray: 2.96,1.28; stroke-dashoffset: 0; stroke: #b0b0b0; stroke-opacity: 0.8; stroke-width: 0.8"/>
     </g>
     <g id="line2d_10">
      <g>
       <use xlink:href="#maa67c7c25d" x="219.646544" y="307.584" style="stroke: #000000; stroke-width: 0.8"/>
      </g>
     </g>
     <g id="text_5">
      <!-- 5 -->
      <g transform="translate(216.347481 322.864)scale(0.12 -0.12)">
       <defs>
        <path id="UNAVAILABLE-35" d="M 3047 1306 
Q 3047 1003 2915 753 
Q 2784 503 2554 323 
Q 2325 144 2012 44 
Q 1700 -56 1338 -56 
Q 1247 -56 1142 -51 
Q 1038 -47 934 -39 
Q 831 -31 732 -22 
Q 634 -13 556 0 
L 556 494 
Q 725 453 942 434 
Q 1159 416 1381 416 
Q 1631 416 1831 475 
Q 2031 534 2172 645 
Q 2313 756 2388 914 
Q 2463 1072 2463 1269 
Q 2463 1650 2189 1823 
Q 1916 1997 1403 1997 
L 628 1997 
L 628 4084 
L 2828 4084 
L 2828 3609 
L 1141 3609 
L 1141 2463 
L 1497 2463 
Q 1791 2463 2069 2409 
Q 2347 2356 2564 2223 
Q 2781 2091 2914 1867 
Q 3047 1644 3047 1306 
z
" transform="scale(0.015625)"/>
       </defs>
       <use xlink:href="#UNAVAILABLE-35"/>
      </g>
     </g>
    </g>
    <g id="xtick_6">
     <g id="line2d_11">
      <path d="M 252.673456 307.584 
L 252.673456 41.472 
" clip-path="url(#p565ea809e2)" style="fill: none; stroke-dasharray: 2.96,1.28; stroke-dashoffset: 0; stroke: #b0b0b0; stroke-opacity: 0.8; stroke-width: 0.8"/>
     </g>
     <g id="line2d_12">
      <g>
       <use xlink:href="#maa67c7c25d" x="252.673456" y="307.584" style="stroke: #000000; stroke-width: 0.8"/>
      </g>
     </g>
     <g id="text_6">
      <!-- 6 -->
      <g transform="translate(249.374394 322.864)scale(0.12 -0.12)">
       <defs>
        <path id="UNAVAILABLE-36" d="M 3200 1294 
Q 3200 1013 3098 766 
Q 2997 519 2809 336 
Q 2622 153 2358 48 
Q 2094 -56 1772 -56 
Q 1434 -56 1175 51 
Q 916 159 741 382 
Q 566 606 475 947 
Q 384 1288 384 1753 
Q 384 2066 425 2359 
Q 466 2653 559 2912 
Q 653 3172 809 3387 
Q 966 3603 1198 3758 
Q 1431 3913 1747 3998 
Q 2063 4084 2478 4084 
L 2881 4084 
L 2881 3609 
L 2444 3609 
Q 2078 3609 1809 3521 
Q 1541 3434 1359 3275 
Q 1178 3116 1081 2891 
Q 984 2666 959 2388 
L 947 2259 
Q 1144 2375 1401 2445 
Q 1659 2516 1959 2516 
Q 2269 2516 2501 2425 
Q 2734 2334 2889 2173 
Q 3044 2013 3122 1788 
Q 3200 1563 3200 1294 
z
M 2631 1259 
Q 2631 1447 2586 1598 
Q 2541 1750 2444 1854 
Q 2347 1959 2198 2017 
Q 2050 2075 1844 2075 
Q 1725 2075 1603 2053 
Q 1481 2031 1364 1992 
Q 1247 1953 1140 1903 
Q 1034 1853 947 1797 
Q 947 1394 1003 1123 
Q 1059 853 1170 690 
Q 1281 528 1443 459 
Q 1606 391 1819 391 
Q 1997 391 2145 448 
Q 2294 506 2401 618 
Q 2509 731 2570 892 
Q 2631 1053 2631 1259 
z
" transform="scale(0.015625)"/>
       </defs>
       <use xlink:href="#UNAVAILABLE-36"/>
      </g>
     </g>
    </g>
    <g id="xtick_7">
     <g id="line2d_13">
      <path d="M 285.700368 307.584 
L 285.700368 41.472 
" clip-path="url(#p565ea809e2)" style="fill: none; stroke-dasharray: 2.96,1.28; stroke-dashoffset: 0; stroke: #b0b0b0; stroke-opacity: 0.8; stroke-width: 0.8"/>
     </g>
     <g id="line2d_14">
      <g>
       <use xlink:href="#maa67c7c25d" x="285.700368" y="307.584" style="stroke: #000000; stroke-width: 0.8"/>
      </g>
     </g>
     <g id="text_7">
      <!-- 7 -->
      <g transform="translate(282.401306 322.864)scale(0.12 -0.12)">
       <defs>
        <path id="UNAVAILABLE-37" d="M 3128 3578 
L 1416 0 
L 794 0 
L 2572 3578 
L 366 3578 
L 366 4084 
L 3128 4084 
L 3128 3578 
z
" transform="scale(0.015625)"/>
       </defs>
       <use xlink:href="#UNAVAILABLE-37"/>
      </g>
     </g>
    </g>
    <g id="xtick_8">
     <g id="line2d_15">
      <path d="M 318.72728 307.584 
L 318.72728 41.472 
" clip-path="url(#p565ea809e2)" style="fill: none; stroke-dasharray: 2.96,1.28; stroke-dashoffset: 0; stroke: #b0b0b0; stroke-opacity: 0.8; stroke-width: 0.8"/>
     </g>
     <g id="line2d_16">
      <g>
       <use xlink:href="#maa67c7c25d" x="318.72728" y="307.584" style="stroke: #000000; stroke-width: 0.8"/>
      </g>
     </g>
     <g id="text_8">
      <!-- 8 -->
      <g transform="translate(315.428218 322.864)scale(0.12 -0.12)">
       <defs>
        <path id="UNAVAILABLE-38" d="M 3150 1025 
Q 3150 766 3044 564 
Q 2938 363 2747 225 
Q 2556 88 2297 16 
Q 2038 -56 1734 -56 
Q 1400 -56 1145 19 
Q 891 94 719 228 
Q 547 363 459 547 
Q 372 731 372 953 
Q 372 1328 581 1600 
Q 791 1872 1228 2094 
Q 828 2297 643 2545 
Q 459 2794 459 3116 
Q 459 3313 540 3497 
Q 622 3681 786 3825 
Q 950 3969 1197 4055 
Q 1444 4141 1778 4141 
Q 2094 4141 2333 4073 
Q 2572 4006 2734 3881 
Q 2897 3756 2978 3578 
Q 3059 3400 3059 3181 
Q 3059 2825 2861 2575 
Q 2663 2325 2297 2138 
Q 2478 2047 2634 1937 
Q 2791 1828 2906 1693 
Q 3022 1559 3086 1393 
Q 3150 1228 3150 1025 
z
M 2503 3138 
Q 2503 3416 2308 3552 
Q 2113 3688 1759 3688 
Q 1409 3688 1214 3553 
Q 1019 3419 1019 3150 
Q 1019 3028 1066 2925 
Q 1113 2822 1211 2731 
Q 1309 2641 1456 2553 
Q 1603 2466 1806 2375 
Q 2159 2541 2331 2720 
Q 2503 2900 2503 3138 
z
M 2559 984 
Q 2559 1100 2521 1209 
Q 2484 1319 2387 1425 
Q 2291 1531 2128 1637 
Q 1966 1744 1716 1856 
Q 1503 1753 1358 1651 
Q 1213 1550 1123 1445 
Q 1034 1341 996 1228 
Q 959 1116 959 991 
Q 959 850 1020 742 
Q 1081 634 1187 559 
Q 1294 484 1441 446 
Q 1588 409 1759 409 
Q 1925 409 2072 443 
Q 2219 478 2326 548 
Q 2434 619 2496 726 
Q 2559 834 2559 984 
z
" transform="scale(0.015625)"/>
       </defs>
       <use xlink:href="#UNAVAILABLE-38"/>
      </g>
     </g>
    </g>
    <g id="xtick_9">
     <g id="line2d_17">
      <path d="M 351.754192 307.584 
L 351.754192 41.472 
" clip-path="url(#p565ea809e2)" style="fill: none; stroke-dasharray: 2.96,1.28; stroke-dashoffset: 0; stroke: #b0b0b0; stroke-opacity: 0.8; stroke-width: 0.8"/>
     </g>
     <g id="line2d_18">
      <g>
       <use xlink:href="#maa67c7c25d" x="351.754192" y="307.584" style="stroke: #000000; stroke-width: 0.8"/>
      </g>
     </g>
     <g id="text_9">
      <!-- 9 -->
      <g transform="translate(348.45513 322.864)scale(0.12 -0.12)">
       <defs>
        <path id="UNAVAILABLE-39" d="M 3128 2272 
Q 3128 1675 2984 1245 
Q 2841 816 2559 539 
Q 2278 263 1862 131 
Q 1447 0 903 0 
L 563 0 
L 563 475 
L 941 475 
Q 1344 475 1637 556 
Q 1931 638 2126 795 
Q 2322 953 2425 1179 
Q 2528 1406 2553 1697 
L 2566 1825 
Q 2369 1709 2112 1639 
Q 1856 1569 1556 1569 
Q 1247 1569 1012 1659 
Q 778 1750 623 1912 
Q 469 2075 391 2298 
Q 313 2522 313 2784 
Q 313 3069 416 3316 
Q 519 3563 705 3745 
Q 891 3928 1150 4034 
Q 1409 4141 1722 4141 
Q 2025 4141 2283 4041 
Q 2541 3941 2728 3717 
Q 2916 3494 3022 3137 
Q 3128 2781 3128 2272 
z
M 1697 3694 
Q 1522 3694 1373 3636 
Q 1225 3578 1117 3467 
Q 1009 3356 946 3193 
Q 884 3031 884 2822 
Q 884 2631 929 2481 
Q 975 2331 1070 2226 
Q 1166 2122 1316 2065 
Q 1466 2009 1672 2009 
Q 1788 2009 1911 2031 
Q 2034 2053 2151 2090 
Q 2269 2128 2375 2178 
Q 2481 2228 2566 2284 
Q 2566 2688 2506 2958 
Q 2447 3228 2334 3392 
Q 2222 3556 2061 3625 
Q 1900 3694 1697 3694 
z
" transform="scale(0.015625)"/>
       </defs>
       <use xlink:href="#UNAVAILABLE-39"/>
      </g>
     </g>
    </g>
    <g id="xtick_10">
     <g id="line2d_19">
      <path d="M 384.781104 307.584 
L 384.781104 41.472 
" clip-path="url(#p565ea809e2)" style="fill: none; stroke-dasharray: 2.96,1.28; stroke-dashoffset: 0; stroke: #b0b0b0; stroke-opacity: 0.8; stroke-width: 0.8"/>
     </g>
     <g id="line2d_20">
      <g>
       <use xlink:href="#maa67c7c25d" x="384.781104" y="307.584" style="stroke: #000000; stroke-width: 0.8"/>
      </g>
     </g>
     <g id="text_10">
      <!-- 10 -->
      <g transform="translate(378.182979 322.864)scale(0.12 -0.12)">
       <defs>
        <path id="UNAVAILABLE-30" d="M 3244 2041 
Q 3244 1572 3150 1186 
Q 3056 800 2865 523 
Q 2675 247 2392 95 
Q 2109 -56 1728 -56 
Q 1400 -56 1131 67 
Q 863 191 672 447 
Q 481 703 378 1100 
Q 275 1497 275 2041 
Q 275 2509 370 2896 
Q 466 3284 655 3561 
Q 844 3838 1128 3989 
Q 1413 4141 1791 4141 
Q 2119 4141 2387 4017 
Q 2656 3894 2847 3636 
Q 3038 3378 3141 2981 
Q 3244 2584 3244 2041 
z
M 2694 2022 
Q 2694 2128 2686 2233 
Q 2678 2338 2669 2438 
L 941 1153 
Q 988 991 1059 853 
Q 1131 716 1232 617 
Q 1334 519 1464 464 
Q 1594 409 1759 409 
Q 1972 409 2145 512 
Q 2319 616 2441 819 
Q 2563 1022 2628 1323 
Q 2694 1625 2694 2022 
z
M 825 2059 
Q 825 1963 826 1866 
Q 828 1769 838 1678 
L 2566 2956 
Q 2519 3116 2447 3247 
Q 2375 3378 2275 3473 
Q 2175 3569 2047 3622 
Q 1919 3675 1759 3675 
Q 1547 3675 1373 3572 
Q 1200 3469 1078 3264 
Q 956 3059 890 2757 
Q 825 2456 825 2059 
z
" transform="scale(0.015625)"/>
       </defs>
       <use xlink:href="#UNAVAILABLE-31"/>
       <use xlink:href="#UNAVAILABLE-30" x="54.980469"/>
      </g>
     </g>
    </g>
    <g id="text_11">
     <!-- 无人机个数 -->
     <g transform="translate(206.16 338.558375)scale(0.12 -0.12)">
      <defs>
       <path id="UNAVAILABLE-65e0" d="M 200 2878 
L 2650 2878 
Q 2781 3528 2806 4328 
L 675 4328 
L 675 4816 
L 5750 4816 
L 5750 4328 
L 3331 4328 
Q 3288 3528 3169 2878 
L 6225 2878 
L 6225 2391 
L 3063 2391 
Q 2588 278 450 -884 
Q 313 -672 113 -441 
Q 1975 491 2538 2391 
L 200 2391 
L 200 2878 
z
M 3400 1941 
L 3906 1941 
L 3906 297 
Q 3906 -197 4363 -197 
L 5219 -197 
Q 5644 -197 5700 172 
Q 5750 528 5775 1097 
Q 6013 1009 6300 916 
Q 6238 297 6188 -16 
Q 6106 -641 5300 -641 
L 4219 -641 
Q 3400 -641 3400 222 
L 3400 1941 
z
" transform="scale(0.015625)"/>
       <path id="UNAVAILABLE-4eba" d="M 100 -303 
Q 2825 1272 2981 5222 
L 3531 5222 
Q 3497 4553 3400 3947 
Q 4175 822 6313 -166 
Q 6050 -453 5850 -709 
Q 3994 341 3203 3006 
Q 2519 431 494 -778 
Q 325 -547 100 -303 
z
" transform="scale(0.015625)"/>
       <path id="UNAVAILABLE-673a" d="M 3375 4434 
L 3375 2366 
Q 3375 128 2256 -878 
Q 2081 -666 1888 -453 
Q 2875 416 2875 2253 
L 2875 4909 
L 5200 4909 
L 5200 209 
Q 5200 -103 5419 -103 
L 5563 -103 
Q 5763 -103 5819 247 
Q 5881 728 5906 1284 
Q 6125 1178 6381 1084 
Q 6325 466 6269 72 
Q 6169 -591 5631 -591 
L 5300 -591 
Q 4700 -591 4700 122 
L 4700 4434 
L 3375 4434 
z
M 81 1403 
Q 781 2447 1078 3653 
L 144 3653 
L 144 4078 
L 1119 4078 
L 1119 5309 
L 1569 5309 
L 1569 4078 
L 2444 4078 
L 2444 3653 
L 1569 3653 
L 1569 2616 
L 1819 2866 
Q 2300 2428 2575 2153 
L 2238 1809 
Q 1853 2234 1569 2516 
L 1569 -784 
L 1119 -784 
L 1119 2566 
Q 784 1506 288 853 
Q 188 1134 81 1403 
z
" transform="scale(0.015625)"/>
       <path id="UNAVAILABLE-4e2a" d="M 2913 3028 
L 3481 3028 
L 3481 -841 
L 2913 -841 
L 2913 3028 
z
M 3600 5178 
L 3506 5034 
Q 4519 3366 6319 2647 
Q 6125 2341 5988 2084 
Q 4150 3047 3206 4566 
Q 2281 3122 400 1997 
Q 263 2222 81 2491 
Q 2031 3572 2981 5178 
L 3600 5178 
z
" transform="scale(0.015625)"/>
       <path id="UNAVAILABLE-6570" d="M 4175 5303 
L 4675 5228 
Q 4544 4622 4369 4097 
L 6281 4097 
L 6281 3672 
L 5888 3672 
Q 5731 1834 5088 753 
Q 5594 66 6375 -372 
Q 6175 -647 6038 -866 
Q 5275 -372 4769 309 
Q 4194 -403 3400 -928 
Q 3263 -747 3044 -534 
Q 3919 41 4463 772 
Q 3956 1647 3794 2791 
Q 3663 2559 3519 2359 
Q 3394 2541 3206 2759 
Q 3931 3803 4175 5303 
z
M 150 1697 
L 1100 1697 
Q 1238 1934 1369 2184 
L 1819 2041 
Q 1719 1866 1619 1697 
L 3150 1697 
L 3150 1291 
Q 2913 678 2431 216 
Q 2775 53 3131 -109 
L 2856 -541 
Q 2469 -322 2050 -103 
Q 1344 -609 269 -903 
Q 169 -703 56 -466 
Q 969 -259 1600 128 
Q 1063 403 475 691 
Q 675 978 863 1284 
L 150 1284 
L 150 1697 
z
M 219 3847 
L 1656 3847 
L 1656 5247 
L 2119 5247 
L 2119 3847 
L 3319 3847 
L 3319 3434 
L 2119 3434 
L 2119 3053 
L 2306 3266 
Q 2888 2841 3281 2516 
L 2981 2166 
Q 2638 2491 2119 2897 
L 2119 2184 
L 1656 2184 
L 1656 3059 
Q 1088 2466 331 2016 
Q 213 2197 63 2397 
Q 850 2822 1506 3434 
L 219 3434 
L 219 3847 
z
M 5388 3672 
L 4219 3672 
Q 4188 3591 4150 3516 
Q 4263 2191 4775 1247 
Q 5275 2159 5388 3672 
z
M 1088 834 
Q 1531 634 2000 416 
Q 2431 784 2675 1284 
L 1375 1284 
Q 1231 1053 1088 834 
z
M 3038 5091 
L 3425 4834 
Q 3081 4384 2738 4003 
Q 2594 4128 2400 4266 
Q 2725 4647 3038 5091 
z
M 381 4816 
L 738 5059 
Q 1019 4716 1319 4322 
L 931 4047 
Q 656 4453 381 4816 
z
" transform="scale(0.015625)"/>
      </defs>
      <use xlink:href="#UNAVAILABLE-65e0"/>
      <use xlink:href="#UNAVAILABLE-4eba" x="100"/>
      <use xlink:href="#UNAVAILABLE-673a" x="200"/>
      <use xlink:href="#UNAVAILABLE-4e2a" x="300"/>
      <use xlink:href="#UNAVAILABLE-6570" x="400"/>
     </g>
    </g>
   </g>
   <g id="matplotlib.axis_2">
    <g id="ytick_1">
     <g id="line2d_21">
      <path d="M 57.6 307.584 
L 414.72 307.584 
" clip-path="url(#p565ea809e2)" style="fill: none; stroke-dasharray: 2.96,1.28; stroke-dashoffset: 0; stroke: #b0b0b0; stroke-opacity: 0.8; stroke-width: 0.8"/>
     </g>
     <g id="line2d_22">
      <defs>
       <path id="m36424e9e4a" d="M 0 0 
L -3.5 0 
" style="stroke: #000000; stroke-width: 0.8"/>
      </defs>
      <g>
       <use xlink:href="#m36424e9e4a" x="57.6" y="307.584" style="stroke: #000000; stroke-width: 0.8"/>
      </g>
     </g>
     <g id="text_12">
      <!-- 0 -->
      <g transform="translate(44.001875 311.724)scale(0.12 -0.12)">
       <use xlink:href="#UNAVAILABLE-30"/>
      </g>
     </g>
    </g>
    <g id="ytick_2">
     <g id="line2d_23">
      <path d="M 57.6 263.167954 
L 414.72 263.167954 
" clip-path="url(#p565ea809e2)" style="fill: none; stroke-dasharray: 2.96,1.28; stroke-dashoffset: 0; stroke: #b0b0b0; stroke-opacity: 0.8; stroke-width: 0.8"/>
     </g>
     <g id="line2d_24">
      <g>
       <use xlink:href="#m36424e9e4a" x="57.6" y="263.167954" style="stroke: #000000; stroke-width: 0.8"/>
      </g>
     </g>
     <g id="text_13">
      <!-- 5 -->
      <g transform="translate(44.001875 267.307954)scale(0.12 -0.12)">
       <use xlink:href="#UNAVAILABLE-35"/>
      </g>
     </g>
    </g>
    <g id="ytick_3">
     <g id="line2d_25">
      <path d="M 57.6 218.751907 
L 414.72 218.751907 
" clip-path="url(#p565ea809e2)" style="fill: none; stroke-dasharray: 2.96,1.28; stroke-dashoffset: 0; stroke: #b0b0b0; stroke-opacity: 0.8; stroke-width: 0.8"/>
     </g>
     <g id="line2d_26">
      <g>
       <use xlink:href="#m36424e9e4a" x="57.6" y="218.751907" style="stroke: #000000; stroke-width: 0.8"/>
      </g>
     </g>
     <g id="text_14">
      <!-- 10 -->
      <g transform="translate(37.40375 222.891907)scale(0.12 -0.12)">
       <use xlink:href="#UNAVAILABLE-31"/>
       <use xlink:href="#UNAVAILABLE-30" x="54.980469"/>
      </g>
     </g>
    </g>
    <g id="ytick_4">
     <g id="line2d_27">
      <path d="M 57.6 174.335861 
L 414.72 174.335861 
" clip-path="url(#p565ea809e2)" style="fill: none; stroke-dasharray: 2.96,1.28; stroke-dashoffset: 0; stroke: #b0b0b0; stroke-opacity: 0.8; stroke-width: 0.8"/>
     </g>
     <g id="line2d_28">
      <g>
       <use xlink:href="#m36424e9e4a" x="57.6" y="174.335861" style="stroke: #000000; stroke-width: 0.8"/>
      </g>
     </g>
     <g id="text_15">
      <!-- 15 -->
      <g transform="translate(37.40375 178.475861)scale(0.12 -0.12)">
       <use xlink:href="#UNAVAILABLE-31"/>
       <use xlink:href="#UNAVAILABLE-35" x="54.980469"/>
      </g>
     </g>
    </g>
    <g id="ytick_5">
     <g id="line2d_29">
      <path d="M 57.6 129.919814 
L 414.72 129.919814 
" clip-path="url(#p565ea809e2)" style="fill: none; stroke-dasharray: 2.96,1.28; stroke-dashoffset: 0; stroke: #b0b0b0; stroke-opacity: 0.8; stroke-width: 0.8"/>
     </g>
     <g id="line2d_30">
      <g>
       <use xlink:href="#m36424e9e4a" x="57.6" y="129.919814" style="stroke: #000000; stroke-width: 0.8"/>
      </g>
     </g>
     <g id="text_16">
      <!-- 20 -->
      <g transform="translate(37.40375 134.059814)scale(0.12 -0.12)">
       <use xlink:href="#UNAVAILABLE-32"/>
       <use xlink:href="#UNAVAILABLE-30" x="54.980469"/>
      </g>
     </g>
    </g>
    <g id="ytick_6">
     <g id="line2d_31">
      <path d="M 57.6 85.503768 
L 414.72 85.503768 
" clip-path="url(#p565ea809e2)" style="fill: none; stroke-dasharray: 2.96,1.28; stroke-dashoffset: 0; stroke: #b0b0b0; stroke-opacity: 0.8; stroke-width: 0.8"/>
     </g>
     <g id="line2d_32">
      <g>
       <use xlink:href="#m36424e9e4a" x="57.6" y="85.503768" style="stroke: #000000; stroke-width: 0.8"/>
      </g>
     </g>
     <g id="text_17">
      <!-- 25 -->
      <g transform="translate(37.40375 89.643768)scale(0.12 -0.12)">
       <use xlink:href="#UNAVAILABLE-32"/>
       <use xlink:href="#UNAVAILABLE-35" x="54.980469"/>
      </g>
     </g>
    </g>
    <g id="text_18">
     <!-- 最大耗时(分钟) -->
     <g transform="translate(30.941875 217.126125)rotate(-90)scale(0.12 -0.12)">
      <defs>
       <path id="UNAVAILABLE-6700" d="M 169 -28 
Q 475 3 781 38 
L 781 2416 
L 94 2416 
L 94 2791 
L 6288 2791 
L 6288 2416 
L 3025 2416 
L 3025 331 
Q 3325 375 3625 422 
Q 3619 309 3631 22 
Q 3338 -19 3025 -63 
L 3025 -859 
L 2600 -859 
L 2600 -125 
Q 1525 -278 281 -472 
L 169 -28 
z
M 1038 5053 
L 5363 5053 
L 5363 3047 
L 4925 3047 
L 4925 3191 
L 1475 3191 
L 1475 3047 
L 1038 3047 
L 1038 5053 
z
M 3338 1609 
L 3338 1972 
L 5819 1972 
L 5819 1609 
Q 5500 844 4981 278 
Q 5516 -113 6306 -316 
Q 6144 -553 6025 -753 
Q 5219 -488 4666 -34 
Q 4128 -516 3413 -822 
Q 3306 -634 3125 -428 
Q 3834 -156 4347 266 
Q 3825 825 3603 1609 
L 3338 1609 
z
M 1475 3553 
L 4925 3553 
L 4925 3953 
L 1475 3953 
L 1475 3553 
z
M 4925 4691 
L 1475 4691 
L 1475 4291 
L 4925 4291 
L 4925 4691 
z
M 5344 1609 
L 4025 1609 
Q 4222 994 4659 556 
Q 5094 1013 5344 1609 
z
M 2600 269 
L 2600 691 
L 1206 691 
L 1206 88 
Q 1913 172 2600 269 
z
M 1206 1916 
L 2600 1916 
L 2600 2416 
L 1206 2416 
L 1206 1916 
z
M 1206 1053 
L 2600 1053 
L 2600 1553 
L 1206 1553 
L 1206 1053 
z
" transform="scale(0.015625)"/>
       <path id="UNAVAILABLE-5927" d="M 88 -341 
Q 2666 806 2869 3103 
L 200 3103 
L 200 3591 
L 2891 3591 
Q 2906 4431 2906 5284 
L 3450 5284 
Q 3450 4444 3434 3591 
L 6206 3591 
L 6206 3103 
L 3425 3103 
Q 3869 606 6338 -191 
Q 6019 -497 5863 -697 
Q 3828 122 3203 2219 
Q 2716 322 475 -822 
Q 350 -653 88 -341 
z
" transform="scale(0.015625)"/>
       <path id="UNAVAILABLE-8017" d="M 2506 1622 
L 3913 1753 
L 3913 2878 
L 2738 2772 
L 2706 3197 
L 3913 3303 
L 3913 4459 
Q 3381 4403 2794 4353 
Q 2769 4584 2700 4809 
Q 4225 4916 5706 5172 
L 5819 4697 
Q 5188 4603 4381 4509 
L 4381 3347 
L 5825 3478 
L 5850 3053 
L 4381 2916 
L 4381 1797 
L 6150 1966 
L 6175 1541 
L 4381 1366 
L 4381 128 
Q 4381 -241 4706 -241 
L 5400 -241 
Q 5688 -241 5750 147 
Q 5813 566 5844 991 
Q 6094 866 6319 791 
Q 6250 291 6194 -28 
Q 6094 -691 5456 -691 
L 4588 -691 
Q 3913 -691 3913 72 
L 3913 1322 
L 2538 1197 
L 2506 1622 
z
M 88 191 
Q 769 1072 1088 2022 
L 138 2022 
L 138 2422 
L 1250 2422 
L 1250 3028 
L 363 3028 
L 363 3428 
L 1250 3428 
L 1250 4016 
L 231 4016 
L 231 4416 
L 1250 4416 
L 1250 5303 
L 1675 5303 
L 1675 4416 
L 2631 4416 
L 2631 4016 
L 1675 4016 
L 1675 3428 
L 2519 3428 
L 2519 3028 
L 1675 3028 
L 1675 2422 
L 2700 2422 
L 2700 2022 
L 1675 2022 
L 1675 1334 
L 1894 1547 
Q 2381 1078 2806 622 
L 2463 316 
Q 2125 747 1675 1203 
L 1675 -841 
L 1250 -841 
L 1250 1491 
Q 869 434 281 -297 
Q 188 -16 88 191 
z
" transform="scale(0.015625)"/>
       <path id="UNAVAILABLE-65f6" d="M 344 4728 
L 2500 4728 
L 2500 -366 
L 2006 -366 
L 2006 153 
L 838 153 
L 838 -441 
L 344 -441 
L 344 4728 
z
M 2706 3941 
L 4925 3941 
L 4925 5322 
L 5425 5322 
L 5425 3941 
L 6313 3941 
L 6313 3478 
L 5425 3478 
L 5425 116 
Q 5425 -722 4625 -722 
Q 4263 -722 3563 -703 
Q 3531 -478 3463 -178 
Q 4119 -228 4488 -228 
Q 4925 -228 4925 216 
L 4925 3478 
L 2706 3478 
L 2706 3941 
z
M 838 616 
L 2006 616 
L 2006 2234 
L 838 2234 
L 838 616 
z
M 2006 4266 
L 838 4266 
L 838 2684 
L 2006 2684 
L 2006 4266 
z
M 3406 2878 
Q 3906 1966 4163 1422 
Q 4000 1347 3663 1172 
Q 3419 1766 2963 2653 
L 3406 2878 
z
" transform="scale(0.015625)"/>
       <path id="UNAVAILABLE-28" d="M 2378 -1313 
Q 938 22 938 1638 
Q 938 2016 1014 2392 
Q 1091 2769 1261 3147 
Q 1431 3525 1711 3903 
Q 1991 4281 2391 4653 
L 2706 4331 
Q 1494 3134 1494 1678 
Q 1494 953 1800 284 
Q 2106 -384 2706 -978 
L 2378 -1313 
z
" transform="scale(0.015625)"/>
       <path id="UNAVAILABLE-5206" d="M 900 2559 
L 5056 2559 
Q 5025 1497 4963 484 
Q 4888 -684 3856 -678 
Q 3350 -684 2788 -647 
Q 2750 -384 2700 -116 
Q 3181 -184 3775 -191 
Q 4400 -203 4463 541 
Q 4513 1216 4538 2097 
L 2616 2097 
Q 2541 1053 2181 416 
Q 1706 -422 588 -878 
Q 425 -666 231 -459 
Q 1269 -72 1725 666 
Q 2053 1225 2103 2097 
L 900 2097 
L 900 2559 
z
M 3488 5159 
L 3938 5353 
Q 4625 3678 6350 2847 
Q 6069 2553 5944 2372 
Q 4225 3366 3488 5159 
z
M 50 2766 
Q 1338 3678 2250 5253 
L 2694 5009 
Q 1744 3347 413 2341 
Q 281 2534 50 2766 
z
" transform="scale(0.015625)"/>
       <path id="UNAVAILABLE-949f" d="M 2663 4091 
L 4094 4091 
L 4094 5303 
L 4569 5303 
L 4569 4091 
L 6000 4091 
L 6000 1091 
L 5538 1091 
L 5538 1384 
L 4569 1384 
L 4569 -822 
L 4094 -822 
L 4094 1384 
L 3125 1384 
L 3125 1091 
L 2663 1091 
L 2663 4091 
z
M 2294 566 
Q 2294 291 2325 47 
Q 1925 -147 1394 -466 
Q 1281 -528 1131 -678 
L 800 -247 
Q 1000 -53 1000 222 
L 1000 1584 
L 144 1584 
L 144 2016 
L 1000 2016 
L 1000 2859 
L 563 2859 
L 563 3281 
Q 444 3094 319 2903 
Q 200 3128 56 3328 
Q 700 4278 1056 5341 
L 1525 5184 
Q 1363 4781 1166 4378 
L 2388 4378 
L 2388 3947 
L 944 3947 
Q 769 3619 566 3291 
L 2238 3291 
L 2238 2859 
L 1456 2859 
L 1456 2016 
L 2388 2016 
L 2388 1584 
L 1456 1584 
L 1456 97 
Q 1913 341 2294 566 
z
M 5538 3653 
L 4569 3653 
L 4569 1822 
L 5538 1822 
L 5538 3653 
z
M 3125 1822 
L 4094 1822 
L 4094 3653 
L 3125 3653 
L 3125 1822 
z
" transform="scale(0.015625)"/>
       <path id="UNAVAILABLE-29" d="M 1141 4653 
Q 2581 3319 2581 1684 
Q 2581 1347 2512 984 
Q 2444 622 2278 242 
Q 2113 -138 1833 -528 
Q 1553 -919 1128 -1313 
L 813 -991 
Q 1422 -388 1722 268 
Q 2022 925 2022 1644 
Q 2022 3131 813 4319 
L 1141 4653 
z
" transform="scale(0.015625)"/>
      </defs>
      <use xlink:href="#UNAVAILABLE-6700"/>
      <use xlink:href="#UNAVAILABLE-5927" x="100"/>
      <use xlink:href="#UNAVAILABLE-8017" x="200"/>
      <use xlink:href="#UNAVAILABLE-65f6" x="300"/>
      <use xlink:href="#UNAVAILABLE-28" x="400"/>
      <use xlink:href="#UNAVAILABLE-5206" x="454.980469"/>
      <use xlink:href="#UNAVAILABLE-949f" x="554.980469"/>
      <use xlink:href="#UNAVAILABLE-29" x="654.980469"/>
     </g>
    </g>
   </g>
   <g id="patch_3">
    <path d="M 73.832727 307.584 
L 101.245064 307.584 
L 101.245064 307.584 
L 73.832727 307.584 
z
" clip-path="url(#p565ea809e2)" style="fill: #689f38; stroke: #455a64; stroke-linejoin: miter"/>
   </g>
   <g id="patch_4">
    <path d="M 106.859639 307.584 
L 134.271976 307.584 
L 134.271976 307.584 
L 106.859639 307.584 
z
" clip-path="url(#p565ea809e2)" style="fill: #77a847; stroke: #4d626c; stroke-linejoin: miter"/>
   </g>
   <g id="patch_5">
    <path d="M 139.886551 307.584 
L 167.298888 307.584 
L 167.298888 114.010748 
L 139.886551 114.010748 
z
" clip-path="url(#p565ea809e2)" style="fill: #86b156; stroke: #556a74; stroke-linejoin: miter"/>
   </g>
   <g id="patch_6">
    <path d="M 172.913463 307.584 
L 200.3258 307.584 
L 200.3258 161.396528 
L 172.913463 161.396528 
z
" clip-path="url(#p565ea809e2)" style="fill: #95bb66; stroke: #5e727c; stroke-linejoin: miter"/>
   </g>
   <g id="patch_7">
    <path d="M 205.940375 307.584 
L 233.352712 307.584 
L 233.352712 190.195026 
L 205.940375 190.195026 
z
" clip-path="url(#p565ea809e2)" style="fill: #a4c475; stroke: #667a84; stroke-linejoin: miter"/>
   </g>
   <g id="patch_8">
    <path d="M 238.967288 307.584 
L 266.379625 307.584 
L 266.379625 201.600998 
L 238.967288 201.600998 
z
" clip-path="url(#p565ea809e2)" style="fill: #b3ce85; stroke: #6e838d; stroke-linejoin: miter"/>
   </g>
   <g id="patch_9">
    <path d="M 271.9942 307.584 
L 299.406537 307.584 
L 299.406537 221.559402 
L 271.9942 221.559402 
z
" clip-path="url(#p565ea809e2)" style="fill: #c2d794; stroke: #778b95; stroke-linejoin: miter"/>
   </g>
   <g id="patch_10">
    <path d="M 305.021112 307.584 
L 332.433449 307.584 
L 332.433449 229.415477 
L 305.021112 229.415477 
z
" clip-path="url(#p565ea809e2)" style="fill: #d1e1a4; stroke: #7f939d; stroke-linejoin: miter"/>
   </g>
   <g id="patch_11">
    <path d="M 338.048024 307.584 
L 365.460361 307.584 
L 365.460361 237.610792 
L 338.048024 237.610792 
z
" clip-path="url(#p565ea809e2)" style="fill: #e0eab3; stroke: #879ba5; stroke-linejoin: miter"/>
   </g>
   <g id="patch_12">
    <path d="M 371.074936 307.584 
L 398.487273 307.584 
L 398.487273 246.021372 
L 371.074936 246.021372 
z
" clip-path="url(#p565ea809e2)" style="fill: #f0f4c3; stroke: #90a4ae; stroke-linejoin: miter"/>
   </g>
   <g id="patch_13">
    <path d="M 73.832727 307.584 
L 101.245064 307.584 
L 101.245064 307.584 
L 73.832727 307.584 
z
" clip-path="url(#p565ea809e2)" style="fill: #fff9c4; stroke: #455a64; stroke-linejoin: miter"/>
   </g>
   <g id="patch_14">
    <path d="M 106.859639 307.584 
L 134.271976 307.584 
L 134.271976 307.584 
L 106.859639 307.584 
z
" clip-path="url(#p565ea809e2)" style="fill: #fef2b3; stroke: #4d626c; stroke-linejoin: miter"/>
   </g>
   <g id="patch_15">
    <path d="M 139.886551 114.010748 
L 167.298888 114.010748 
L 167.298888 54.144 
L 139.886551 54.144 
z
" clip-path="url(#p565ea809e2)" style="fill: #feeca2; stroke: #556a74; stroke-linejoin: miter"/>
   </g>
   <g id="patch_16">
    <path d="M 172.913463 161.396528 
L 200.3258 161.396528 
L 200.3258 93.293354 
L 172.913463 93.293354 
z
" clip-path="url(#p565ea809e2)" style="fill: #fde691; stroke: #5e727c; stroke-linejoin: miter"/>
   </g>
   <g id="patch_17">
    <path d="M 205.940375 190.195026 
L 233.352712 190.195026 
L 233.352712 102.7234 
L 205.940375 102.7234 
z
" clip-path="url(#p565ea809e2)" style="fill: #fddf80; stroke: #667a84; stroke-linejoin: miter"/>
   </g>
   <g id="patch_18">
    <path d="M 238.967288 201.600998 
L 266.379625 201.600998 
L 266.379625 102.7234 
L 238.967288 102.7234 
z
" clip-path="url(#p565ea809e2)" style="fill: #fcd970; stroke: #6e838d; stroke-linejoin: miter"/>
   </g>
   <g id="patch_19">
    <path d="M 271.9942 221.559402 
L 299.406537 221.559402 
L 299.406537 102.7234 
L 271.9942 102.7234 
z
" clip-path="url(#p565ea809e2)" style="fill: #fcd35f; stroke: #778b95; stroke-linejoin: miter"/>
   </g>
   <g id="patch_20">
    <path d="M 305.021112 229.415477 
L 332.433449 229.415477 
L 332.433449 102.7234 
L 305.021112 102.7234 
z
" clip-path="url(#p565ea809e2)" style="fill: #fbcc4e; stroke: #7f939d; stroke-linejoin: miter"/>
   </g>
   <g id="patch_21">
    <path d="M 338.048024 237.610792 
L 365.460361 237.610792 
L 365.460361 102.7234 
L 338.048024 102.7234 
z
" clip-path="url(#p565ea809e2)" style="fill: #fbc63d; stroke: #879ba5; stroke-linejoin: miter"/>
   </g>
   <g id="patch_22">
    <path d="M 371.074936 246.021372 
L 398.487273 246.021372 
L 398.487273 102.7234 
L 371.074936 102.7234 
z
" clip-path="url(#p565ea809e2)" style="fill: #fbc02d; stroke: #90a4ae; stroke-linejoin: miter"/>
   </g>
   <g id="patch_23">
    <path d="M 57.6 307.584 
L 57.6 41.472 
" style="fill: none; stroke: #000000; stroke-width: 0.8; stroke-linejoin: miter; stroke-linecap: square"/>
   </g>
   <g id="patch_24">
    <path d="M 414.72 307.584 
L 414.72 41.472 
" style="fill: none; stroke: #000000; stroke-width: 0.8; stroke-linejoin: miter; stroke-linecap: square"/>
   </g>
   <g id="patch_25">
    <path d="M 57.6 307.584 
L 414.72 307.584 
" style="fill: none; stroke: #000000; stroke-width: 0.8; stroke-linejoin: miter; stroke-linecap: square"/>
   </g>
   <g id="patch_26">
    <path d="M 57.6 41.472 
L 414.72 41.472 
" style="fill: none; stroke: #000000; stroke-width: 0.8; stroke-linejoin: miter; stroke-linecap: square"/>
   </g>
   <g id="text_19">
    <!-- 21.8 -->
    <g transform="translate(142.595845 217.679021)scale(0.1 -0.1)">
     <defs>
      <path id="UNAVAILABLE-2e" d="M 1734 984 
Q 1841 984 1936 943 
Q 2031 903 2101 831 
Q 2172 759 2212 664 
Q 2253 569 2253 459 
Q 2253 353 2212 259 
Q 2172 166 2101 95 
Q 2031 25 1936 -15 
Q 1841 -56 1734 -56 
Q 1625 -56 1531 -15 
Q 1438 25 1367 95 
Q 1297 166 1256 259 
Q 1216 353 1216 459 
Q 1216 569 1256 664 
Q 1297 759 1367 831 
Q 1438 903 1531 943 
Q 1625 984 1734 984 
z
" transform="scale(0.015625)"/>
     </defs>
     <use xlink:href="#UNAVAILABLE-32"/>
     <use xlink:href="#UNAVAILABLE-31" x="54.980469"/>
     <use xlink:href="#UNAVAILABLE-2e" x="109.960938"/>
     <use xlink:href="#UNAVAILABLE-38" x="164.941406"/>
    </g>
   </g>
   <g id="text_20">
    <!-- 16.5 -->
    <g transform="translate(175.622757 241.371911)scale(0.1 -0.1)">
     <use xlink:href="#UNAVAILABLE-31"/>
     <use xlink:href="#UNAVAILABLE-36" x="54.980469"/>
     <use xlink:href="#UNAVAILABLE-2e" x="109.960938"/>
     <use xlink:href="#UNAVAILABLE-35" x="164.941406"/>
    </g>
   </g>
   <g id="text_21">
    <!-- 13.2 -->
    <g transform="translate(208.649669 255.77116)scale(0.1 -0.1)">
     <use xlink:href="#UNAVAILABLE-31"/>
     <use xlink:href="#UNAVAILABLE-33" x="54.980469"/>
     <use xlink:href="#UNAVAILABLE-2e" x="109.960938"/>
     <use xlink:href="#UNAVAILABLE-32" x="164.941406"/>
    </g>
   </g>
   <g id="text_22">
    <!-- 11.9 -->
    <g transform="translate(241.676581 261.474146)scale(0.1 -0.1)">
     <use xlink:href="#UNAVAILABLE-31"/>
     <use xlink:href="#UNAVAILABLE-31" x="54.980469"/>
     <use xlink:href="#UNAVAILABLE-2e" x="109.960938"/>
     <use xlink:href="#UNAVAILABLE-39" x="164.941406"/>
    </g>
   </g>
   <g id="text_23">
    <!-- 9.7 -->
    <g transform="translate(277.452712 271.453348)scale(0.1 -0.1)">
     <use xlink:href="#UNAVAILABLE-39"/>
     <use xlink:href="#UNAVAILABLE-2e" x="54.980469"/>
     <use xlink:href="#UNAVAILABLE-37" x="109.960938"/>
    </g>
   </g>
   <g id="text_24">
    <!-- 8.8 -->
    <g transform="translate(310.479624 275.381385)scale(0.1 -0.1)">
     <use xlink:href="#UNAVAILABLE-38"/>
     <use xlink:href="#UNAVAILABLE-2e" x="54.980469"/>
     <use xlink:href="#UNAVAILABLE-38" x="109.960938"/>
    </g>
   </g>
   <g id="text_25">
    <!-- 7.9 -->
    <g transform="translate(343.506536 279.479043)scale(0.1 -0.1)">
     <use xlink:href="#UNAVAILABLE-37"/>
     <use xlink:href="#UNAVAILABLE-2e" x="54.980469"/>
     <use xlink:href="#UNAVAILABLE-39" x="109.960938"/>
    </g>
   </g>
   <g id="text_26">
    <!-- 6.9 -->
    <g transform="translate(376.533448 283.684333)scale(0.1 -0.1)">
     <use xlink:href="#UNAVAILABLE-36"/>
     <use xlink:href="#UNAVAILABLE-2e" x="54.980469"/>
     <use xlink:href="#UNAVAILABLE-39" x="109.960938"/>
    </g>
   </g>
   <g id="text_27">
    <!-- 6.7 -->
    <g transform="translate(145.345064 90.959021)scale(0.1 -0.1)">
     <use xlink:href="#UNAVAILABLE-36"/>
     <use xlink:href="#UNAVAILABLE-2e" x="54.980469"/>
     <use xlink:href="#UNAVAILABLE-37" x="109.960938"/>
    </g>
   </g>
   <g id="text_28">
    <!-- 7.7 -->
    <g transform="translate(178.371976 134.226588)scale(0.1 -0.1)">
     <use xlink:href="#UNAVAILABLE-37"/>
     <use xlink:href="#UNAVAILABLE-2e" x="54.980469"/>
     <use xlink:href="#UNAVAILABLE-37" x="109.960938"/>
    </g>
   </g>
   <g id="text_29">
    <!-- 9.8 -->
    <g transform="translate(211.398888 153.340859)scale(0.1 -0.1)">
     <use xlink:href="#UNAVAILABLE-39"/>
     <use xlink:href="#UNAVAILABLE-2e" x="54.980469"/>
     <use xlink:href="#UNAVAILABLE-38" x="109.960938"/>
    </g>
   </g>
   <g id="text_30">
    <!-- 11.1 -->
    <g transform="translate(241.676581 159.043846)scale(0.1 -0.1)">
     <use xlink:href="#UNAVAILABLE-31"/>
     <use xlink:href="#UNAVAILABLE-31" x="54.980469"/>
     <use xlink:href="#UNAVAILABLE-2e" x="109.960938"/>
     <use xlink:href="#UNAVAILABLE-31" x="164.941406"/>
    </g>
   </g>
   <g id="text_31">
    <!-- 13.4 -->
    <g transform="translate(274.703493 169.023048)scale(0.1 -0.1)">
     <use xlink:href="#UNAVAILABLE-31"/>
     <use xlink:href="#UNAVAILABLE-33" x="54.980469"/>
     <use xlink:href="#UNAVAILABLE-2e" x="109.960938"/>
     <use xlink:href="#UNAVAILABLE-34" x="164.941406"/>
    </g>
   </g>
   <g id="text_32">
    <!-- 14.3 -->
    <g transform="translate(307.730405 172.951085)scale(0.1 -0.1)">
     <use xlink:href="#UNAVAILABLE-31"/>
     <use xlink:href="#UNAVAILABLE-34" x="54.980469"/>
     <use xlink:href="#UNAVAILABLE-2e" x="109.960938"/>
     <use xlink:href="#UNAVAILABLE-33" x="164.941406"/>
    </g>
   </g>
   <g id="text_33">
    <!-- 15.2 -->
    <g transform="translate(340.757317 177.048742)scale(0.1 -0.1)">
     <use xlink:href="#UNAVAILABLE-31"/>
     <use xlink:href="#UNAVAILABLE-35" x="54.980469"/>
     <use xlink:href="#UNAVAILABLE-2e" x="109.960938"/>
     <use xlink:href="#UNAVAILABLE-32" x="164.941406"/>
    </g>
   </g>
   <g id="text_34">
    <!-- 16.1 -->
    <g transform="translate(373.784229 181.254033)scale(0.1 -0.1)">
     <use xlink:href="#UNAVAILABLE-31"/>
     <use xlink:href="#UNAVAILABLE-36" x="54.980469"/>
     <use xlink:href="#UNAVAILABLE-2e" x="109.960938"/>
     <use xlink:href="#UNAVAILABLE-31" x="164.941406"/>
    </g>
   </g>
   <g id="text_35">
    <!-- 0.0 -->
    <g transform="translate(79.29124 305.582437)scale(0.1 -0.1)">
     <use xlink:href="#UNAVAILABLE-30"/>
     <use xlink:href="#UNAVAILABLE-2e" x="54.980469"/>
     <use xlink:href="#UNAVAILABLE-30" x="109.960938"/>
    </g>
   </g>
   <g id="text_36">
    <!-- 0.0 -->
    <g transform="translate(112.318152 305.582437)scale(0.1 -0.1)">
     <use xlink:href="#UNAVAILABLE-30"/>
     <use xlink:href="#UNAVAILABLE-2e" x="54.980469"/>
     <use xlink:href="#UNAVAILABLE-30" x="109.960938"/>
    </g>
   </g>
   <g id="text_37">
    <!-- 28.5 -->
    <g transform="translate(142.595845 52.142437)scale(0.1 -0.1)">
     <use xlink:href="#UNAVAILABLE-32"/>
     <use xlink:href="#UNAVAILABLE-38" x="54.980469"/>
     <use xlink:href="#UNAVAILABLE-2e" x="109.960938"/>
     <use xlink:href="#UNAVAILABLE-35" x="164.941406"/>
    </g>
   </g>
   <g id="text_38">
    <!-- 24.1 -->
    <g transform="translate(175.622757 91.291792)scale(0.1 -0.1)">
     <use xlink:href="#UNAVAILABLE-32"/>
     <use xlink:href="#UNAVAILABLE-34" x="54.980469"/>
     <use xlink:href="#UNAVAILABLE-2e" x="109.960938"/>
     <use xlink:href="#UNAVAILABLE-31" x="164.941406"/>
    </g>
   </g>
   <g id="text_39">
    <!-- 23.1 -->
    <g transform="translate(208.649669 100.721837)scale(0.1 -0.1)">
     <use xlink:href="#UNAVAILABLE-32"/>
     <use xlink:href="#UNAVAILABLE-33" x="54.980469"/>
     <use xlink:href="#UNAVAILABLE-2e" x="109.960938"/>
     <use xlink:href="#UNAVAILABLE-31" x="164.941406"/>
    </g>
   </g>
   <g id="text_40">
    <!-- 23.1 -->
    <g transform="translate(241.676581 100.721837)scale(0.1 -0.1)">
     <use xlink:href="#UNAVAILABLE-32"/>
     <use xlink:href="#UNAVAILABLE-33" x="54.980469"/>
     <use xlink:href="#UNAVAILABLE-2e" x="109.960938"/>
     <use xlink:href="#UNAVAILABLE-31" x="164.941406"/>
    </g>
   </g>
   <g id="text_41">
    <!-- 23.1 -->
    <g transform="translate(274.703493 100.721837)scale(0.1 -0.1)">
     <use xlink:href="#UNAVAILABLE-32"/>
     <use xlink:href="#UNAVAILABLE-33" x="54.980469"/>
     <use xlink:href="#UNAVAILABLE-2e" x="109.960938"/>
     <use xlink:href="#UNAVAILABLE-31" x="164.941406"/>
    </g>
   </g>
   <g id="text_42">
    <!-- 23.1 -->
    <g transform="translate(307.730405 100.721837)scale(0.1 -0.1)">
     <use xlink:href="#UNAVAILABLE-32"/>
     <use xlink:href="#UNAVAILABLE-33" x="54.980469"/>
     <use xlink:href="#UNAVAILABLE-2e" x="109.960938"/>
     <use xlink:href="#UNAVAILABLE-31" x="164.941406"/>
    </g>
   </g>
   <g id="text_43">
    <!-- 23.1 -->
    <g transform="translate(340.757317 100.721837)scale(0.1 -0.1)">
     <use xlink:href="#UNAVAILABLE-32"/>
     <use xlink:href="#UNAVAILABLE-33" x="54.980469"/>
     <use xlink:href="#UNAVAILABLE-2e" x="109.960938"/>
     <use xlink:href="#UNAVAILABLE-31" x="164.941406"/>
    </g>
   </g>
   <g id="text_44">
    <!-- 23.1 -->
    <g transform="translate(373.784229 100.721837)scale(0.1 -0.1)">
     <use xlink:href="#UNAVAILABLE-32"/>
     <use xlink:href="#UNAVAILABLE-33" x="54.980469"/>
     <use xlink:href="#UNAVAILABLE-2e" x="109.960938"/>
     <use xlink:href="#UNAVAILABLE-31" x="164.941406"/>
    </g>
   </g>
   <g id="legend_1">
    <g id="patch_27">
     <path d="M 319.92 86.28825 
L 406.32 86.28825 
Q 408.72 86.28825 408.72 83.88825 
L 408.72 49.872 
Q 408.72 47.472 406.32 47.472 
L 319.92 47.472 
Q 317.52 47.472 317.52 49.872 
L 317.52 83.88825 
Q 317.52 86.28825 319.92 86.28825 
z
" style="fill: #ffffff; opacity: 0.8; stroke: #cccccc; stroke-linejoin: miter"/>
    </g>
    <g id="patch_28">
     <path d="M 322.32 61.472625 
L 346.32 61.472625 
L 346.32 53.072625 
L 322.32 53.072625 
z
" style="fill: #689f38; stroke: #455a64; stroke-linejoin: miter"/>
    </g>
    <g id="text_45">
     <!-- 飞行耗时 -->
     <g transform="translate(355.92 61.472625)scale(0.12 -0.12)">
      <defs>
       <path id="UNAVAILABLE-98de" d="M 5788 1109 
Q 6100 978 6313 916 
Q 6213 303 6038 -166 
Q 5838 -653 5381 -653 
Q 4806 -653 4363 -434 
Q 3263 172 3213 2478 
Q 3200 3266 3206 4416 
L 100 4416 
L 100 4878 
L 3750 4878 
Q 3725 4047 3725 3219 
Q 4850 4091 5381 4628 
L 5831 4172 
Q 5338 3822 4050 2906 
Q 5059 2447 5981 1972 
L 5681 1472 
Q 4794 2016 3728 2566 
Q 3731 284 4856 -66 
Q 5456 -272 5600 172 
Q 5706 528 5788 1109 
z
" transform="scale(0.015625)"/>
       <path id="UNAVAILABLE-884c" d="M 2363 2978 
L 6319 2978 
L 6319 2509 
L 5106 2509 
L 5106 66 
Q 5106 -709 4325 -709 
Q 3800 -709 3256 -703 
Q 3219 -453 3163 -141 
Q 3650 -191 4144 -191 
Q 4575 -191 4575 234 
L 4575 2509 
L 2363 2509 
L 2363 2978 
z
M 100 1578 
Q 1069 2372 1863 3809 
L 2300 3541 
Q 1978 2984 1619 2500 
L 1619 -809 
L 1100 -809 
L 1100 1856 
Q 725 1431 319 1072 
Q 219 1334 100 1578 
z
M 2725 4866 
L 5969 4866 
L 5969 4397 
L 2725 4397 
L 2725 4866 
z
M 131 3559 
Q 1125 4328 1731 5347 
L 2181 5072 
Q 1456 3959 381 3078 
Q 269 3316 131 3559 
z
" transform="scale(0.015625)"/>
      </defs>
      <use xlink:href="#UNAVAILABLE-98de"/>
      <use xlink:href="#UNAVAILABLE-884c" x="100"/>
      <use xlink:href="#UNAVAILABLE-8017" x="200"/>
      <use xlink:href="#UNAVAILABLE-65f6" x="300"/>
     </g>
    </g>
    <g id="patch_29">
     <path d="M 322.32 79.086375 
L 346.32 79.086375 
L 346.32 70.686375 
L 322.32 70.686375 
z
" style="fill: #fff9c4; stroke: #455a64; stroke-linejoin: miter"/>
    </g>
    <g id="text_46">
     <!-- 等待耗时 -->
     <g transform="translate(355.92 79.086375)scale(0.12 -0.12)">
      <defs>
       <path id="UNAVAILABLE-7b49" d="M 125 2303 
L 2913 2303 
L 2913 2922 
L 563 2922 
L 563 3328 
L 2913 3328 
L 2913 3822 
L 3400 3822 
L 3400 3328 
L 5850 3328 
L 5850 2922 
L 3400 2922 
L 3400 2303 
L 6288 2303 
L 6288 1884 
L 125 1884 
L 125 2303 
z
M 338 1272 
L 4250 1272 
L 4250 1766 
L 4738 1766 
L 4738 1272 
L 6075 1272 
L 6075 853 
L 4738 853 
L 4738 22 
Q 4738 -766 3925 -766 
Q 3450 -766 2969 -759 
Q 2938 -534 2875 -228 
Q 3375 -278 3794 -278 
Q 4250 -278 4250 91 
L 4250 853 
L 338 853 
L 338 1272 
z
M 1294 5347 
L 1831 5347 
Q 1688 5041 1513 4759 
L 3325 4759 
L 3325 4372 
L 1244 4372 
Q 875 3878 388 3459 
Q 263 3609 75 3797 
Q 856 4428 1294 5347 
z
M 3969 5347 
L 4506 5347 
Q 4366 5038 4213 4759 
L 6225 4759 
L 6225 4372 
L 3984 4372 
Q 3772 4038 3538 3759 
Q 3275 3947 3119 4009 
Q 3663 4597 3969 5347 
z
M 1500 491 
L 1831 809 
Q 2256 447 2700 28 
L 2338 -316 
Q 2000 41 1500 491 
z
M 2019 3441 
Q 1781 3753 1500 4078 
L 1825 4309 
Q 2125 4022 2388 3722 
L 2019 3441 
z
M 4744 3441 
Q 4625 3628 4238 4078 
L 4563 4309 
Q 4900 3984 5113 3722 
L 4744 3441 
z
" transform="scale(0.015625)"/>
       <path id="UNAVAILABLE-5f85" d="M 2013 3116 
L 3881 3116 
L 3881 4016 
L 2288 4016 
L 2288 4447 
L 3881 4447 
L 3881 5322 
L 4381 5322 
L 4381 4447 
L 5988 4447 
L 5988 4016 
L 4381 4016 
L 4381 3116 
L 6238 3116 
L 6238 2678 
L 2013 2678 
L 2013 3116 
z
M 2025 1891 
L 4813 1891 
L 4813 2484 
L 5313 2484 
L 5313 1891 
L 6288 1891 
L 6288 1453 
L 5313 1453 
L 5313 -9 
Q 5313 -747 4531 -747 
Q 4169 -747 3550 -741 
Q 3513 -516 3450 -216 
Q 3994 -259 4425 -259 
Q 4813 -259 4813 166 
L 4813 1453 
L 2025 1453 
L 2025 1891 
z
M 81 1622 
Q 894 2391 1606 3672 
L 2044 3447 
Q 1756 2966 1469 2547 
L 1469 -847 
L 1000 -847 
L 1000 1913 
Q 653 1475 300 1122 
Q 206 1366 81 1622 
z
M 94 3578 
Q 975 4272 1600 5341 
L 2044 5084 
Q 1250 3903 350 3134 
Q 238 3353 94 3578 
z
M 2475 972 
L 2838 1253 
Q 3288 766 3631 334 
L 3231 28 
Q 2881 509 2475 972 
z
" transform="scale(0.015625)"/>
      </defs>
      <use xlink:href="#UNAVAILABLE-7b49"/>
      <use xlink:href="#UNAVAILABLE-5f85" x="100"/>
      <use xlink:href="#UNAVAILABLE-8017" x="200"/>
      <use xlink:href="#UNAVAILABLE-65f6" x="300"/>
     </g>
    </g>
   </g>
  </g>
 </g>
 <defs>
  <clipPath id="p565ea809e2">
   <rect x="57.6" y="41.472" width="357.12" height="266.112"/>
  </clipPath>
 </defs>
</svg>
