<?xml version="1.0" encoding="utf-8" standalone="no"?>
<!DOCTYPE svg PUBLIC "-//W3C//DTD SVG 1.1//EN"
  "http://www.w3.org/Graphics/SVG/1.1/DTD/svg11.dtd">
<svg xmlns:xlink="http://www.w3.org/1999/xlink" width="720pt" height="504pt" viewBox="0 0 720 504" xmlns="http://www.w3.org/2000/svg" version="1.1">
 <metadata>
  <rdf:RDF xmlns:dc="http://purl.org/dc/elements/1.1/" xmlns:cc="http://creativecommons.org/ns#" xmlns:rdf="http://www.w3.org/1999/02/22-rdf-syntax-ns#">
   <cc:Work>
    <dc:type rdf:resource="http://purl.org/dc/dcmitype/StillImage"/>
    <dc:date>2023-09-01T18:27:09.219466</dc:date>
    <dc:format>image/svg+xml</dc:format>
    <dc:creator>
     <cc:Agent>
      <dc:title>Matplotlib v3.5.2, https://matplotlib.org/</dc:title>
     </cc:Agent>
    </dc:creator>
   </cc:Work>
  </rdf:RDF>
 </metadata>
 <defs>
  <style type="text/css">*{stroke-linejoin: round; stroke-linecap: butt}</style>
 </defs>
 <g id="figure_1">
  <g id="patch_1">
   <path d="M 0 504 
L 720 504 
L 720 0 
L 0 0 
z
" style="fill: #ffffff"/>
  </g>
  <g id="axes_1">
   <g id="patch_2">
    <path d="M 90 448.56 
L 648 448.56 
L 648 60.48 
L 90 60.48 
z
" style="fill: #ffffff"/>
   </g>
   <g id="patch_3">
    <path d="M 115.363636 448.56 
L 125.408641 448.56 
L 125.408641 448.56 
L 115.363636 448.56 
z
" clip-path="url(#p306722d440)" style="fill: #42a5f5"/>
   </g>
   <g id="patch_4">
    <path d="M 115.363636 448.56 
L 125.408641 448.56 
L 125.408641 448.56 
L 115.363636 448.56 
z
" clip-path="url(#p306722d440)" style="fill: #66bb6a"/>
   </g>
   <g id="patch_5">
    <path d="M 115.363636 448.56 
L 125.408641 448.56 
L 125.408641 448.56 
L 115.363636 448.56 
z
" clip-path="url(#p306722d440)" style="fill: #ffee58"/>
   </g>
   <g id="patch_6">
    <path d="M 115.363636 448.56 
L 125.408641 448.56 
L 125.408641 448.56 
L 115.363636 448.56 
z
" clip-path="url(#p306722d440)" style="fill: #ff8a65"/>
   </g>
   <g id="matplotlib.axis_1">
    <g id="xtick_1">
     <g id="line2d_1">
      <path d="M 120.386139 448.56 
L 120.386139 60.48 
" clip-path="url(#p306722d440)" style="fill: none; stroke-dasharray: 2.96,1.28; stroke-dashoffset: 0; stroke: #b0b0b0; stroke-opacity: 0.8; stroke-width: 0.8"/>
     </g>
     <g id="line2d_2">
      <defs>
       <path id="med396a132f" d="M 0 0 
L 0 3.5 
" style="stroke: #000000; stroke-width: 0.8"/>
      </defs>
      <g>
       <use xlink:href="#med396a132f" x="120.386139" y="448.56" style="stroke: #000000; stroke-width: 0.8"/>
      </g>
     </g>
     <g id="text_1">
      <!-- 0 -->
      <g transform="translate(117.087076 463.84)scale(0.12 -0.12)">
       <defs>
        <path id="UNAVAILABLE-30" d="M 3244 2041 
Q 3244 1572 3150 1186 
Q 3056 800 2865 523 
Q 2675 247 2392 95 
Q 2109 -56 1728 -56 
Q 1400 -56 1131 67 
Q 863 191 672 447 
Q 481 703 378 1100 
Q 275 1497 275 2041 
Q 275 2509 370 2896 
Q 466 3284 655 3561 
Q 844 3838 1128 3989 
Q 1413 4141 1791 4141 
Q 2119 4141 2387 4017 
Q 2656 3894 2847 3636 
Q 3038 3378 3141 2981 
Q 3244 2584 3244 2041 
z
M 2694 2022 
Q 2694 2128 2686 2233 
Q 2678 2338 2669 2438 
L 941 1153 
Q 988 991 1059 853 
Q 1131 716 1232 617 
Q 1334 519 1464 464 
Q 1594 409 1759 409 
Q 1972 409 2145 512 
Q 2319 616 2441 819 
Q 2563 1022 2628 1323 
Q 2694 1625 2694 2022 
z
M 825 2059 
Q 825 1963 826 1866 
Q 828 1769 838 1678 
L 2566 2956 
Q 2519 3116 2447 3247 
Q 2375 3378 2275 3473 
Q 2175 3569 2047 3622 
Q 1919 3675 1759 3675 
Q 1547 3675 1373 3572 
Q 1200 3469 1078 3264 
Q 956 3059 890 2757 
Q 825 2456 825 2059 
z
" transform="scale(0.015625)"/>
       </defs>
       <use xlink:href="#UNAVAILABLE-30"/>
      </g>
     </g>
    </g>
    <g id="xtick_2">
     <g id="line2d_3">
      <path d="M 183.167417 448.56 
L 183.167417 60.48 
" clip-path="url(#p306722d440)" style="fill: none; stroke-dasharray: 2.96,1.28; stroke-dashoffset: 0; stroke: #b0b0b0; stroke-opacity: 0.8; stroke-width: 0.8"/>
     </g>
     <g id="line2d_4">
      <g>
       <use xlink:href="#med396a132f" x="183.167417" y="448.56" style="stroke: #000000; stroke-width: 0.8"/>
      </g>
     </g>
     <g id="text_2">
      <!-- 5 -->
      <g transform="translate(179.868354 463.84)scale(0.12 -0.12)">
       <defs>
        <path id="UNAVAILABLE-35" d="M 3047 1306 
Q 3047 1003 2915 753 
Q 2784 503 2554 323 
Q 2325 144 2012 44 
Q 1700 -56 1338 -56 
Q 1247 -56 1142 -51 
Q 1038 -47 934 -39 
Q 831 -31 732 -22 
Q 634 -13 556 0 
L 556 494 
Q 725 453 942 434 
Q 1159 416 1381 416 
Q 1631 416 1831 475 
Q 2031 534 2172 645 
Q 2313 756 2388 914 
Q 2463 1072 2463 1269 
Q 2463 1650 2189 1823 
Q 1916 1997 1403 1997 
L 628 1997 
L 628 4084 
L 2828 4084 
L 2828 3609 
L 1141 3609 
L 1141 2463 
L 1497 2463 
Q 1791 2463 2069 2409 
Q 2347 2356 2564 2223 
Q 2781 2091 2914 1867 
Q 3047 1644 3047 1306 
z
" transform="scale(0.015625)"/>
       </defs>
       <use xlink:href="#UNAVAILABLE-35"/>
      </g>
     </g>
    </g>
    <g id="xtick_3">
     <g id="line2d_5">
      <path d="M 245.948695 448.56 
L 245.948695 60.48 
" clip-path="url(#p306722d440)" style="fill: none; stroke-dasharray: 2.96,1.28; stroke-dashoffset: 0; stroke: #b0b0b0; stroke-opacity: 0.8; stroke-width: 0.8"/>
     </g>
     <g id="line2d_6">
      <g>
       <use xlink:href="#med396a132f" x="245.948695" y="448.56" style="stroke: #000000; stroke-width: 0.8"/>
      </g>
     </g>
     <g id="text_3">
      <!-- 10 -->
      <g transform="translate(239.35057 463.84)scale(0.12 -0.12)">
       <defs>
        <path id="UNAVAILABLE-31" d="M 3116 0 
L 550 0 
L 550 506 
L 1600 506 
L 1600 3488 
L 622 2956 
L 422 3419 
L 1722 4103 
L 2203 4103 
L 2203 506 
L 3116 506 
L 3116 0 
z
" transform="scale(0.015625)"/>
       </defs>
       <use xlink:href="#UNAVAILABLE-31"/>
       <use xlink:href="#UNAVAILABLE-30" x="54.980469"/>
      </g>
     </g>
    </g>
    <g id="xtick_4">
     <g id="line2d_7">
      <path d="M 308.729973 448.56 
L 308.729973 60.48 
" clip-path="url(#p306722d440)" style="fill: none; stroke-dasharray: 2.96,1.28; stroke-dashoffset: 0; stroke: #b0b0b0; stroke-opacity: 0.8; stroke-width: 0.8"/>
     </g>
     <g id="line2d_8">
      <g>
       <use xlink:href="#med396a132f" x="308.729973" y="448.56" style="stroke: #000000; stroke-width: 0.8"/>
      </g>
     </g>
     <g id="text_4">
      <!-- 15 -->
      <g transform="translate(302.131848 463.84)scale(0.12 -0.12)">
       <use xlink:href="#UNAVAILABLE-31"/>
       <use xlink:href="#UNAVAILABLE-35" x="54.980469"/>
      </g>
     </g>
    </g>
    <g id="xtick_5">
     <g id="line2d_9">
      <path d="M 371.511251 448.56 
L 371.511251 60.48 
" clip-path="url(#p306722d440)" style="fill: none; stroke-dasharray: 2.96,1.28; stroke-dashoffset: 0; stroke: #b0b0b0; stroke-opacity: 0.8; stroke-width: 0.8"/>
     </g>
     <g id="line2d_10">
      <g>
       <use xlink:href="#med396a132f" x="371.511251" y="448.56" style="stroke: #000000; stroke-width: 0.8"/>
      </g>
     </g>
     <g id="text_5">
      <!-- 20 -->
      <g transform="translate(364.913126 463.84)scale(0.12 -0.12)">
       <defs>
        <path id="UNAVAILABLE-32" d="M 3150 0 
L 459 0 
L 459 488 
L 1516 1538 
Q 1775 1794 1937 1981 
Q 2100 2169 2190 2323 
Q 2281 2478 2312 2615 
Q 2344 2753 2344 2913 
Q 2344 3063 2303 3198 
Q 2263 3334 2178 3437 
Q 2094 3541 1959 3600 
Q 1825 3659 1638 3659 
Q 1378 3659 1165 3543 
Q 953 3428 775 3244 
L 475 3603 
Q 706 3847 1007 3994 
Q 1309 4141 1709 4141 
Q 1981 4141 2204 4059 
Q 2428 3978 2590 3825 
Q 2753 3672 2842 3450 
Q 2931 3228 2931 2950 
Q 2931 2716 2868 2516 
Q 2806 2316 2679 2117 
Q 2553 1919 2361 1706 
Q 2169 1494 1906 1241 
L 1166 519 
L 3150 519 
L 3150 0 
z
" transform="scale(0.015625)"/>
       </defs>
       <use xlink:href="#UNAVAILABLE-32"/>
       <use xlink:href="#UNAVAILABLE-30" x="54.980469"/>
      </g>
     </g>
    </g>
    <g id="xtick_6">
     <g id="line2d_11">
      <path d="M 434.292529 448.56 
L 434.292529 60.48 
" clip-path="url(#p306722d440)" style="fill: none; stroke-dasharray: 2.96,1.28; stroke-dashoffset: 0; stroke: #b0b0b0; stroke-opacity: 0.8; stroke-width: 0.8"/>
     </g>
     <g id="line2d_12">
      <g>
       <use xlink:href="#med396a132f" x="434.292529" y="448.56" style="stroke: #000000; stroke-width: 0.8"/>
      </g>
     </g>
     <g id="text_6">
      <!-- 25 -->
      <g transform="translate(427.694404 463.84)scale(0.12 -0.12)">
       <use xlink:href="#UNAVAILABLE-32"/>
       <use xlink:href="#UNAVAILABLE-35" x="54.980469"/>
      </g>
     </g>
    </g>
    <g id="xtick_7">
     <g id="line2d_13">
      <path d="M 497.073807 448.56 
L 497.073807 60.48 
" clip-path="url(#p306722d440)" style="fill: none; stroke-dasharray: 2.96,1.28; stroke-dashoffset: 0; stroke: #b0b0b0; stroke-opacity: 0.8; stroke-width: 0.8"/>
     </g>
     <g id="line2d_14">
      <g>
       <use xlink:href="#med396a132f" x="497.073807" y="448.56" style="stroke: #000000; stroke-width: 0.8"/>
      </g>
     </g>
     <g id="text_7">
      <!-- 30 -->
      <g transform="translate(490.475682 463.84)scale(0.12 -0.12)">
       <defs>
        <path id="UNAVAILABLE-33" d="M 3072 1241 
Q 3072 972 2962 736 
Q 2853 500 2634 323 
Q 2416 147 2084 45 
Q 1753 -56 1313 -56 
Q 1069 -56 875 -40 
Q 681 -25 513 0 
L 513 488 
Q 706 453 922 434 
Q 1138 416 1363 416 
Q 1669 416 1886 470 
Q 2103 525 2240 628 
Q 2378 731 2440 878 
Q 2503 1025 2503 1209 
Q 2503 1378 2428 1503 
Q 2353 1628 2217 1712 
Q 2081 1797 1892 1839 
Q 1703 1881 1478 1881 
L 1013 1881 
L 1013 2328 
L 1484 2328 
Q 1669 2328 1820 2376 
Q 1972 2425 2080 2515 
Q 2188 2606 2245 2739 
Q 2303 2872 2303 3041 
Q 2303 3369 2103 3519 
Q 1903 3669 1516 3669 
Q 1309 3669 1090 3628 
Q 872 3588 622 3506 
L 622 3981 
Q 728 4019 848 4048 
Q 969 4078 1089 4098 
Q 1209 4119 1328 4130 
Q 1447 4141 1556 4141 
Q 1881 4141 2128 4070 
Q 2375 4000 2540 3869 
Q 2706 3738 2790 3550 
Q 2875 3363 2875 3128 
Q 2875 2778 2695 2540 
Q 2516 2303 2203 2163 
Q 2363 2138 2517 2063 
Q 2672 1988 2795 1870 
Q 2919 1753 2995 1593 
Q 3072 1434 3072 1241 
z
" transform="scale(0.015625)"/>
       </defs>
       <use xlink:href="#UNAVAILABLE-33"/>
       <use xlink:href="#UNAVAILABLE-30" x="54.980469"/>
      </g>
     </g>
    </g>
    <g id="xtick_8">
     <g id="line2d_15">
      <path d="M 559.855086 448.56 
L 559.855086 60.48 
" clip-path="url(#p306722d440)" style="fill: none; stroke-dasharray: 2.96,1.28; stroke-dashoffset: 0; stroke: #b0b0b0; stroke-opacity: 0.8; stroke-width: 0.8"/>
     </g>
     <g id="line2d_16">
      <g>
       <use xlink:href="#med396a132f" x="559.855086" y="448.56" style="stroke: #000000; stroke-width: 0.8"/>
      </g>
     </g>
     <g id="text_8">
      <!-- 35 -->
      <g transform="translate(553.256961 463.84)scale(0.12 -0.12)">
       <use xlink:href="#UNAVAILABLE-33"/>
       <use xlink:href="#UNAVAILABLE-35" x="54.980469"/>
      </g>
     </g>
    </g>
    <g id="xtick_9">
     <g id="line2d_17">
      <path d="M 622.636364 448.56 
L 622.636364 60.48 
" clip-path="url(#p306722d440)" style="fill: none; stroke-dasharray: 2.96,1.28; stroke-dashoffset: 0; stroke: #b0b0b0; stroke-opacity: 0.8; stroke-width: 0.8"/>
     </g>
     <g id="line2d_18">
      <g>
       <use xlink:href="#med396a132f" x="622.636364" y="448.56" style="stroke: #000000; stroke-width: 0.8"/>
      </g>
     </g>
     <g id="text_9">
      <!-- 40 -->
      <g transform="translate(616.038239 463.84)scale(0.12 -0.12)">
       <defs>
        <path id="UNAVAILABLE-34" d="M 3353 903 
L 2656 903 
L 2656 0 
L 2100 0 
L 2100 903 
L 134 903 
L 134 1381 
L 1875 4084 
L 2656 4084 
L 2656 1381 
L 3353 1381 
L 3353 903 
z
M 2100 3559 
L 678 1381 
L 2100 1381 
L 2100 3559 
z
" transform="scale(0.015625)"/>
       </defs>
       <use xlink:href="#UNAVAILABLE-34"/>
       <use xlink:href="#UNAVAILABLE-30" x="54.980469"/>
      </g>
     </g>
    </g>
    <g id="text_10">
     <!-- 时间(分钟) -->
     <g transform="translate(330.752344 482.787969)scale(0.15 -0.15)">
      <defs>
       <path id="UNAVAILABLE-65f6" d="M 344 4728 
L 2500 4728 
L 2500 -366 
L 2006 -366 
L 2006 153 
L 838 153 
L 838 -441 
L 344 -441 
L 344 4728 
z
M 2706 3941 
L 4925 3941 
L 4925 5322 
L 5425 5322 
L 5425 3941 
L 6313 3941 
L 6313 3478 
L 5425 3478 
L 5425 116 
Q 5425 -722 4625 -722 
Q 4263 -722 3563 -703 
Q 3531 -478 3463 -178 
Q 4119 -228 4488 -228 
Q 4925 -228 4925 216 
L 4925 3478 
L 2706 3478 
L 2706 3941 
z
M 838 616 
L 2006 616 
L 2006 2234 
L 838 2234 
L 838 616 
z
M 2006 4266 
L 838 4266 
L 838 2684 
L 2006 2684 
L 2006 4266 
z
M 3406 2878 
Q 3906 1966 4163 1422 
Q 4000 1347 3663 1172 
Q 3419 1766 2963 2653 
L 3406 2878 
z
" transform="scale(0.015625)"/>
       <path id="UNAVAILABLE-95f4" d="M 1863 3647 
L 4513 3647 
L 4513 553 
L 2313 553 
L 2313 166 
L 1863 166 
L 1863 3647 
z
M 2388 4453 
L 2388 4922 
L 6013 4922 
L 6013 -28 
Q 6013 -816 5119 -816 
Q 4756 -816 4169 -803 
Q 4144 -616 4069 -297 
Q 4588 -334 5056 -334 
Q 5525 -334 5525 122 
L 5525 4453 
L 2388 4453 
z
M 419 4084 
L 906 4084 
L 906 -816 
L 419 -816 
L 419 4084 
z
M 2313 997 
L 4063 997 
L 4063 1884 
L 2313 1884 
L 2313 997 
z
M 4063 3203 
L 2313 3203 
L 2313 2328 
L 4063 2328 
L 4063 3203 
z
M 744 5003 
L 1100 5322 
Q 1575 4872 1981 4447 
L 1575 4091 
Q 1194 4541 744 5003 
z
" transform="scale(0.015625)"/>
       <path id="UNAVAILABLE-28" d="M 2378 -1313 
Q 938 22 938 1638 
Q 938 2016 1014 2392 
Q 1091 2769 1261 3147 
Q 1431 3525 1711 3903 
Q 1991 4281 2391 4653 
L 2706 4331 
Q 1494 3134 1494 1678 
Q 1494 953 1800 284 
Q 2106 -384 2706 -978 
L 2378 -1313 
z
" transform="scale(0.015625)"/>
       <path id="UNAVAILABLE-5206" d="M 900 2559 
L 5056 2559 
Q 5025 1497 4963 484 
Q 4888 -684 3856 -678 
Q 3350 -684 2788 -647 
Q 2750 -384 2700 -116 
Q 3181 -184 3775 -191 
Q 4400 -203 4463 541 
Q 4513 1216 4538 2097 
L 2616 2097 
Q 2541 1053 2181 416 
Q 1706 -422 588 -878 
Q 425 -666 231 -459 
Q 1269 -72 1725 666 
Q 2053 1225 2103 2097 
L 900 2097 
L 900 2559 
z
M 3488 5159 
L 3938 5353 
Q 4625 3678 6350 2847 
Q 6069 2553 5944 2372 
Q 4225 3366 3488 5159 
z
M 50 2766 
Q 1338 3678 2250 5253 
L 2694 5009 
Q 1744 3347 413 2341 
Q 281 2534 50 2766 
z
" transform="scale(0.015625)"/>
       <path id="UNAVAILABLE-949f" d="M 2663 4091 
L 4094 4091 
L 4094 5303 
L 4569 5303 
L 4569 4091 
L 6000 4091 
L 6000 1091 
L 5538 1091 
L 5538 1384 
L 4569 1384 
L 4569 -822 
L 4094 -822 
L 4094 1384 
L 3125 1384 
L 3125 1091 
L 2663 1091 
L 2663 4091 
z
M 2294 566 
Q 2294 291 2325 47 
Q 1925 -147 1394 -466 
Q 1281 -528 1131 -678 
L 800 -247 
Q 1000 -53 1000 222 
L 1000 1584 
L 144 1584 
L 144 2016 
L 1000 2016 
L 1000 2859 
L 563 2859 
L 563 3281 
Q 444 3094 319 2903 
Q 200 3128 56 3328 
Q 700 4278 1056 5341 
L 1525 5184 
Q 1363 4781 1166 4378 
L 2388 4378 
L 2388 3947 
L 944 3947 
Q 769 3619 566 3291 
L 2238 3291 
L 2238 2859 
L 1456 2859 
L 1456 2016 
L 2388 2016 
L 2388 1584 
L 1456 1584 
L 1456 97 
Q 1913 341 2294 566 
z
M 5538 3653 
L 4569 3653 
L 4569 1822 
L 5538 1822 
L 5538 3653 
z
M 3125 1822 
L 4094 1822 
L 4094 3653 
L 3125 3653 
L 3125 1822 
z
" transform="scale(0.015625)"/>
       <path id="UNAVAILABLE-29" d="M 1141 4653 
Q 2581 3319 2581 1684 
Q 2581 1347 2512 984 
Q 2444 622 2278 242 
Q 2113 -138 1833 -528 
Q 1553 -919 1128 -1313 
L 813 -991 
Q 1422 -388 1722 268 
Q 2022 925 2022 1644 
Q 2022 3131 813 4319 
L 1141 4653 
z
" transform="scale(0.015625)"/>
      </defs>
      <use xlink:href="#UNAVAILABLE-65f6"/>
      <use xlink:href="#UNAVAILABLE-95f4" x="100"/>
      <use xlink:href="#UNAVAILABLE-28" x="200"/>
      <use xlink:href="#UNAVAILABLE-5206" x="254.980469"/>
      <use xlink:href="#UNAVAILABLE-949f" x="354.980469"/>
      <use xlink:href="#UNAVAILABLE-29" x="454.980469"/>
     </g>
    </g>
   </g>
   <g id="matplotlib.axis_2">
    <g id="ytick_1">
     <g id="line2d_19">
      <defs>
       <path id="m51da16e5f0" d="M 0 0 
L -3.5 0 
" style="stroke: #000000; stroke-width: 0.8"/>
      </defs>
      <g>
       <use xlink:href="#m51da16e5f0" x="90" y="439.273568" style="stroke: #000000; stroke-width: 0.8"/>
      </g>
     </g>
     <g id="text_11">
      <!-- 1 -->
      <g transform="translate(75.852031 443.758568)scale(0.13 -0.13)">
       <use xlink:href="#UNAVAILABLE-31"/>
      </g>
     </g>
    </g>
    <g id="ytick_2">
     <g id="line2d_20">
      <g>
       <use xlink:href="#m51da16e5f0" x="90" y="420.700704" style="stroke: #000000; stroke-width: 0.8"/>
      </g>
     </g>
     <g id="text_12">
      <!-- 2 -->
      <g transform="translate(75.852031 425.185704)scale(0.13 -0.13)">
       <use xlink:href="#UNAVAILABLE-32"/>
      </g>
     </g>
    </g>
    <g id="ytick_3">
     <g id="line2d_21">
      <g>
       <use xlink:href="#m51da16e5f0" x="90" y="402.127839" style="stroke: #000000; stroke-width: 0.8"/>
      </g>
     </g>
     <g id="text_13">
      <!-- 3 -->
      <g transform="translate(75.852031 406.612839)scale(0.13 -0.13)">
       <use xlink:href="#UNAVAILABLE-33"/>
      </g>
     </g>
    </g>
    <g id="ytick_4">
     <g id="line2d_22">
      <g>
       <use xlink:href="#m51da16e5f0" x="90" y="383.554975" style="stroke: #000000; stroke-width: 0.8"/>
      </g>
     </g>
     <g id="text_14">
      <!-- 4 -->
      <g transform="translate(75.852031 388.039975)scale(0.13 -0.13)">
       <use xlink:href="#UNAVAILABLE-34"/>
      </g>
     </g>
    </g>
    <g id="ytick_5">
     <g id="line2d_23">
      <g>
       <use xlink:href="#m51da16e5f0" x="90" y="364.982111" style="stroke: #000000; stroke-width: 0.8"/>
      </g>
     </g>
     <g id="text_15">
      <!-- 5 -->
      <g transform="translate(75.852031 369.467111)scale(0.13 -0.13)">
       <use xlink:href="#UNAVAILABLE-35"/>
      </g>
     </g>
    </g>
    <g id="ytick_6">
     <g id="line2d_24">
      <g>
       <use xlink:href="#m51da16e5f0" x="90" y="346.409246" style="stroke: #000000; stroke-width: 0.8"/>
      </g>
     </g>
     <g id="text_16">
      <!-- 6 -->
      <g transform="translate(75.852031 350.894246)scale(0.13 -0.13)">
       <defs>
        <path id="UNAVAILABLE-36" d="M 3200 1294 
Q 3200 1013 3098 766 
Q 2997 519 2809 336 
Q 2622 153 2358 48 
Q 2094 -56 1772 -56 
Q 1434 -56 1175 51 
Q 916 159 741 382 
Q 566 606 475 947 
Q 384 1288 384 1753 
Q 384 2066 425 2359 
Q 466 2653 559 2912 
Q 653 3172 809 3387 
Q 966 3603 1198 3758 
Q 1431 3913 1747 3998 
Q 2063 4084 2478 4084 
L 2881 4084 
L 2881 3609 
L 2444 3609 
Q 2078 3609 1809 3521 
Q 1541 3434 1359 3275 
Q 1178 3116 1081 2891 
Q 984 2666 959 2388 
L 947 2259 
Q 1144 2375 1401 2445 
Q 1659 2516 1959 2516 
Q 2269 2516 2501 2425 
Q 2734 2334 2889 2173 
Q 3044 2013 3122 1788 
Q 3200 1563 3200 1294 
z
M 2631 1259 
Q 2631 1447 2586 1598 
Q 2541 1750 2444 1854 
Q 2347 1959 2198 2017 
Q 2050 2075 1844 2075 
Q 1725 2075 1603 2053 
Q 1481 2031 1364 1992 
Q 1247 1953 1140 1903 
Q 1034 1853 947 1797 
Q 947 1394 1003 1123 
Q 1059 853 1170 690 
Q 1281 528 1443 459 
Q 1606 391 1819 391 
Q 1997 391 2145 448 
Q 2294 506 2401 618 
Q 2509 731 2570 892 
Q 2631 1053 2631 1259 
z
" transform="scale(0.015625)"/>
       </defs>
       <use xlink:href="#UNAVAILABLE-36"/>
      </g>
     </g>
    </g>
    <g id="ytick_7">
     <g id="line2d_25">
      <g>
       <use xlink:href="#m51da16e5f0" x="90" y="327.836382" style="stroke: #000000; stroke-width: 0.8"/>
      </g>
     </g>
     <g id="text_17">
      <!-- 7 -->
      <g transform="translate(75.852031 332.321382)scale(0.13 -0.13)">
       <defs>
        <path id="UNAVAILABLE-37" d="M 3128 3578 
L 1416 0 
L 794 0 
L 2572 3578 
L 366 3578 
L 366 4084 
L 3128 4084 
L 3128 3578 
z
" transform="scale(0.015625)"/>
       </defs>
       <use xlink:href="#UNAVAILABLE-37"/>
      </g>
     </g>
    </g>
    <g id="ytick_8">
     <g id="line2d_26">
      <g>
       <use xlink:href="#m51da16e5f0" x="90" y="309.263518" style="stroke: #000000; stroke-width: 0.8"/>
      </g>
     </g>
     <g id="text_18">
      <!-- 8 -->
      <g transform="translate(75.852031 313.748518)scale(0.13 -0.13)">
       <defs>
        <path id="UNAVAILABLE-38" d="M 3150 1025 
Q 3150 766 3044 564 
Q 2938 363 2747 225 
Q 2556 88 2297 16 
Q 2038 -56 1734 -56 
Q 1400 -56 1145 19 
Q 891 94 719 228 
Q 547 363 459 547 
Q 372 731 372 953 
Q 372 1328 581 1600 
Q 791 1872 1228 2094 
Q 828 2297 643 2545 
Q 459 2794 459 3116 
Q 459 3313 540 3497 
Q 622 3681 786 3825 
Q 950 3969 1197 4055 
Q 1444 4141 1778 4141 
Q 2094 4141 2333 4073 
Q 2572 4006 2734 3881 
Q 2897 3756 2978 3578 
Q 3059 3400 3059 3181 
Q 3059 2825 2861 2575 
Q 2663 2325 2297 2138 
Q 2478 2047 2634 1937 
Q 2791 1828 2906 1693 
Q 3022 1559 3086 1393 
Q 3150 1228 3150 1025 
z
M 2503 3138 
Q 2503 3416 2308 3552 
Q 2113 3688 1759 3688 
Q 1409 3688 1214 3553 
Q 1019 3419 1019 3150 
Q 1019 3028 1066 2925 
Q 1113 2822 1211 2731 
Q 1309 2641 1456 2553 
Q 1603 2466 1806 2375 
Q 2159 2541 2331 2720 
Q 2503 2900 2503 3138 
z
M 2559 984 
Q 2559 1100 2521 1209 
Q 2484 1319 2387 1425 
Q 2291 1531 2128 1637 
Q 1966 1744 1716 1856 
Q 1503 1753 1358 1651 
Q 1213 1550 1123 1445 
Q 1034 1341 996 1228 
Q 959 1116 959 991 
Q 959 850 1020 742 
Q 1081 634 1187 559 
Q 1294 484 1441 446 
Q 1588 409 1759 409 
Q 1925 409 2072 443 
Q 2219 478 2326 548 
Q 2434 619 2496 726 
Q 2559 834 2559 984 
z
" transform="scale(0.015625)"/>
       </defs>
       <use xlink:href="#UNAVAILABLE-38"/>
      </g>
     </g>
    </g>
    <g id="ytick_9">
     <g id="line2d_27">
      <g>
       <use xlink:href="#m51da16e5f0" x="90" y="290.690653" style="stroke: #000000; stroke-width: 0.8"/>
      </g>
     </g>
     <g id="text_19">
      <!-- 9 -->
      <g transform="translate(75.852031 295.175653)scale(0.13 -0.13)">
       <defs>
        <path id="UNAVAILABLE-39" d="M 3128 2272 
Q 3128 1675 2984 1245 
Q 2841 816 2559 539 
Q 2278 263 1862 131 
Q 1447 0 903 0 
L 563 0 
L 563 475 
L 941 475 
Q 1344 475 1637 556 
Q 1931 638 2126 795 
Q 2322 953 2425 1179 
Q 2528 1406 2553 1697 
L 2566 1825 
Q 2369 1709 2112 1639 
Q 1856 1569 1556 1569 
Q 1247 1569 1012 1659 
Q 778 1750 623 1912 
Q 469 2075 391 2298 
Q 313 2522 313 2784 
Q 313 3069 416 3316 
Q 519 3563 705 3745 
Q 891 3928 1150 4034 
Q 1409 4141 1722 4141 
Q 2025 4141 2283 4041 
Q 2541 3941 2728 3717 
Q 2916 3494 3022 3137 
Q 3128 2781 3128 2272 
z
M 1697 3694 
Q 1522 3694 1373 3636 
Q 1225 3578 1117 3467 
Q 1009 3356 946 3193 
Q 884 3031 884 2822 
Q 884 2631 929 2481 
Q 975 2331 1070 2226 
Q 1166 2122 1316 2065 
Q 1466 2009 1672 2009 
Q 1788 2009 1911 2031 
Q 2034 2053 2151 2090 
Q 2269 2128 2375 2178 
Q 2481 2228 2566 2284 
Q 2566 2688 2506 2958 
Q 2447 3228 2334 3392 
Q 2222 3556 2061 3625 
Q 1900 3694 1697 3694 
z
" transform="scale(0.015625)"/>
       </defs>
       <use xlink:href="#UNAVAILABLE-39"/>
      </g>
     </g>
    </g>
    <g id="ytick_10">
     <g id="line2d_28">
      <g>
       <use xlink:href="#m51da16e5f0" x="90" y="272.117789" style="stroke: #000000; stroke-width: 0.8"/>
      </g>
     </g>
     <g id="text_20">
      <!-- 10 -->
      <g transform="translate(68.704062 276.602789)scale(0.13 -0.13)">
       <use xlink:href="#UNAVAILABLE-31"/>
       <use xlink:href="#UNAVAILABLE-30" x="54.980469"/>
      </g>
     </g>
    </g>
    <g id="ytick_11">
     <g id="line2d_29">
      <g>
       <use xlink:href="#m51da16e5f0" x="90" y="253.544925" style="stroke: #000000; stroke-width: 0.8"/>
      </g>
     </g>
     <g id="text_21">
      <!-- 11 -->
      <g transform="translate(68.704062 258.029925)scale(0.13 -0.13)">
       <use xlink:href="#UNAVAILABLE-31"/>
       <use xlink:href="#UNAVAILABLE-31" x="54.980469"/>
      </g>
     </g>
    </g>
    <g id="ytick_12">
     <g id="line2d_30">
      <g>
       <use xlink:href="#m51da16e5f0" x="90" y="234.97206" style="stroke: #000000; stroke-width: 0.8"/>
      </g>
     </g>
     <g id="text_22">
      <!-- 12 -->
      <g transform="translate(68.704062 239.45706)scale(0.13 -0.13)">
       <use xlink:href="#UNAVAILABLE-31"/>
       <use xlink:href="#UNAVAILABLE-32" x="54.980469"/>
      </g>
     </g>
    </g>
    <g id="ytick_13">
     <g id="line2d_31">
      <g>
       <use xlink:href="#m51da16e5f0" x="90" y="216.399196" style="stroke: #000000; stroke-width: 0.8"/>
      </g>
     </g>
     <g id="text_23">
      <!-- 13 -->
      <g transform="translate(68.704062 220.884196)scale(0.13 -0.13)">
       <use xlink:href="#UNAVAILABLE-31"/>
       <use xlink:href="#UNAVAILABLE-33" x="54.980469"/>
      </g>
     </g>
    </g>
    <g id="ytick_14">
     <g id="line2d_32">
      <g>
       <use xlink:href="#m51da16e5f0" x="90" y="197.826332" style="stroke: #000000; stroke-width: 0.8"/>
      </g>
     </g>
     <g id="text_24">
      <!-- 14 -->
      <g transform="translate(68.704062 202.311332)scale(0.13 -0.13)">
       <use xlink:href="#UNAVAILABLE-31"/>
       <use xlink:href="#UNAVAILABLE-34" x="54.980469"/>
      </g>
     </g>
    </g>
    <g id="ytick_15">
     <g id="line2d_33">
      <g>
       <use xlink:href="#m51da16e5f0" x="90" y="179.253467" style="stroke: #000000; stroke-width: 0.8"/>
      </g>
     </g>
     <g id="text_25">
      <!-- 15 -->
      <g transform="translate(68.704062 183.738467)scale(0.13 -0.13)">
       <use xlink:href="#UNAVAILABLE-31"/>
       <use xlink:href="#UNAVAILABLE-35" x="54.980469"/>
      </g>
     </g>
    </g>
    <g id="ytick_16">
     <g id="line2d_34">
      <g>
       <use xlink:href="#m51da16e5f0" x="90" y="160.680603" style="stroke: #000000; stroke-width: 0.8"/>
      </g>
     </g>
     <g id="text_26">
      <!-- 16 -->
      <g transform="translate(68.704062 165.165603)scale(0.13 -0.13)">
       <use xlink:href="#UNAVAILABLE-31"/>
       <use xlink:href="#UNAVAILABLE-36" x="54.980469"/>
      </g>
     </g>
    </g>
    <g id="ytick_17">
     <g id="line2d_35">
      <g>
       <use xlink:href="#m51da16e5f0" x="90" y="142.107739" style="stroke: #000000; stroke-width: 0.8"/>
      </g>
     </g>
     <g id="text_27">
      <!-- 17 -->
      <g transform="translate(68.704062 146.592739)scale(0.13 -0.13)">
       <use xlink:href="#UNAVAILABLE-31"/>
       <use xlink:href="#UNAVAILABLE-37" x="54.980469"/>
      </g>
     </g>
    </g>
    <g id="ytick_18">
     <g id="line2d_36">
      <g>
       <use xlink:href="#m51da16e5f0" x="90" y="123.534874" style="stroke: #000000; stroke-width: 0.8"/>
      </g>
     </g>
     <g id="text_28">
      <!-- 18 -->
      <g transform="translate(68.704062 128.019874)scale(0.13 -0.13)">
       <use xlink:href="#UNAVAILABLE-31"/>
       <use xlink:href="#UNAVAILABLE-38" x="54.980469"/>
      </g>
     </g>
    </g>
    <g id="ytick_19">
     <g id="line2d_37">
      <g>
       <use xlink:href="#m51da16e5f0" x="90" y="104.96201" style="stroke: #000000; stroke-width: 0.8"/>
      </g>
     </g>
     <g id="text_29">
      <!-- 19 -->
      <g transform="translate(68.704062 109.44701)scale(0.13 -0.13)">
       <use xlink:href="#UNAVAILABLE-31"/>
       <use xlink:href="#UNAVAILABLE-39" x="54.980469"/>
      </g>
     </g>
    </g>
    <g id="ytick_20">
     <g id="line2d_38">
      <g>
       <use xlink:href="#m51da16e5f0" x="90" y="86.389146" style="stroke: #000000; stroke-width: 0.8"/>
      </g>
     </g>
     <g id="text_30">
      <!-- 20 -->
      <g transform="translate(68.704062 90.874146)scale(0.13 -0.13)">
       <use xlink:href="#UNAVAILABLE-32"/>
       <use xlink:href="#UNAVAILABLE-30" x="54.980469"/>
      </g>
     </g>
    </g>
    <g id="text_31">
     <!-- 顾客 -->
     <g transform="translate(61.701719 269.52)rotate(-90)scale(0.15 -0.15)">
      <defs>
       <path id="UNAVAILABLE-987e" d="M 3406 3747 
L 4175 3747 
L 4338 4516 
L 3300 4516 
L 3300 4941 
L 6288 4941 
L 6288 4516 
L 4844 4516 
L 4656 3747 
L 6019 3747 
L 6019 509 
L 5594 509 
L 5594 3334 
L 3831 3334 
L 3831 509 
L 3406 509 
L 3406 3747 
z
M 1394 3753 
L 2963 3753 
L 2963 1934 
Q 2963 1497 2788 1372 
Q 2619 1222 2075 1228 
Q 2050 1528 1988 1734 
Q 2350 1672 2450 1722 
Q 2550 1766 2550 1953 
L 2550 3316 
L 1819 3316 
L 1819 78 
Q 2438 353 3056 703 
Q 3056 403 3106 234 
Q 2175 -241 1831 -434 
Q 1588 -572 1469 -709 
L 1194 -359 
Q 1394 -172 1394 178 
L 1394 3753 
z
M 975 4509 
L 975 1978 
Q 975 191 438 -834 
Q 250 -628 81 -509 
Q 538 403 538 2166 
L 538 4947 
L 3075 4947 
L 3075 4509 
L 975 4509 
z
M 4494 2978 
L 4931 2978 
L 4931 2047 
Q 4931 1334 4781 803 
Q 5594 141 6269 -491 
L 5919 -866 
Q 5325 -228 4619 372 
Q 4600 334 4581 303 
Q 4206 -416 3238 -909 
Q 3069 -672 2913 -528 
Q 3813 -97 4156 491 
Q 4494 1059 4494 2047 
L 4494 2978 
z
" transform="scale(0.015625)"/>
       <path id="UNAVAILABLE-5ba2" d="M 2138 4141 
L 2594 3947 
Q 2450 3769 2306 3603 
L 5188 3603 
L 5188 3209 
Q 4669 2606 3813 2169 
Q 4850 1847 6344 1841 
Q 6175 1597 6031 1334 
Q 4359 1463 3256 1919 
Q 2044 1431 288 1209 
Q 181 1441 25 1659 
Q 1603 1819 2706 2184 
Q 2106 2528 1734 3003 
Q 1266 2553 763 2197 
Q 625 2359 438 2534 
Q 1544 3291 2138 4141 
z
M 1175 1172 
L 5250 1172 
L 5250 -816 
L 4788 -816 
L 4788 -553 
L 1638 -553 
L 1638 -816 
L 1175 -816 
L 1175 1172 
z
M 425 4578 
L 3122 4578 
Q 2953 4838 2713 5128 
L 3138 5397 
Q 3388 5109 3656 4759 
L 3369 4578 
L 6013 4578 
L 6013 3409 
L 5550 3409 
L 5550 4166 
L 888 4166 
L 888 3416 
L 425 3416 
L 425 4578 
z
M 4788 772 
L 1638 772 
L 1638 -153 
L 4788 -153 
L 4788 772 
z
M 4525 3203 
L 2134 3203 
Q 2556 2703 3244 2388 
Q 4041 2728 4525 3203 
z
" transform="scale(0.015625)"/>
      </defs>
      <use xlink:href="#UNAVAILABLE-987e"/>
      <use xlink:href="#UNAVAILABLE-5ba2" x="100"/>
     </g>
    </g>
   </g>
   <g id="BrokenBarHCollection_1">
    <defs>
     <path id="m4b67e33c6e" d="M 120.386139 -55.44 
L 120.386139 -72.155578 
L 308.729973 -72.155578 
L 308.729973 -55.44 
L 120.386139 -55.44 
z
" style="stroke: #ffffff; stroke-opacity: 0.3"/>
    </defs>
    <g clip-path="url(#p306722d440)">
     <use xlink:href="#m4b67e33c6e" x="0" y="504" style="fill: #ff8a65; fill-opacity: 0.3; stroke: #ffffff; stroke-opacity: 0.3"/>
    </g>
   </g>
   <g id="BrokenBarHCollection_2">
    <defs>
     <path id="m54f88fe868" d="M 132.942394 -74.012864 
L 132.942394 -90.728442 
L 308.729973 -90.728442 
L 308.729973 -74.012864 
L 132.942394 -74.012864 
z
" style="stroke: #ffffff; stroke-opacity: 0.3"/>
    </defs>
    <g clip-path="url(#p306722d440)">
     <use xlink:href="#m54f88fe868" x="0" y="504" style="fill: #ff8a65; fill-opacity: 0.3; stroke: #ffffff; stroke-opacity: 0.3"/>
    </g>
   </g>
   <g id="BrokenBarHCollection_3">
    <defs>
     <path id="me0c2da3456" d="M 145.49865 -92.585729 
L 145.49865 -109.301307 
L 308.729973 -109.301307 
L 308.729973 -92.585729 
L 145.49865 -92.585729 
z
" style="stroke: #ffffff; stroke-opacity: 0.3"/>
    </defs>
    <g clip-path="url(#p306722d440)">
     <use xlink:href="#me0c2da3456" x="0" y="504" style="fill: #ff8a65; fill-opacity: 0.3; stroke: #ffffff; stroke-opacity: 0.3"/>
    </g>
   </g>
   <g id="BrokenBarHCollection_4">
    <defs>
     <path id="m70f6112ed3" d="M 158.054905 -111.158593 
L 158.054905 -127.874171 
L 371.511251 -127.874171 
L 371.511251 -111.158593 
L 158.054905 -111.158593 
z
" style="stroke: #ffffff; stroke-opacity: 0.3"/>
    </defs>
    <g clip-path="url(#p306722d440)">
     <use xlink:href="#m70f6112ed3" x="0" y="504" style="fill: #ff8a65; fill-opacity: 0.3; stroke: #ffffff; stroke-opacity: 0.3"/>
    </g>
   </g>
   <g id="BrokenBarHCollection_5">
    <defs>
     <path id="m9d321a7b27" d="M 170.611161 -129.731457 
L 170.611161 -146.447035 
L 371.511251 -146.447035 
L 371.511251 -129.731457 
L 170.611161 -129.731457 
z
" style="stroke: #ffffff; stroke-opacity: 0.3"/>
    </defs>
    <g clip-path="url(#p306722d440)">
     <use xlink:href="#m9d321a7b27" x="0" y="504" style="fill: #ff8a65; fill-opacity: 0.3; stroke: #ffffff; stroke-opacity: 0.3"/>
    </g>
   </g>
   <g id="BrokenBarHCollection_6">
    <defs>
     <path id="m31db07b255" d="M 183.167417 -148.304322 
L 183.167417 -165.019899 
L 371.511251 -165.019899 
L 371.511251 -148.304322 
L 183.167417 -148.304322 
z
" style="stroke: #ffffff; stroke-opacity: 0.3"/>
    </defs>
    <g clip-path="url(#p306722d440)">
     <use xlink:href="#m31db07b255" x="0" y="504" style="fill: #ff8a65; fill-opacity: 0.3; stroke: #ffffff; stroke-opacity: 0.3"/>
    </g>
   </g>
   <g id="BrokenBarHCollection_7">
    <defs>
     <path id="m1564a59a80" d="M 195.723672 -166.877186 
L 195.723672 -183.592764 
L 434.292529 -183.592764 
L 434.292529 -166.877186 
L 195.723672 -166.877186 
z
" style="stroke: #ffffff; stroke-opacity: 0.3"/>
    </defs>
    <g clip-path="url(#p306722d440)">
     <use xlink:href="#m1564a59a80" x="0" y="504" style="fill: #ff8a65; fill-opacity: 0.3; stroke: #ffffff; stroke-opacity: 0.3"/>
    </g>
   </g>
   <g id="BrokenBarHCollection_8">
    <defs>
     <path id="m43360d8cc4" d="M 208.279928 -185.45005 
L 208.279928 -202.165628 
L 434.292529 -202.165628 
L 434.292529 -185.45005 
L 208.279928 -185.45005 
z
" style="stroke: #ffffff; stroke-opacity: 0.3"/>
    </defs>
    <g clip-path="url(#p306722d440)">
     <use xlink:href="#m43360d8cc4" x="0" y="504" style="fill: #ff8a65; fill-opacity: 0.3; stroke: #ffffff; stroke-opacity: 0.3"/>
    </g>
   </g>
   <g id="BrokenBarHCollection_9">
    <defs>
     <path id="m18c6d67b9f" d="M 220.836184 -204.022915 
L 220.836184 -220.738492 
L 434.292529 -220.738492 
L 434.292529 -204.022915 
L 220.836184 -204.022915 
z
" style="stroke: #ffffff; stroke-opacity: 0.3"/>
    </defs>
    <g clip-path="url(#p306722d440)">
     <use xlink:href="#m18c6d67b9f" x="0" y="504" style="fill: #ff8a65; fill-opacity: 0.3; stroke: #ffffff; stroke-opacity: 0.3"/>
    </g>
   </g>
   <g id="BrokenBarHCollection_10">
    <defs>
     <path id="m30f755d61c" d="M 233.392439 -222.595779 
L 233.392439 -239.311357 
L 497.073807 -239.311357 
L 497.073807 -222.595779 
L 233.392439 -222.595779 
z
" style="stroke: #ffffff; stroke-opacity: 0.3"/>
    </defs>
    <g clip-path="url(#p306722d440)">
     <use xlink:href="#m30f755d61c" x="0" y="504" style="fill: #ff8a65; fill-opacity: 0.3; stroke: #ffffff; stroke-opacity: 0.3"/>
    </g>
   </g>
   <g id="BrokenBarHCollection_11">
    <defs>
     <path id="m1998fb7961" d="M 245.948695 -241.168643 
L 245.948695 -257.884221 
L 497.073807 -257.884221 
L 497.073807 -241.168643 
L 245.948695 -241.168643 
z
" style="stroke: #ffffff; stroke-opacity: 0.3"/>
    </defs>
    <g clip-path="url(#p306722d440)">
     <use xlink:href="#m1998fb7961" x="0" y="504" style="fill: #ff8a65; fill-opacity: 0.3; stroke: #ffffff; stroke-opacity: 0.3"/>
    </g>
   </g>
   <g id="BrokenBarHCollection_12">
    <defs>
     <path id="m8a4669768c" d="M 258.50495 -259.741508 
L 258.50495 -276.457085 
L 497.073807 -276.457085 
L 497.073807 -259.741508 
L 258.50495 -259.741508 
z
" style="stroke: #ffffff; stroke-opacity: 0.3"/>
    </defs>
    <g clip-path="url(#p306722d440)">
     <use xlink:href="#m8a4669768c" x="0" y="504" style="fill: #ff8a65; fill-opacity: 0.3; stroke: #ffffff; stroke-opacity: 0.3"/>
    </g>
   </g>
   <g id="BrokenBarHCollection_13">
    <defs>
     <path id="m89d0dbaadc" d="M 271.061206 -278.314372 
L 271.061206 -295.02995 
L 497.073807 -295.02995 
L 497.073807 -278.314372 
L 271.061206 -278.314372 
z
" style="stroke: #ffffff; stroke-opacity: 0.3"/>
    </defs>
    <g clip-path="url(#p306722d440)">
     <use xlink:href="#m89d0dbaadc" x="0" y="504" style="fill: #ff8a65; fill-opacity: 0.3; stroke: #ffffff; stroke-opacity: 0.3"/>
    </g>
   </g>
   <g id="BrokenBarHCollection_14">
    <defs>
     <path id="mb1870a61bc" d="M 283.617462 -296.887236 
L 283.617462 -313.602814 
L 559.855086 -313.602814 
L 559.855086 -296.887236 
L 283.617462 -296.887236 
z
" style="stroke: #ffffff; stroke-opacity: 0.3"/>
    </defs>
    <g clip-path="url(#p306722d440)">
     <use xlink:href="#mb1870a61bc" x="0" y="504" style="fill: #ff8a65; fill-opacity: 0.3; stroke: #ffffff; stroke-opacity: 0.3"/>
    </g>
   </g>
   <g id="BrokenBarHCollection_15">
    <defs>
     <path id="mf462fe04ac" d="M 296.173717 -315.460101 
L 296.173717 -332.175678 
L 559.855086 -332.175678 
L 559.855086 -315.460101 
L 296.173717 -315.460101 
z
" style="stroke: #ffffff; stroke-opacity: 0.3"/>
    </defs>
    <g clip-path="url(#p306722d440)">
     <use xlink:href="#mf462fe04ac" x="0" y="504" style="fill: #ff8a65; fill-opacity: 0.3; stroke: #ffffff; stroke-opacity: 0.3"/>
    </g>
   </g>
   <g id="BrokenBarHCollection_16">
    <defs>
     <path id="mb5fde9e847" d="M 308.729973 -334.032965 
L 308.729973 -350.748543 
L 559.855086 -350.748543 
L 559.855086 -334.032965 
L 308.729973 -334.032965 
z
" style="stroke: #ffffff; stroke-opacity: 0.3"/>
    </defs>
    <g clip-path="url(#p306722d440)">
     <use xlink:href="#mb5fde9e847" x="0" y="504" style="fill: #ff8a65; fill-opacity: 0.3; stroke: #ffffff; stroke-opacity: 0.3"/>
    </g>
   </g>
   <g id="BrokenBarHCollection_17">
    <defs>
     <path id="mc686757118" d="M 321.286229 -352.605829 
L 321.286229 -369.321407 
L 559.855086 -369.321407 
L 559.855086 -352.605829 
L 321.286229 -352.605829 
z
" style="stroke: #ffffff; stroke-opacity: 0.3"/>
    </defs>
    <g clip-path="url(#p306722d440)">
     <use xlink:href="#mc686757118" x="0" y="504" style="fill: #ff8a65; fill-opacity: 0.3; stroke: #ffffff; stroke-opacity: 0.3"/>
    </g>
   </g>
   <g id="BrokenBarHCollection_18">
    <defs>
     <path id="mfa07f7443d" d="M 333.842484 -371.178693 
L 333.842484 -387.894271 
L 559.855086 -387.894271 
L 559.855086 -371.178693 
L 333.842484 -371.178693 
z
" style="stroke: #ffffff; stroke-opacity: 0.3"/>
    </defs>
    <g clip-path="url(#p306722d440)">
     <use xlink:href="#mfa07f7443d" x="0" y="504" style="fill: #ff8a65; fill-opacity: 0.3; stroke: #ffffff; stroke-opacity: 0.3"/>
    </g>
   </g>
   <g id="BrokenBarHCollection_19">
    <defs>
     <path id="mb4da15638e" d="M 346.39874 -389.751558 
L 346.39874 -406.467136 
L 622.636364 -406.467136 
L 622.636364 -389.751558 
L 346.39874 -389.751558 
z
" style="stroke: #ffffff; stroke-opacity: 0.3"/>
    </defs>
    <g clip-path="url(#p306722d440)">
     <use xlink:href="#mb4da15638e" x="0" y="504" style="fill: #ff8a65; fill-opacity: 0.3; stroke: #ffffff; stroke-opacity: 0.3"/>
    </g>
   </g>
   <g id="BrokenBarHCollection_20">
    <defs>
     <path id="m578915ce76" d="M 358.954995 -408.324422 
L 358.954995 -425.04 
L 622.636364 -425.04 
L 622.636364 -408.324422 
L 358.954995 -408.324422 
z
" style="stroke: #ffffff; stroke-opacity: 0.3"/>
    </defs>
    <g clip-path="url(#p306722d440)">
     <use xlink:href="#m578915ce76" x="0" y="504" style="fill: #ff8a65; fill-opacity: 0.3; stroke: #ffffff; stroke-opacity: 0.3"/>
    </g>
   </g>
   <g id="patch_7">
    <path d="M 90 448.56 
L 90 60.48 
" style="fill: none; stroke: #000000; stroke-width: 0.8; stroke-linejoin: miter; stroke-linecap: square"/>
   </g>
   <g id="patch_8">
    <path d="M 90 448.56 
L 648 448.56 
" style="fill: none; stroke: #000000; stroke-width: 0.8; stroke-linejoin: miter; stroke-linecap: square"/>
   </g>
   <g id="BrokenBarHCollection_21">
    <defs>
     <path id="ma9c18247b9" d="M 120.386139 -408.324422 
L 120.386139 -425.04 
L 120.386139 -425.04 
L 120.386139 -408.324422 
L 120.386139 -408.324422 
z
" style="stroke: #42a5f5"/>
    </defs>
    <g clip-path="url(#p306722d440)">
     <use xlink:href="#ma9c18247b9" x="0" y="504" style="fill: #42a5f5; stroke: #42a5f5"/>
    </g>
   </g>
   <g id="BrokenBarHCollection_22">
    <defs>
     <path id="m6d8adbbdeb" d="M 132.942394 -74.012864 
L 132.942394 -90.728442 
L 155.855411 -90.728442 
L 155.855411 -74.012864 
L 132.942394 -74.012864 
z
" style="stroke: #42a5f5"/>
    </defs>
    <g clip-path="url(#p306722d440)">
     <use xlink:href="#m6d8adbbdeb" x="0" y="504" style="fill: #42a5f5; stroke: #42a5f5"/>
    </g>
   </g>
   <g id="BrokenBarHCollection_23">
    <defs>
     <path id="mec40988440" d="M 178.768427 -129.731457 
L 178.768427 -146.447035 
L 197.893546 -146.447035 
L 197.893546 -129.731457 
L 178.768427 -129.731457 
z
" style="stroke: #42a5f5"/>
    </defs>
    <g clip-path="url(#p306722d440)">
     <use xlink:href="#mec40988440" x="0" y="504" style="fill: #42a5f5; stroke: #42a5f5"/>
    </g>
   </g>
   <g id="BrokenBarHCollection_24">
    <defs>
     <path id="m7bbba95f74" d="M 226.527451 -111.158593 
L 226.527451 -127.874171 
L 249.440468 -127.874171 
L 249.440468 -111.158593 
L 226.527451 -111.158593 
z
" style="stroke: #42a5f5"/>
    </defs>
    <g clip-path="url(#p306722d440)">
     <use xlink:href="#m7bbba95f74" x="0" y="504" style="fill: #42a5f5; stroke: #42a5f5"/>
    </g>
   </g>
   <g id="BrokenBarHCollection_25">
    <defs>
     <path id="mad9de64be1" d="M 278.458941 -148.304322 
L 278.458941 -165.019899 
L 300.387499 -165.019899 
L 300.387499 -148.304322 
L 278.458941 -148.304322 
z
" style="stroke: #42a5f5"/>
    </defs>
    <g clip-path="url(#p306722d440)">
     <use xlink:href="#mad9de64be1" x="0" y="504" style="fill: #42a5f5; stroke: #42a5f5"/>
    </g>
   </g>
   <g id="BrokenBarHCollection_26">
    <defs>
     <path id="me519285546" d="M 330.818067 -315.460101 
L 330.818067 -332.175678 
L 347.570201 -332.175678 
L 347.570201 -315.460101 
L 330.818067 -315.460101 
z
" style="stroke: #42a5f5"/>
    </defs>
    <g clip-path="url(#p306722d440)">
     <use xlink:href="#me519285546" x="0" y="504" style="fill: #42a5f5; stroke: #42a5f5"/>
    </g>
   </g>
   <g id="BrokenBarHCollection_27">
    <defs>
     <path id="mbf6dc7176a" d="M 383.93802 -334.032965 
L 383.93802 -350.748543 
L 396.368079 -350.748543 
L 396.368079 -334.032965 
L 383.93802 -334.032965 
z
" style="stroke: #42a5f5"/>
    </defs>
    <g clip-path="url(#p306722d440)">
     <use xlink:href="#mbf6dc7176a" x="0" y="504" style="fill: #42a5f5; stroke: #42a5f5"/>
    </g>
   </g>
   <g id="BrokenBarHCollection_28">
    <defs>
     <path id="md32fc618e3" d="M 411.787299 -55.44 
L 411.787299 -72.155578 
L 425.825619 -72.155578 
L 425.825619 -55.44 
L 411.787299 -55.44 
z
" style="stroke: #42a5f5"/>
    </defs>
    <g clip-path="url(#p306722d440)">
     <use xlink:href="#md32fc618e3" x="0" y="504" style="fill: #42a5f5; stroke: #42a5f5"/>
    </g>
   </g>
   <g id="BrokenBarHCollection_29">
    <defs>
     <path id="mc7761c2cb5" d="M 439.86394 -296.887236 
L 439.86394 -313.602814 
L 459.717123 -313.602814 
L 459.717123 -296.887236 
L 439.86394 -296.887236 
z
" style="stroke: #42a5f5"/>
    </defs>
    <g clip-path="url(#p306722d440)">
     <use xlink:href="#mc7761c2cb5" x="0" y="504" style="fill: #42a5f5; stroke: #42a5f5"/>
    </g>
   </g>
   <g id="BrokenBarHCollection_30">
    <defs>
     <path id="m125df21f79" d="M 120.386139 -408.324422 
L 120.386139 -425.04 
L 120.386139 -425.04 
L 120.386139 -408.324422 
L 120.386139 -408.324422 
z
" style="stroke: #66bb6a"/>
    </defs>
    <g clip-path="url(#p306722d440)">
     <use xlink:href="#m125df21f79" x="0" y="504" style="fill: #66bb6a; stroke: #66bb6a"/>
    </g>
   </g>
   <g id="BrokenBarHCollection_31">
    <defs>
     <path id="m41ba7fe39b" d="M 208.279928 -185.45005 
L 208.279928 -202.165628 
L 233.392439 -202.165628 
L 233.392439 -185.45005 
L 208.279928 -185.45005 
z
" style="stroke: #66bb6a"/>
    </defs>
    <g clip-path="url(#p306722d440)">
     <use xlink:href="#m41ba7fe39b" x="0" y="504" style="fill: #66bb6a; stroke: #66bb6a"/>
    </g>
   </g>
   <g id="BrokenBarHCollection_32">
    <defs>
     <path id="mcc99441bf9" d="M 258.816919 -259.741508 
L 258.816919 -276.457085 
L 281.418179 -276.457085 
L 281.418179 -259.741508 
L 258.816919 -259.741508 
z
" style="stroke: #66bb6a"/>
    </defs>
    <g clip-path="url(#p306722d440)">
     <use xlink:href="#mcc99441bf9" x="0" y="504" style="fill: #66bb6a; stroke: #66bb6a"/>
    </g>
   </g>
   <g id="BrokenBarHCollection_33">
    <defs>
     <path id="m4b7bde233e" d="M 304.019439 -278.314372 
L 304.019439 -295.02995 
L 331.066442 -295.02995 
L 331.066442 -278.314372 
L 304.019439 -278.314372 
z
" style="stroke: #66bb6a"/>
    </defs>
    <g clip-path="url(#p306722d440)">
     <use xlink:href="#m4b7bde233e" x="0" y="504" style="fill: #66bb6a; stroke: #66bb6a"/>
    </g>
   </g>
   <g id="BrokenBarHCollection_34">
    <defs>
     <path id="m18c56b7ec3" d="M 360.238886 -241.168643 
L 360.238886 -257.884221 
L 380.092069 -257.884221 
L 380.092069 -241.168643 
L 360.238886 -241.168643 
z
" style="stroke: #66bb6a"/>
    </defs>
    <g clip-path="url(#p306722d440)">
     <use xlink:href="#m18c56b7ec3" x="0" y="504" style="fill: #66bb6a; stroke: #66bb6a"/>
    </g>
   </g>
   <g id="BrokenBarHCollection_35">
    <defs>
     <path id="m9e4ee4c339" d="M 399.945252 -389.751558 
L 399.945252 -406.467136 
L 418.779636 -406.467136 
L 418.779636 -389.751558 
L 399.945252 -389.751558 
z
" style="stroke: #66bb6a"/>
    </defs>
    <g clip-path="url(#p306722d440)">
     <use xlink:href="#m9e4ee4c339" x="0" y="504" style="fill: #66bb6a; stroke: #66bb6a"/>
    </g>
   </g>
   <g id="BrokenBarHCollection_36">
    <defs>
     <path id="m15405e69cf" d="M 437.614019 -371.178693 
L 437.614019 -387.894271 
L 461.305115 -387.894271 
L 461.305115 -371.178693 
L 437.614019 -371.178693 
z
" style="stroke: #66bb6a"/>
    </defs>
    <g clip-path="url(#p306722d440)">
     <use xlink:href="#m15405e69cf" x="0" y="504" style="fill: #66bb6a; stroke: #66bb6a"/>
    </g>
   </g>
   <g id="BrokenBarHCollection_37">
    <defs>
     <path id="m117eb44ded" d="M 120.386139 -408.324422 
L 120.386139 -425.04 
L 120.386139 -425.04 
L 120.386139 -408.324422 
L 120.386139 -408.324422 
z
" style="stroke: #ffee58"/>
    </defs>
    <g clip-path="url(#p306722d440)">
     <use xlink:href="#m117eb44ded" x="0" y="504" style="fill: #ffee58; stroke: #ffee58"/>
    </g>
   </g>
   <g id="BrokenBarHCollection_38">
    <defs>
     <path id="mfe2c95f1df" d="M 233.392439 -222.595779 
L 233.392439 -239.311357 
L 255.853752 -239.311357 
L 255.853752 -222.595779 
L 233.392439 -222.595779 
z
" style="stroke: #ffee58"/>
    </defs>
    <g clip-path="url(#p306722d440)">
     <use xlink:href="#mfe2c95f1df" x="0" y="504" style="fill: #ffee58; stroke: #ffee58"/>
    </g>
   </g>
   <g id="BrokenBarHCollection_39">
    <defs>
     <path id="m33c3ebb40b" d="M 282.571983 -92.585729 
L 282.571983 -109.301307 
L 306.951822 -109.301307 
L 306.951822 -92.585729 
L 282.571983 -92.585729 
z
" style="stroke: #ffee58"/>
    </defs>
    <g clip-path="url(#p306722d440)">
     <use xlink:href="#m33c3ebb40b" x="0" y="504" style="fill: #ffee58; stroke: #ffee58"/>
    </g>
   </g>
   <g id="BrokenBarHCollection_40">
    <defs>
     <path id="mdea47fa29f" d="M 324.575366 -352.605829 
L 324.575366 -369.321407 
L 343.40975 -369.321407 
L 343.40975 -352.605829 
L 324.575366 -352.605829 
z
" style="stroke: #ffee58"/>
    </defs>
    <g clip-path="url(#p306722d440)">
     <use xlink:href="#mdea47fa29f" x="0" y="504" style="fill: #ffee58; stroke: #ffee58"/>
    </g>
   </g>
   <g id="BrokenBarHCollection_41">
    <defs>
     <path id="mbd219ed8fa" d="M 362.244133 -166.877186 
L 362.244133 -183.592764 
L 376.282454 -183.592764 
L 376.282454 -166.877186 
L 362.244133 -166.877186 
z
" style="stroke: #ffee58"/>
    </defs>
    <g clip-path="url(#p306722d440)">
     <use xlink:href="#mbd219ed8fa" x="0" y="504" style="fill: #ffee58; stroke: #ffee58"/>
    </g>
   </g>
   <g id="BrokenBarHCollection_42">
    <defs>
     <path id="m0a8281295a" d="M 390.320774 -408.324422 
L 390.320774 -425.04 
L 416.206158 -425.04 
L 416.206158 -408.324422 
L 390.320774 -408.324422 
z
" style="stroke: #ffee58"/>
    </defs>
    <g clip-path="url(#p306722d440)">
     <use xlink:href="#m0a8281295a" x="0" y="504" style="fill: #ffee58; stroke: #ffee58"/>
    </g>
   </g>
   <g id="BrokenBarHCollection_43">
    <defs>
     <path id="m668fcf5d45" d="M 447.596797 -204.022915 
L 447.596797 -220.738492 
L 461.913132 -220.738492 
L 461.913132 -204.022915 
L 447.596797 -204.022915 
z
" style="stroke: #ffee58"/>
    </defs>
    <g clip-path="url(#p306722d440)">
     <use xlink:href="#m668fcf5d45" x="0" y="504" style="fill: #ffee58; stroke: #ffee58"/>
    </g>
   </g>
   <g id="legend_1">
    <g id="patch_9">
     <path d="M 98.4 140.739375 
L 232.8 140.739375 
Q 235.2 140.739375 235.2 138.339375 
L 235.2 68.88 
Q 235.2 66.48 232.8 66.48 
L 98.4 66.48 
Q 96 66.48 96 68.88 
L 96 138.339375 
Q 96 140.739375 98.4 140.739375 
z
" style="fill: #ffffff; opacity: 0.8; stroke: #cccccc; stroke-linejoin: miter"/>
    </g>
    <g id="patch_10">
     <path d="M 100.8 80.49 
L 124.8 80.49 
L 124.8 72.09 
L 100.8 72.09 
z
" style="fill: #42a5f5"/>
    </g>
    <g id="text_32">
     <!-- 无人机1 -->
     <g transform="translate(134.4 80.49)scale(0.12 -0.12)">
      <defs>
       <path id="UNAVAILABLE-65e0" d="M 200 2878 
L 2650 2878 
Q 2781 3528 2806 4328 
L 675 4328 
L 675 4816 
L 5750 4816 
L 5750 4328 
L 3331 4328 
Q 3288 3528 3169 2878 
L 6225 2878 
L 6225 2391 
L 3063 2391 
Q 2588 278 450 -884 
Q 313 -672 113 -441 
Q 1975 491 2538 2391 
L 200 2391 
L 200 2878 
z
M 3400 1941 
L 3906 1941 
L 3906 297 
Q 3906 -197 4363 -197 
L 5219 -197 
Q 5644 -197 5700 172 
Q 5750 528 5775 1097 
Q 6013 1009 6300 916 
Q 6238 297 6188 -16 
Q 6106 -641 5300 -641 
L 4219 -641 
Q 3400 -641 3400 222 
L 3400 1941 
z
" transform="scale(0.015625)"/>
       <path id="UNAVAILABLE-4eba" d="M 100 -303 
Q 2825 1272 2981 5222 
L 3531 5222 
Q 3497 4553 3400 3947 
Q 4175 822 6313 -166 
Q 6050 -453 5850 -709 
Q 3994 341 3203 3006 
Q 2519 431 494 -778 
Q 325 -547 100 -303 
z
" transform="scale(0.015625)"/>
       <path id="UNAVAILABLE-673a" d="M 3375 4434 
L 3375 2366 
Q 3375 128 2256 -878 
Q 2081 -666 1888 -453 
Q 2875 416 2875 2253 
L 2875 4909 
L 5200 4909 
L 5200 209 
Q 5200 -103 5419 -103 
L 5563 -103 
Q 5763 -103 5819 247 
Q 5881 728 5906 1284 
Q 6125 1178 6381 1084 
Q 6325 466 6269 72 
Q 6169 -591 5631 -591 
L 5300 -591 
Q 4700 -591 4700 122 
L 4700 4434 
L 3375 4434 
z
M 81 1403 
Q 781 2447 1078 3653 
L 144 3653 
L 144 4078 
L 1119 4078 
L 1119 5309 
L 1569 5309 
L 1569 4078 
L 2444 4078 
L 2444 3653 
L 1569 3653 
L 1569 2616 
L 1819 2866 
Q 2300 2428 2575 2153 
L 2238 1809 
Q 1853 2234 1569 2516 
L 1569 -784 
L 1119 -784 
L 1119 2566 
Q 784 1506 288 853 
Q 188 1134 81 1403 
z
" transform="scale(0.015625)"/>
      </defs>
      <use xlink:href="#UNAVAILABLE-65e0"/>
      <use xlink:href="#UNAVAILABLE-4eba" x="100"/>
      <use xlink:href="#UNAVAILABLE-673a" x="200"/>
      <use xlink:href="#UNAVAILABLE-31" x="300"/>
     </g>
    </g>
    <g id="patch_11">
     <path d="M 100.8 98.101875 
L 124.8 98.101875 
L 124.8 89.701875 
L 100.8 89.701875 
z
" style="fill: #66bb6a"/>
    </g>
    <g id="text_33">
     <!-- 无人机2 -->
     <g transform="translate(134.4 98.101875)scale(0.12 -0.12)">
      <use xlink:href="#UNAVAILABLE-65e0"/>
      <use xlink:href="#UNAVAILABLE-4eba" x="100"/>
      <use xlink:href="#UNAVAILABLE-673a" x="200"/>
      <use xlink:href="#UNAVAILABLE-32" x="300"/>
     </g>
    </g>
    <g id="patch_12">
     <path d="M 100.8 115.71375 
L 124.8 115.71375 
L 124.8 107.31375 
L 100.8 107.31375 
z
" style="fill: #ffee58"/>
    </g>
    <g id="text_34">
     <!-- 无人机3 -->
     <g transform="translate(134.4 115.71375)scale(0.12 -0.12)">
      <use xlink:href="#UNAVAILABLE-65e0"/>
      <use xlink:href="#UNAVAILABLE-4eba" x="100"/>
      <use xlink:href="#UNAVAILABLE-673a" x="200"/>
      <use xlink:href="#UNAVAILABLE-33" x="300"/>
     </g>
    </g>
    <g id="patch_13">
     <path d="M 100.8 133.5375 
L 124.8 133.5375 
L 124.8 125.1375 
L 100.8 125.1375 
z
" style="fill: #ff8a65"/>
    </g>
    <g id="text_35">
     <!-- 顾客订单时间区间 -->
     <g transform="translate(134.4 133.5375)scale(0.12 -0.12)">
      <defs>
       <path id="UNAVAILABLE-8ba2" d="M 2325 4803 
L 6319 4803 
L 6319 4334 
L 4906 4334 
L 4906 159 
Q 4906 -691 4069 -697 
Q 3613 -697 2925 -697 
Q 2888 -466 2825 -122 
Q 3450 -178 3906 -178 
Q 4375 -178 4375 297 
L 4375 4334 
L 2325 4334 
L 2325 4803 
z
M 2625 1291 
Q 2688 972 2750 741 
Q 2125 328 1494 -153 
Q 1325 -291 1131 -497 
L 738 -116 
Q 981 116 981 534 
L 981 2697 
L 81 2697 
L 81 3172 
L 1488 3172 
L 1488 466 
Q 1956 784 2625 1291 
z
M 844 5216 
Q 1469 4666 1963 4166 
L 1550 3778 
Q 1094 4303 488 4872 
L 844 5216 
z
" transform="scale(0.015625)"/>
       <path id="UNAVAILABLE-5355" d="M 125 909 
L 2956 909 
L 2956 1616 
L 1225 1616 
L 1225 1322 
L 750 1322 
L 750 4353 
L 2047 4353 
Q 1747 4703 1400 5072 
L 1756 5366 
Q 2219 4922 2569 4547 
L 2338 4353 
L 3803 4353 
Q 4147 4809 4500 5347 
L 5000 5078 
Q 4678 4688 4378 4353 
L 5656 4353 
L 5656 1322 
L 5181 1322 
L 5181 1616 
L 3444 1616 
L 3444 909 
L 6275 909 
L 6275 459 
L 3444 459 
L 3444 -859 
L 2956 -859 
L 2956 459 
L 125 459 
L 125 909 
z
M 3444 2053 
L 5181 2053 
L 5181 2778 
L 3444 2778 
L 3444 2053 
z
M 1225 2053 
L 2956 2053 
L 2956 2778 
L 1225 2778 
L 1225 2053 
z
M 5181 3916 
L 3444 3916 
L 3444 3203 
L 5181 3203 
L 5181 3916 
z
M 1225 3203 
L 2956 3203 
L 2956 3916 
L 1225 3916 
L 1225 3203 
z
" transform="scale(0.015625)"/>
       <path id="UNAVAILABLE-533a" d="M 600 4872 
L 5975 4872 
L 5975 4384 
L 1131 4384 
L 1131 22 
L 6075 22 
L 6075 -453 
L 600 -453 
L 600 4872 
z
M 1613 3697 
L 1963 4028 
Q 2744 3384 3597 2616 
Q 4250 3322 4850 4153 
L 5306 3847 
Q 4650 2997 3975 2272 
Q 4753 1563 5588 753 
L 5156 316 
Q 4400 1106 3600 1878 
Q 2697 963 1763 266 
Q 1613 459 1363 672 
Q 2344 1341 3228 2231 
Q 2444 2972 1613 3697 
z
" transform="scale(0.015625)"/>
      </defs>
      <use xlink:href="#UNAVAILABLE-987e"/>
      <use xlink:href="#UNAVAILABLE-5ba2" x="100"/>
      <use xlink:href="#UNAVAILABLE-8ba2" x="200"/>
      <use xlink:href="#UNAVAILABLE-5355" x="300"/>
      <use xlink:href="#UNAVAILABLE-65f6" x="400"/>
      <use xlink:href="#UNAVAILABLE-95f4" x="500"/>
      <use xlink:href="#UNAVAILABLE-533a" x="600"/>
      <use xlink:href="#UNAVAILABLE-95f4" x="700"/>
     </g>
    </g>
   </g>
  </g>
 </g>
 <defs>
  <clipPath id="p306722d440">
   <rect x="90" y="60.48" width="558" height="388.08"/>
  </clipPath>
 </defs>
</svg>
